DaiBannaSILMaster-Italic.ufo
<glyph name="exclam" format="2">
  <advance width="412"/>
  <unicode hex="0021"/>
  <outline>
    <contour>
      <point x="340" y="924" type="line" smooth="yes"/>
      <point x="333" y="888"/>
      <point x="311" y="783"/>
      <point x="305" y="762" type="curve" smooth="yes"/>
      <point x="155" y="251" type="line" smooth="yes"/>
      <point x="149" y="232"/>
      <point x="114" y="232"/>
      <point x="116" y="251" type="curve" smooth="yes"/>
      <point x="167" y="762" type="line" smooth="yes"/>
      <point x="171" y="799"/>
      <point x="187" y="888"/>
      <point x="194" y="924" type="curve" smooth="yes"/>
      <point x="200" y="957"/>
      <point x="223" y="967"/>
      <point x="276" y="967" type="curve" smooth="yes"/>
      <point x="330" y="967"/>
      <point x="346" y="955"/>
      <point x="340" y="924" type="curve" smooth="yes"/>
    </contour>
    <contour>
      <point x="187" y="110" type="line" smooth="yes"/>
      <point x="187" y="52"/>
      <point x="150" y="-21"/>
      <point x="84" y="-21" type="curve" smooth="yes"/>
      <point x="46" y="-21"/>
      <point x="24" y="15"/>
      <point x="24" y="63" type="curve" smooth="yes"/>
      <point x="24" y="120"/>
      <point x="61" y="190"/>
      <point x="125" y="190" type="curve" smooth="yes"/>
      <point x="157" y="190"/>
      <point x="187" y="160"/>
      <point x="187" y="110" type="curve" smooth="yes"/>
    </contour>
  </outline>
</glyph>
<glyph name="quotedbl" format="2">
  <advance width="909"/>
  <unicode hex="0022"/>
  <outline>
    <contour>
      <point x="518" y="1339" type="line" smooth="yes"/>
      <point x="512" y="1308"/>
      <point x="497" y="1264"/>
      <point x="458" y="1154" type="curve" smooth="yes"/>
      <point x="344" y="830" type="line" smooth="yes"/>
      <point x="339" y="814"/>
      <point x="289" y="816"/>
      <point x="289" y="830" type="curve" smooth="yes"/>
      <point x="304" y="1154" type="line" smooth="yes"/>
      <point x="309" y="1248"/>
      <point x="304" y="1288"/>
      <point x="311" y="1323" type="curve" smooth="yes"/>
      <point x="329" y="1417"/>
      <point x="368" y="1457"/>
      <point x="440" y="1457" type="curve" smooth="yes"/>
      <point x="510" y="1457"/>
      <point x="531" y="1403"/>
      <point x="518" y="1339" type="curve" smooth="yes"/>
    </contour>
    <contour>
      <point x="908" y="1339" type="line" smooth="yes"/>
      <point x="902" y="1308"/>
      <point x="887" y="1264"/>
      <point x="848" y="1154" type="curve" smooth="yes"/>
      <point x="734" y="830" type="line" smooth="yes"/>
      <point x="729" y="814"/>
      <point x="679" y="816"/>
      <point x="679" y="830" type="curve" smooth="yes"/>
      <point x="694" y="1154" type="line" smooth="yes"/>
      <point x="699" y="1248"/>
      <point x="694" y="1288"/>
      <point x="701" y="1323" type="curve" smooth="yes"/>
      <point x="719" y="1417"/>
      <point x="758" y="1457"/>
      <point x="830" y="1457" type="curve" smooth="yes"/>
      <point x="900" y="1457"/>
      <point x="921" y="1403"/>
      <point x="908" y="1339" type="curve" smooth="yes"/>
    </contour>
  </outline>
</glyph>
<glyph name="numbersign" format="2">
  <advance width="1140"/>
  <unicode hex="0023"/>
  <outline>
    <contour>
      <point x="1100" y="516" type="line" smooth="yes"/>
      <point x="1093" y="477"/>
      <point x="1091" y="466"/>
      <point x="1079" y="466" type="curve" smooth="yes"/>
      <point x="785" y="466" type="line"/>
      <point x="597" y="-7" type="line" smooth="yes"/>
      <point x="593" y="-16"/>
      <point x="574" y="-17"/>
      <point x="543" y="-17" type="curve" smooth="yes" name="hr01"/>
      <point x="510" y="-17"/>
      <point x="490" y="-16"/>
      <point x="494" y="-7" type="curve" smooth="yes"/>
      <point x="680" y="466" type="line" name="hr02"/>
      <point x="322" y="466" type="line"/>
      <point x="135" y="-7" type="line" smooth="yes"/>
      <point x="131" y="-16"/>
      <point x="112" y="-17"/>
      <point x="81" y="-17" type="curve" smooth="yes" name="hr03"/>
      <point x="48" y="-17"/>
      <point x="28" y="-16"/>
      <point x="32" y="-7" type="curve" smooth="yes"/>
      <point x="219" y="466" type="line" name="hr04"/>
      <point x="43" y="466" type="line" smooth="yes"/>
      <point x="31" y="466"/>
      <point x="33" y="477"/>
      <point x="40" y="514" type="curve" smooth="yes"/>
      <point x="47" y="553"/>
      <point x="50" y="564"/>
      <point x="62" y="564" type="curve" smooth="yes"/>
      <point x="259" y="564" type="line"/>
      <point x="411" y="949" type="line"/>
      <point x="136" y="949" type="line" smooth="yes"/>
      <point x="124" y="949"/>
      <point x="127" y="960"/>
      <point x="134" y="997" type="curve" smooth="yes"/>
      <point x="141" y="1036"/>
      <point x="144" y="1047"/>
      <point x="156" y="1047" type="curve" smooth="yes"/>
      <point x="454" y="1047" type="line"/>
      <point x="644" y="1533" type="line" smooth="yes"/>
      <point x="647" y="1542"/>
      <point x="665" y="1543"/>
      <point x="696" y="1543" type="curve" smooth="yes" name="hr05"/>
      <point x="729" y="1543"/>
      <point x="747" y="1542"/>
      <point x="744" y="1533" type="curve" smooth="yes"/>
      <point x="556" y="1047" type="line" name="hr06"/>
      <point x="914" y="1047" type="line"/>
      <point x="1110" y="1533" type="line" smooth="yes"/>
      <point x="1113" y="1542"/>
      <point x="1131" y="1543"/>
      <point x="1162" y="1543" type="curve" smooth="yes" name="hr07"/>
      <point x="1195" y="1543"/>
      <point x="1213" y="1542"/>
      <point x="1210" y="1533" type="curve" smooth="yes"/>
      <point x="1015" y="1047" type="line" name="hr08"/>
      <point x="1192" y="1047" type="line" smooth="yes"/>
      <point x="1204" y="1047"/>
      <point x="1201" y="1036"/>
      <point x="1194" y="999" type="curve" smooth="yes"/>
      <point x="1187" y="960"/>
      <point x="1184" y="949"/>
      <point x="1172" y="949" type="curve" smooth="yes"/>
      <point x="978" y="949" type="line"/>
      <point x="824" y="564" type="line"/>
      <point x="1098" y="564" type="line" smooth="yes"/>
      <point x="1110" y="564"/>
      <point x="1107" y="553"/>
      <point x="1100" y="516" type="curve" smooth="yes"/>
    </contour>
    <contour>
      <point x="874" y="949" type="line"/>
      <point x="515" y="949" type="line"/>
      <point x="361" y="564" type="line"/>
      <point x="720" y="564" type="line"/>
    </contour>
  </outline>
</glyph>
<glyph name="dollar" format="2">
  <advance width="998"/>
  <unicode hex="0024"/>
  <outline>
    <contour>
      <point x="982" y="1350" type="line" smooth="yes"/>
      <point x="993" y="1332"/>
      <point x="979" y="1322"/>
      <point x="940" y="1291" type="curve" smooth="yes"/>
      <point x="898" y="1258"/>
      <point x="878" y="1256"/>
      <point x="874" y="1267" type="curve" smooth="yes"/>
      <point x="852" y="1342"/>
      <point x="803" y="1399"/>
      <point x="728" y="1413" type="curve"/>
      <point x="690" y="1229"/>
      <point x="639" y="985"/>
      <point x="606" y="823" type="curve"/>
      <point x="729" y="714"/>
      <point x="865" y="594"/>
      <point x="865" y="411" type="curve" smooth="yes"/>
      <point x="866" y="173"/>
      <point x="681" y="12"/>
      <point x="451" y="-14" type="curve"/>
      <point x="442" y="-65"/>
      <point x="433" y="-111"/>
      <point x="426" y="-150" type="curve" smooth="yes"/>
      <point x="422" y="-169"/>
      <point x="401" y="-171"/>
      <point x="365" y="-171" type="curve" smooth="yes"/>
      <point x="328" y="-171"/>
      <point x="308" y="-169"/>
      <point x="312" y="-150" type="curve" smooth="yes"/>
      <point x="319" y="-112"/>
      <point x="329" y="-65"/>
      <point x="339" y="-14" type="curve"/>
      <point x="214" y="0"/>
      <point x="110" y="71"/>
      <point x="66" y="142" type="curve" smooth="yes"/>
      <point x="55" y="160"/>
      <point x="61" y="170"/>
      <point x="100" y="210" type="curve" smooth="yes"/>
      <point x="130" y="242"/>
      <point x="156" y="258"/>
      <point x="159" y="247" type="curve" smooth="yes"/>
      <point x="182" y="168"/>
      <point x="268" y="84"/>
      <point x="356" y="67" type="curve"/>
      <point x="402" y="289"/>
      <point x="451" y="511"/>
      <point x="494" y="734" type="curve"/>
      <point x="379" y="839"/>
      <point x="268" y="940"/>
      <point x="268" y="1101" type="curve" smooth="yes"/>
      <point x="268" y="1316"/>
      <point x="418" y="1472"/>
      <point x="632" y="1495" type="curve"/>
      <point x="639" y="1534"/>
      <point x="646" y="1568"/>
      <point x="651" y="1595" type="curve" smooth="yes"/>
      <point x="655" y="1614"/>
      <point x="674" y="1615"/>
      <point x="712" y="1615" type="curve" smooth="yes"/>
      <point x="749" y="1615"/>
      <point x="769" y="1614"/>
      <point x="765" y="1595" type="curve" smooth="yes"/>
      <point x="760" y="1568"/>
      <point x="753" y="1534"/>
      <point x="745" y="1495" type="curve"/>
      <point x="856" y="1481"/>
      <point x="939" y="1420"/>
      <point x="982" y="1350" type="curve" smooth="yes"/>
    </contour>
    <contour>
      <point x="617" y="1411" type="line"/>
      <point x="475" y="1386"/>
      <point x="407" y="1280"/>
      <point x="407" y="1146" type="curve" smooth="yes"/>
      <point x="407" y="1075"/>
      <point x="432" y="1001"/>
      <point x="525" y="901" type="curve"/>
      <point x="553" y="1057"/>
      <point x="588" y="1255"/>
      <point x="617" y="1411" type="curve"/>
    </contour>
    <contour>
      <point x="724" y="367" type="line" smooth="yes"/>
      <point x="724" y="445"/>
      <point x="685" y="535"/>
      <point x="573" y="655" type="curve"/>
      <point x="544" y="500"/>
      <point x="502" y="266"/>
      <point x="467" y="72" type="curve"/>
      <point x="607" y="100"/>
      <point x="724" y="222"/>
      <point x="724" y="367" type="curve" smooth="yes"/>
    </contour>
  </outline>
</glyph>
<glyph name="percent" format="2">
  <advance width="1386"/>
  <unicode hex="0025"/>
  <outline>
    <contour>
      <point x="808" y="1231" type="line" smooth="yes"/>
      <point x="808" y="1033"/>
      <point x="673" y="813"/>
      <point x="456" y="813" type="curve" smooth="yes"/>
      <point x="289" y="813"/>
      <point x="217" y="953"/>
      <point x="217" y="1092" type="curve" smooth="yes"/>
      <point x="217" y="1282"/>
      <point x="363" y="1498"/>
      <point x="569" y="1498" type="curve" smooth="yes"/>
      <point x="740" y="1498"/>
      <point x="808" y="1364"/>
      <point x="808" y="1231" type="curve" smooth="yes"/>
    </contour>
    <contour>
      <point x="1311" y="1478" type="line"/>
      <point x="303" y="3" type="line" smooth="yes"/>
      <point x="290" y="-16"/>
      <point x="280" y="-17"/>
      <point x="227" y="-17" type="curve" smooth="yes"/>
      <point x="172" y="-17"/>
      <point x="166" y="-16"/>
      <point x="179" y="3" type="curve" smooth="yes"/>
      <point x="1192" y="1478" type="line" smooth="yes"/>
      <point x="1205" y="1497"/>
      <point x="1216" y="1498"/>
      <point x="1262" y="1498" type="curve" smooth="yes"/>
      <point x="1311" y="1498"/>
      <point x="1323" y="1496"/>
      <point x="1311" y="1478" type="curve" smooth="yes"/>
    </contour>
    <contour>
      <point x="1257" y="401" type="line" smooth="yes"/>
      <point x="1257" y="203"/>
      <point x="1122" y="-17"/>
      <point x="905" y="-17" type="curve" smooth="yes"/>
      <point x="738" y="-17"/>
      <point x="666" y="123"/>
      <point x="666" y="262" type="curve" smooth="yes"/>
      <point x="666" y="452"/>
      <point x="812" y="668"/>
      <point x="1018" y="668" type="curve" smooth="yes"/>
      <point x="1189" y="668"/>
      <point x="1257" y="534"/>
      <point x="1257" y="401" type="curve" smooth="yes"/>
    </contour>
    <contour>
      <point x="677" y="1251" type="line" smooth="yes"/>
      <point x="677" y="1353"/>
      <point x="632" y="1417"/>
      <point x="563" y="1417" type="curve" smooth="yes"/>
      <point x="418" y="1417"/>
      <point x="351" y="1178"/>
      <point x="351" y="1055" type="curve" smooth="yes"/>
      <point x="351" y="954"/>
      <point x="400" y="894"/>
      <point x="462" y="894" type="curve" smooth="yes"/>
      <point x="615" y="894"/>
      <point x="677" y="1127"/>
      <point x="677" y="1251" type="curve" smooth="yes"/>
    </contour>
    <contour>
      <point x="1125" y="421" type="line" smooth="yes"/>
      <point x="1125" y="523"/>
      <point x="1081" y="587"/>
      <point x="1012" y="587" type="curve" smooth="yes"/>
      <point x="867" y="587"/>
      <point x="799" y="348"/>
      <point x="799" y="225" type="curve" smooth="yes"/>
      <point x="799" y="124"/>
      <point x="848" y="64"/>
      <point x="910" y="64" type="curve" smooth="yes"/>
      <point x="1063" y="64"/>
      <point x="1125" y="297"/>
      <point x="1125" y="421" type="curve" smooth="yes"/>
    </contour>
  </outline>
</glyph>
<glyph name="ampersand" format="2">
  <advance width="1267"/>
  <unicode hex="0026"/>
  <outline>
    <contour>
      <point x="1217" y="860" type="line" smooth="yes"/>
      <point x="1139" y="678"/>
      <point x="1001" y="440"/>
      <point x="835" y="258" type="curve"/>
      <point x="907" y="169"/>
      <point x="989" y="94"/>
      <point x="1072" y="44" type="curve" smooth="yes"/>
      <point x="1084" y="37"/>
      <point x="1063" y="19"/>
      <point x="995" y="-10" type="curve" smooth="yes"/>
      <point x="932" y="-37"/>
      <point x="916" y="-41"/>
      <point x="902" y="-28" type="curve" smooth="yes"/>
      <point x="847" y="21"/>
      <point x="791" y="85"/>
      <point x="736" y="159" type="curve"/>
      <point x="617" y="53"/>
      <point x="498" y="-17"/>
      <point x="369" y="-17" type="curve" smooth="yes" name="hr01"/>
      <point x="196" y="-17"/>
      <point x="50" y="38"/>
      <point x="50" y="212" type="curve" smooth="yes"/>
      <point x="50" y="464"/>
      <point x="249" y="634"/>
      <point x="432" y="770" type="curve"/>
      <point x="408" y="856"/>
      <point x="395" y="945"/>
      <point x="395" y="1025" type="curve" smooth="yes"/>
      <point x="395" y="1252"/>
      <point x="534" y="1498"/>
      <point x="787" y="1498" type="curve" smooth="yes"/>
      <point x="945" y="1498"/>
      <point x="1027" y="1412"/>
      <point x="1027" y="1275" type="curve" smooth="yes"/>
      <point x="1027" y="1057"/>
      <point x="724" y="884"/>
      <point x="572" y="763" type="curve"/>
      <point x="614" y="615"/>
      <point x="687" y="463"/>
      <point x="778" y="334" type="curve"/>
      <point x="945" y="539"/>
      <point x="1066" y="805"/>
      <point x="1059" y="910" type="curve" smooth="yes"/>
      <point x="1058" y="920"/>
      <point x="1082" y="917"/>
      <point x="1148" y="895" type="curve" smooth="yes"/>
      <point x="1207" y="875"/>
      <point x="1221" y="870"/>
      <point x="1217" y="860" type="curve" smooth="yes"/>
    </contour>
    <contour>
      <point x="890" y="1253" type="line" smooth="yes"/>
      <point x="890" y="1351"/>
      <point x="850" y="1417"/>
      <point x="771" y="1417" type="curve" smooth="yes"/>
      <point x="623" y="1417"/>
      <point x="533" y="1161"/>
      <point x="533" y="1031" type="curve" smooth="yes"/>
      <point x="533" y="975"/>
      <point x="538" y="915"/>
      <point x="550" y="855" type="curve"/>
      <point x="681" y="949"/>
      <point x="890" y="1074"/>
      <point x="890" y="1253" type="curve" smooth="yes"/>
    </contour>
    <contour>
      <point x="684" y="232" type="line"/>
      <point x="595" y="365"/>
      <point x="515" y="519"/>
      <point x="462" y="672" type="curve"/>
      <point x="336" y="563"/>
      <point x="194" y="420"/>
      <point x="194" y="241" type="curve" smooth="yes"/>
      <point x="194" y="140"/>
      <point x="250" y="70"/>
      <point x="372" y="70" type="curve" smooth="yes"/>
      <point x="477" y="70"/>
      <point x="585" y="136"/>
      <point x="684" y="232" type="curve"/>
    </contour>
  </outline>
</glyph>
<glyph name="parenleft" format="2">
  <advance width="705"/>
  <unicode hex="0028"/>
  <outline>
    <contour>
      <point x="588" y="-615" type="line" smooth="yes"/>
      <point x="570" y="-627"/>
      <point x="518" y="-626"/>
      <point x="464" y="-601" type="curve" smooth="yes"/>
      <point x="284" y="-517"/>
      <point x="116" y="-283"/>
      <point x="116" y="127" type="curve" smooth="yes"/>
      <point x="116" y="695"/>
      <point x="358" y="1304"/>
      <point x="886" y="1571" type="curve" smooth="yes"/>
      <point x="948" y="1602"/>
      <point x="1004" y="1612"/>
      <point x="1019" y="1602" type="curve" smooth="yes"/>
      <point x="1029" y="1596"/>
      <point x="1011" y="1577"/>
      <point x="933" y="1540" type="curve" smooth="yes"/>
      <point x="512" y="1341"/>
      <point x="259" y="578"/>
      <point x="259" y="119" type="curve" smooth="yes"/>
      <point x="259" y="-280"/>
      <point x="406" y="-510"/>
      <point x="525" y="-560" type="curve" smooth="yes"/>
      <point x="593" y="-589"/>
      <point x="600" y="-607"/>
      <point x="588" y="-615" type="curve" smooth="yes"/>
    </contour>
  </outline>
</glyph>
<glyph name="parenright" format="2">
  <advance width="705"/>
  <unicode hex="0029"/>
  <outline>
    <contour>
      <point x="-183" y="-550" type="line" smooth="yes"/>
      <point x="-244" y="-581"/>
      <point x="-301" y="-591"/>
      <point x="-316" y="-581" type="curve" smooth="yes"/>
      <point x="-326" y="-575"/>
      <point x="-309" y="-556"/>
      <point x="-231" y="-519" type="curve" smooth="yes"/>
      <point x="193" y="-320"/>
      <point x="443" y="445"/>
      <point x="443" y="906" type="curve" smooth="yes"/>
      <point x="443" y="1302"/>
      <point x="297" y="1531"/>
      <point x="178" y="1581" type="curve" smooth="yes"/>
      <point x="110" y="1610"/>
      <point x="102" y="1628"/>
      <point x="114" y="1636" type="curve" smooth="yes"/>
      <point x="132" y="1648"/>
      <point x="186" y="1647"/>
      <point x="239" y="1622" type="curve" smooth="yes"/>
      <point x="420" y="1537"/>
      <point x="588" y="1303"/>
      <point x="588" y="891" type="curve" smooth="yes"/>
      <point x="588" y="323"/>
      <point x="344" y="-284"/>
      <point x="-183" y="-550" type="curve" smooth="yes"/>
    </contour>
  </outline>
</glyph>
<glyph name="asterisk" format="2">
  <advance width="1025"/>
  <unicode hex="002A"/>
  <outline>
    <contour>
      <point x="1074" y="1257" type="line" smooth="yes"/>
      <point x="1082" y="1197"/>
      <point x="1082" y="1186"/>
      <point x="1051" y="1177" type="curve" smooth="yes"/>
      <point x="926" y="1139"/>
      <point x="815" y="1149"/>
      <point x="690" y="1099" type="curve"/>
      <point x="735" y="992"/>
      <point x="816" y="930"/>
      <point x="869" y="831" type="curve" smooth="yes"/>
      <point x="883" y="806"/>
      <point x="873" y="798"/>
      <point x="820" y="765" type="curve" smooth="yes"/>
      <point x="762" y="728"/>
      <point x="751" y="722"/>
      <point x="738" y="747" type="curve" smooth="yes"/>
      <point x="685" y="848"/>
      <point x="682" y="958"/>
      <point x="616" y="1052" type="curve"/>
      <point x="516" y="956"/>
      <point x="465" y="849"/>
      <point x="374" y="749" type="curve" smooth="yes"/>
      <point x="351" y="724"/>
      <point x="342" y="730"/>
      <point x="303" y="763" type="curve" smooth="yes"/>
      <point x="259" y="800"/>
      <point x="252" y="808"/>
      <point x="275" y="833" type="curve" smooth="yes"/>
      <point x="367" y="933"/>
      <point x="476" y="991"/>
      <point x="561" y="1099" type="curve"/>
      <point x="454" y="1147"/>
      <point x="341" y="1142"/>
      <point x="232" y="1180" type="curve" smooth="yes"/>
      <point x="204" y="1190"/>
      <point x="209" y="1201"/>
      <point x="237" y="1255" type="curve" smooth="yes"/>
      <point x="268" y="1315"/>
      <point x="274" y="1325"/>
      <point x="302" y="1315" type="curve" smooth="yes"/>
      <point x="413" y="1277"/>
      <point x="483" y="1202"/>
      <point x="600" y="1175" type="curve"/>
      <point x="634" y="1300"/>
      <point x="616" y="1405"/>
      <point x="640" y="1528" type="curve" smooth="yes"/>
      <point x="646" y="1559"/>
      <point x="657" y="1560"/>
      <point x="714" y="1560" type="curve" smooth="yes"/>
      <point x="777" y="1560"/>
      <point x="788" y="1559"/>
      <point x="782" y="1528" type="curve" smooth="yes"/>
      <point x="757" y="1404"/>
      <point x="692" y="1300"/>
      <point x="680" y="1175" type="curve"/>
      <point x="808" y="1205"/>
      <point x="909" y="1274"/>
      <point x="1034" y="1312" type="curve" smooth="yes"/>
      <point x="1065" y="1322"/>
      <point x="1067" y="1311"/>
      <point x="1074" y="1257" type="curve" smooth="yes"/>
    </contour>
  </outline>
</glyph>
<glyph name="plus" format="2">
  <advance width="1970"/>
  <unicode hex="002B"/>
  <outline>
    <contour>
      <point x="1576" y="530" type="line"/>
      <point x="1046" y="530" type="line"/>
      <point x="1046" y="0" type="line"/>
      <point x="924" y="0" type="line"/>
      <point x="924" y="530" type="line"/>
      <point x="394" y="530" type="line"/>
      <point x="394" y="652" type="line"/>
      <point x="924" y="652" type="line"/>
      <point x="924" y="1182" type="line"/>
      <point x="1046" y="1182" type="line"/>
      <point x="1046" y="652" type="line"/>
      <point x="1576" y="652" type="line"/>
    </contour>
  </outline>
</glyph>
<glyph name="comma" format="2">
  <advance width="407"/>
  <unicode hex="002C"/>
  <outline>
    <contour>
      <point x="225" y="76" type="line" smooth="yes"/>
      <point x="225" y="49"/>
      <point x="222" y="21"/>
      <point x="217" y="-7" type="curve" smooth="yes"/>
      <point x="168" y="-260"/>
      <point x="-73" y="-423"/>
      <point x="-75" y="-397" type="curve" smooth="yes"/>
      <point x="-77" y="-378"/>
      <point x="111" y="-244"/>
      <point x="152" y="-35" type="curve" smooth="yes"/>
      <point x="153" y="-31"/>
      <point x="154" y="-25"/>
      <point x="154" y="-21" type="curve" smooth="yes"/>
      <point x="155" y="-2"/>
      <point x="147" y="12"/>
      <point x="141" y="12" type="curve" smooth="yes"/>
      <point x="131" y="12"/>
      <point x="108" y="-17"/>
      <point x="83" y="-17" type="curve" smooth="yes"/>
      <point x="45" y="-17"/>
      <point x="15" y="30"/>
      <point x="14" y="84" type="curve" smooth="yes"/>
      <point x="12" y="151"/>
      <point x="58" y="225"/>
      <point x="131" y="225" type="curve" smooth="yes"/>
      <point x="199" y="225"/>
      <point x="225" y="157"/>
      <point x="225" y="76" type="curve" smooth="yes"/>
    </contour>
  </outline>
</glyph>
<glyph name="period" format="2">
  <advance width="378"/>
  <unicode hex="002E"/>
  <outline>
    <contour>
      <point x="85" y="-18" type="curve" smooth="yes"/>
      <point x="163" y="-18"/>
      <point x="210" y="68"/>
      <point x="210" y="135" type="curve" smooth="yes"/>
      <point x="210" y="191"/>
      <point x="170" y="230"/>
      <point x="133" y="230" type="curve" smooth="yes"/>
      <point x="55" y="230"/>
      <point x="8" y="153"/>
      <point x="8" y="84" type="curve" smooth="yes"/>
      <point x="8" y="26"/>
      <point x="41" y="-18"/>
    </contour>
  </outline>
</glyph>
<glyph name="slash" format="2">
  <advance width="633"/>
  <unicode hex="002F"/>
  <outline>
    <contour>
      <point x="857" y="1564" type="line"/>
      <point x="19" y="-16" type="line" smooth="yes"/>
      <point x="13" y="-28"/>
      <point x="-2" y="-35"/>
      <point x="-48" y="-35" type="curve" smooth="yes"/>
      <point x="-95" y="-35"/>
      <point x="-101" y="-28"/>
      <point x="-95" y="-16" type="curve" smooth="yes"/>
      <point x="748" y="1564" type="line" smooth="yes"/>
      <point x="756" y="1579"/>
      <point x="769" y="1584"/>
      <point x="813" y="1584" type="curve" smooth="yes"/>
      <point x="856" y="1584"/>
      <point x="865" y="1579"/>
      <point x="857" y="1564" type="curve" smooth="yes"/>
    </contour>
  </outline>
</glyph>
<glyph name="zero" format="2">
  <advance width="956"/>
  <unicode hex="0030"/>
  <outline>
    <contour>
      <point x="957" y="1083" type="line" smooth="yes"/>
      <point x="957" y="735"/>
      <point x="816" y="-17"/>
      <point x="385" y="-17" type="curve" smooth="yes"/>
      <point x="172" y="-17"/>
      <point x="94" y="194"/>
      <point x="94" y="442" type="curve" smooth="yes"/>
      <point x="94" y="779"/>
      <point x="253" y="1498"/>
      <point x="659" y="1498" type="curve" smooth="yes"/>
      <point x="878" y="1498"/>
      <point x="957" y="1320"/>
      <point x="957" y="1083" type="curve" smooth="yes"/>
    </contour>
    <contour>
      <point x="827" y="1086" type="line" smooth="yes"/>
      <point x="827" y="1297"/>
      <point x="771" y="1417"/>
      <point x="653" y="1417" type="curve" smooth="yes"/>
      <point x="358" y="1417"/>
      <point x="220" y="673"/>
      <point x="220" y="413" type="curve" smooth="yes"/>
      <point x="220" y="191"/>
      <point x="272" y="64"/>
      <point x="390" y="64" type="curve" smooth="yes"/>
      <point x="693" y="64"/>
      <point x="827" y="820"/>
      <point x="827" y="1086" type="curve" smooth="yes"/>
    </contour>
  </outline>
</glyph>
<glyph name="one" format="2">
  <advance width="956"/>
  <unicode hex="0031"/>
  <outline>
    <contour>
      <point x="841" y="1447" type="line" smooth="yes"/>
      <point x="795" y="1223"/>
      <point x="744" y="998"/>
      <point x="700" y="774" type="curve" smooth="yes"/>
      <point x="649" y="510"/>
      <point x="575" y="76"/>
      <point x="565" y="24" type="curve" smooth="yes"/>
      <point x="557" y="-17"/>
      <point x="537" y="-17"/>
      <point x="485" y="-17" type="curve" smooth="yes"/>
      <point x="433" y="-17"/>
      <point x="413" y="-17"/>
      <point x="421" y="24" type="curve" smooth="yes"/>
      <point x="431" y="76"/>
      <point x="525" y="510"/>
      <point x="576" y="774" type="curve" smooth="yes"/>
      <point x="604" y="919"/>
      <point x="641" y="1129"/>
      <point x="664" y="1263" type="curve"/>
      <point x="557" y="1150"/>
      <point x="425" y="987"/>
      <point x="381" y="922" type="curve" smooth="yes"/>
      <point x="368" y="902"/>
      <point x="348" y="916"/>
      <point x="322" y="941" type="curve" smooth="yes"/>
      <point x="294" y="968"/>
      <point x="283" y="986"/>
      <point x="298" y="1000" type="curve" smooth="yes"/>
      <point x="360" y="1054"/>
      <point x="689" y="1402"/>
      <point x="697" y="1447" type="curve" smooth="yes"/>
      <point x="705" y="1488"/>
      <point x="727" y="1488"/>
      <point x="777" y="1488" type="curve" smooth="yes"/>
      <point x="827" y="1488"/>
      <point x="849" y="1488"/>
      <point x="841" y="1447" type="curve" smooth="yes"/>
    </contour>
  </outline>
</glyph>
<glyph name="two" format="2">
  <advance width="956"/>
  <unicode hex="0032"/>
  <outline>
    <contour>
      <point x="987" y="1238" type="line" smooth="yes"/>
      <point x="987" y="1075"/>
      <point x="914" y="978"/>
      <point x="505" y="622" type="curve" smooth="yes"/>
      <point x="238" y="389"/>
      <point x="194" y="301"/>
      <point x="165" y="150" type="curve" smooth="yes"/>
      <point x="159" y="118"/>
      <point x="153" y="76"/>
      <point x="177" y="76" type="curve" smooth="yes"/>
      <point x="495" y="76" type="line" smooth="yes"/>
      <point x="644" y="76"/>
      <point x="692" y="92"/>
      <point x="751" y="113" type="curve" smooth="yes"/>
      <point x="760" y="116"/>
      <point x="771" y="111"/>
      <point x="770" y="69" type="curve" smooth="yes"/>
      <point x="769" y="22"/>
      <point x="766" y="2"/>
      <point x="754" y="0" type="curve" smooth="yes"/>
      <point x="672" y="-16"/>
      <point x="587" y="-16"/>
      <point x="447" y="-16" type="curve" smooth="yes"/>
      <point x="68" y="-16" type="line" smooth="yes"/>
      <point x="22" y="-16"/>
      <point x="2" y="0"/>
      <point x="23" y="106" type="curve" smooth="yes"/>
      <point x="75" y="375"/>
      <point x="173" y="445"/>
      <point x="434" y="672" type="curve" smooth="yes"/>
      <point x="782" y="975"/>
      <point x="848" y="1098"/>
      <point x="848" y="1218" type="curve" smooth="yes"/>
      <point x="848" y="1324"/>
      <point x="786" y="1418"/>
      <point x="657" y="1418" type="curve" smooth="yes"/>
      <point x="527" y="1418"/>
      <point x="397" y="1317"/>
      <point x="350" y="1227" type="curve" smooth="yes"/>
      <point x="342" y="1212"/>
      <point x="316" y="1229"/>
      <point x="294" y="1261" type="curve" smooth="yes"/>
      <point x="272" y="1293"/>
      <point x="275" y="1316"/>
      <point x="289" y="1330" type="curve" smooth="yes"/>
      <point x="374" y="1418"/>
      <point x="495" y="1498"/>
      <point x="682" y="1498" type="curve" smooth="yes"/>
      <point x="850" y="1498"/>
      <point x="987" y="1398"/>
      <point x="987" y="1238" type="curve" smooth="yes"/>
    </contour>
  </outline>
</glyph>
<glyph name="three" format="2">
  <advance width="956"/>
  <unicode hex="0033"/>
  <outline>
    <contour>
      <point x="943" y="1241" type="line" smooth="yes"/>
      <point x="943" y="1073"/>
      <point x="850" y="920"/>
      <point x="692" y="857" type="curve"/>
      <point x="796" y="815"/>
      <point x="866" y="719"/>
      <point x="866" y="564" type="curve" smooth="yes"/>
      <point x="866" y="268"/>
      <point x="688" y="-17"/>
      <point x="363" y="-17" type="curve" smooth="yes"/>
      <point x="197" y="-17"/>
      <point x="75" y="52"/>
      <point x="27" y="115" type="curve" smooth="yes"/>
      <point x="18" y="127"/>
      <point x="24" y="138"/>
      <point x="52" y="170" type="curve" smooth="yes"/>
      <point x="79" y="201"/>
      <point x="118" y="227"/>
      <point x="123" y="217" type="curve" smooth="yes"/>
      <point x="155" y="150"/>
      <point x="238" y="64"/>
      <point x="336" y="64" type="curve" smooth="yes"/>
      <point x="589" y="64"/>
      <point x="731" y="340"/>
      <point x="731" y="565" type="curve" smooth="yes"/>
      <point x="731" y="728"/>
      <point x="644" y="823"/>
      <point x="486" y="811" type="curve" smooth="yes"/>
      <point x="481" y="811"/>
      <point x="480" y="835"/>
      <point x="486" y="854" type="curve" smooth="yes"/>
      <point x="495" y="884"/>
      <point x="500" y="889"/>
      <point x="510" y="889" type="curve" smooth="yes"/>
      <point x="702" y="889"/>
      <point x="820" y="1020"/>
      <point x="820" y="1203" type="curve" smooth="yes" name="hr01"/>
      <point x="820" y="1330"/>
      <point x="759" y="1418"/>
      <point x="627" y="1418" type="curve" smooth="yes"/>
      <point x="527" y="1418"/>
      <point x="438" y="1366"/>
      <point x="368" y="1262" type="curve" smooth="yes"/>
      <point x="362" y="1254"/>
      <point x="345" y="1270"/>
      <point x="322" y="1301" type="curve" smooth="yes"/>
      <point x="308" y="1320"/>
      <point x="293" y="1340"/>
      <point x="302" y="1350" type="curve" smooth="yes"/>
      <point x="379" y="1441"/>
      <point x="518" y="1498"/>
      <point x="652" y="1498" type="curve" smooth="yes"/>
      <point x="848" y="1498"/>
      <point x="943" y="1385"/>
      <point x="943" y="1241" type="curve" smooth="yes"/>
    </contour>
  </outline>
</glyph>
<glyph name="five" format="2">
  <advance width="956"/>
  <unicode hex="0035"/>
  <outline>
    <contour>
      <point x="373" y="-17" type="curve" smooth="yes"/>
      <point x="719" y="-17"/>
      <point x="883" y="315"/>
      <point x="883" y="616" type="curve" smooth="yes"/>
      <point x="883" y="855"/>
      <point x="750" y="969"/>
      <point x="575" y="969" type="curve" smooth="yes" name="hr01"/>
      <point x="441" y="969"/>
      <point x="400" y="926"/>
      <point x="365" y="926" type="curve" smooth="yes"/>
      <point x="363" y="926"/>
      <point x="359" y="931"/>
      <point x="364" y="948" type="curve" smooth="yes"/>
      <point x="394" y="1043"/>
      <point x="507" y="1363"/>
      <point x="515" y="1382" type="curve" smooth="yes"/>
      <point x="523" y="1402"/>
      <point x="532" y="1401"/>
      <point x="553" y="1401" type="curve" smooth="yes"/>
      <point x="806" y="1401" type="line" smooth="yes"/>
      <point x="862" y="1401"/>
      <point x="911" y="1373"/>
      <point x="950" y="1350" type="curve" smooth="yes"/>
      <point x="957" y="1346"/>
      <point x="974" y="1367"/>
      <point x="989" y="1409" type="curve" smooth="yes"/>
      <point x="1006" y="1456"/>
      <point x="1011" y="1474"/>
      <point x="1000" y="1478" type="curve" smooth="yes"/>
      <point x="975" y="1488"/>
      <point x="921" y="1491"/>
      <point x="818" y="1491" type="curve" smooth="yes"/>
      <point x="465" y="1491" type="line" smooth="yes"/>
      <point x="432" y="1491"/>
      <point x="420" y="1481"/>
      <point x="416" y="1462" type="curve" smooth="yes"/>
      <point x="408" y="1420"/>
      <point x="253" y="959"/>
      <point x="218" y="890" type="curve" smooth="yes"/>
      <point x="208" y="871"/>
      <point x="223" y="864"/>
      <point x="257" y="839" type="curve" smooth="yes"/>
      <point x="289" y="816"/>
      <point x="306" y="806"/>
      <point x="320" y="806" type="curve" smooth="yes" name="hr02"/>
      <point x="383" y="806"/>
      <point x="409" y="891"/>
      <point x="561" y="891" type="curve" smooth="yes"/>
      <point x="684" y="891"/>
      <point x="751" y="780"/>
      <point x="751" y="615" type="curve" smooth="yes"/>
      <point x="751" y="308"/>
      <point x="588" y="64"/>
      <point x="346" y="64" type="curve" smooth="yes"/>
      <point x="248" y="64"/>
      <point x="155" y="159"/>
      <point x="129" y="247" type="curve" smooth="yes"/>
      <point x="126" y="258"/>
      <point x="101" y="242"/>
      <point x="70" y="210" type="curve" smooth="yes"/>
      <point x="31" y="170"/>
      <point x="25" y="160"/>
      <point x="36" y="142" type="curve" smooth="yes"/>
      <point x="85" y="62"/>
      <point x="202" y="-17"/>
    </contour>
  </outline>
</glyph>
<glyph name="six" format="2">
  <advance width="956"/>
  <unicode hex="0036"/>
  <outline>
    <contour>
      <point x="984" y="1364" type="line" smooth="yes"/>
      <point x="993" y="1346"/>
      <point x="982" y="1335"/>
      <point x="945" y="1301" type="curve" smooth="yes"/>
      <point x="912" y="1271"/>
      <point x="887" y="1253"/>
      <point x="882" y="1266" type="curve" smooth="yes"/>
      <point x="842" y="1367"/>
      <point x="807" y="1418"/>
      <point x="702" y="1418" type="curve" smooth="yes"/>
      <point x="546" y="1418"/>
      <point x="373" y="1227"/>
      <point x="273" y="803" type="curve"/>
      <point x="344" y="885"/>
      <point x="449" y="968"/>
      <point x="556" y="968" type="curve" smooth="yes"/>
      <point x="805" y="968"/>
      <point x="884" y="781"/>
      <point x="884" y="594" type="curve" smooth="yes"/>
      <point x="884" y="317"/>
      <point x="697" y="-17"/>
      <point x="385" y="-17" type="curve" smooth="yes"/>
      <point x="195" y="-17"/>
      <point x="81" y="129"/>
      <point x="81" y="410" type="curve" smooth="yes"/>
      <point x="81" y="784"/>
      <point x="268" y="1499"/>
      <point x="719" y="1499" type="curve" smooth="yes"/>
      <point x="827" y="1499"/>
      <point x="939" y="1459"/>
      <point x="984" y="1364" type="curve" smooth="yes"/>
    </contour>
    <contour>
      <point x="749" y="604" type="line" smooth="yes"/>
      <point x="749" y="747"/>
      <point x="687" y="887"/>
      <point x="550" y="887" type="curve" smooth="yes"/>
      <point x="440" y="887"/>
      <point x="304" y="751"/>
      <point x="227" y="545" type="curve"/>
      <point x="220" y="478"/>
      <point x="219" y="417"/>
      <point x="219" y="364" type="curve" smooth="yes"/>
      <point x="219" y="164"/>
      <point x="293" y="64"/>
      <point x="390" y="64" type="curve" smooth="yes"/>
      <point x="611" y="64"/>
      <point x="749" y="413"/>
      <point x="749" y="604" type="curve" smooth="yes"/>
    </contour>
  </outline>
</glyph>
<glyph name="eight" format="2">
  <advance width="956"/>
  <unicode hex="0038"/>
  <outline>
    <contour>
      <point x="957" y="1211" type="line" smooth="yes"/>
      <point x="957" y="1062"/>
      <point x="874" y="922"/>
      <point x="738" y="856" type="curve"/>
      <point x="837" y="804"/>
      <point x="874" y="701"/>
      <point x="874" y="581" type="curve" smooth="yes"/>
      <point x="874" y="281"/>
      <point x="731" y="-17"/>
      <point x="385" y="-17" type="curve" smooth="yes"/>
      <point x="129" y="-17"/>
      <point x="51" y="151"/>
      <point x="51" y="301" type="curve" smooth="yes"/>
      <point x="51" y="514"/>
      <point x="161" y="761"/>
      <point x="358" y="853" type="curve"/>
      <point x="279" y="898"/>
      <point x="245" y="981"/>
      <point x="245" y="1067" type="curve" smooth="yes"/>
      <point x="245" y="1294"/>
      <point x="425" y="1498"/>
      <point x="659" y="1498" type="curve" smooth="yes"/>
      <point x="881" y="1498"/>
      <point x="957" y="1350"/>
      <point x="957" y="1211" type="curve" smooth="yes"/>
    </contour>
    <contour>
      <point x="823" y="1226" type="line" smooth="yes"/>
      <point x="823" y="1332"/>
      <point x="766" y="1417"/>
      <point x="653" y="1417" type="curve" smooth="yes"/>
      <point x="486" y="1417"/>
      <point x="381" y="1223"/>
      <point x="381" y="1073" type="curve" smooth="yes"/>
      <point x="381" y="969"/>
      <point x="434" y="894"/>
      <point x="552" y="894" type="curve" smooth="yes"/>
      <point x="736" y="894"/>
      <point x="823" y="1063"/>
      <point x="823" y="1226" type="curve" smooth="yes"/>
    </contour>
    <contour>
      <point x="738" y="564" type="line" smooth="yes"/>
      <point x="738" y="716"/>
      <point x="670" y="813"/>
      <point x="536" y="813" type="curve" smooth="yes"/>
      <point x="310" y="813"/>
      <point x="185" y="510"/>
      <point x="185" y="316" type="curve" smooth="yes"/>
      <point x="185" y="167"/>
      <point x="252" y="64"/>
      <point x="390" y="64" type="curve" smooth="yes"/>
      <point x="639" y="64"/>
      <point x="738" y="359"/>
      <point x="738" y="564" type="curve" smooth="yes"/>
    </contour>
  </outline>
</glyph>
<glyph name="colon" format="2">
  <advance width="379"/>
  <unicode hex="003A"/>
  <outline>
    <contour>
      <point x="330" y="735" type="line" smooth="yes"/>
      <point x="330" y="668"/>
      <point x="283" y="582"/>
      <point x="205" y="582" type="curve" smooth="yes"/>
      <point x="161" y="582"/>
      <point x="128" y="626"/>
      <point x="128" y="684" type="curve" smooth="yes"/>
      <point x="128" y="753"/>
      <point x="175" y="830"/>
      <point x="253" y="830" type="curve" smooth="yes"/>
      <point x="290" y="830"/>
      <point x="330" y="791"/>
      <point x="330" y="735" type="curve" smooth="yes"/>
    </contour>
    <contour>
      <point x="210" y="135" type="line" smooth="yes"/>
      <point x="210" y="68"/>
      <point x="163" y="-18"/>
      <point x="85" y="-18" type="curve" smooth="yes"/>
      <point x="41" y="-18"/>
      <point x="8" y="26"/>
      <point x="8" y="84" type="curve" smooth="yes"/>
      <point x="8" y="153"/>
      <point x="55" y="230"/>
      <point x="133" y="230" type="curve" smooth="yes"/>
      <point x="170" y="230"/>
      <point x="210" y="191"/>
      <point x="210" y="135" type="curve" smooth="yes"/>
    </contour>
  </outline>
</glyph>
<glyph name="semicolon" format="2">
  <advance width="407"/>
  <unicode hex="003B"/>
  <outline>
    <contour>
      <point x="340" y="735" type="line" smooth="yes"/>
      <point x="340" y="668"/>
      <point x="293" y="582"/>
      <point x="215" y="582" type="curve" smooth="yes"/>
      <point x="171" y="582"/>
      <point x="138" y="626"/>
      <point x="138" y="684" type="curve" smooth="yes"/>
      <point x="138" y="753"/>
      <point x="185" y="830"/>
      <point x="263" y="830" type="curve" smooth="yes"/>
      <point x="300" y="830"/>
      <point x="340" y="791"/>
      <point x="340" y="735" type="curve" smooth="yes"/>
    </contour>
    <contour>
      <point x="225" y="76" type="line" smooth="yes"/>
      <point x="225" y="49"/>
      <point x="222" y="21"/>
      <point x="217" y="-7" type="curve" smooth="yes"/>
      <point x="168" y="-260"/>
      <point x="-73" y="-423"/>
      <point x="-75" y="-397" type="curve" smooth="yes"/>
      <point x="-77" y="-378"/>
      <point x="111" y="-244"/>
      <point x="152" y="-35" type="curve" smooth="yes"/>
      <point x="153" y="-31"/>
      <point x="154" y="-25"/>
      <point x="154" y="-21" type="curve" smooth="yes"/>
      <point x="155" y="-2"/>
      <point x="147" y="12"/>
      <point x="141" y="12" type="curve" smooth="yes"/>
      <point x="131" y="12"/>
      <point x="108" y="-17"/>
      <point x="83" y="-17" type="curve" smooth="yes"/>
      <point x="45" y="-17"/>
      <point x="15" y="30"/>
      <point x="14" y="84" type="curve" smooth="yes"/>
      <point x="12" y="151"/>
      <point x="58" y="225"/>
      <point x="131" y="225" type="curve" smooth="yes"/>
      <point x="199" y="225"/>
      <point x="225" y="157"/>
      <point x="225" y="76" type="curve" smooth="yes"/>
    </contour>
  </outline>
</glyph>
<glyph name="less" format="2">
  <advance width="1970"/>
  <unicode hex="003C"/>
  <outline>
    <contour>
      <point x="1576" y="77" type="line"/>
      <point x="394" y="530" type="line"/>
      <point x="394" y="652" type="line"/>
      <point x="1576" y="1105" type="line"/>
      <point x="1576" y="983" type="line"/>
      <point x="520" y="591" type="line"/>
      <point x="1576" y="199" type="line"/>
    </contour>
  </outline>
</glyph>
<glyph name="greater" format="2">
  <advance width="772"/>
  <unicode hex="003E"/>
  <outline>
    <contour>
      <point x="701" y="598" type="line"/>
      <point x="178" y="827" type="line"/>
      <point x="140" y="804"/>
      <point x="131" y="794"/>
      <point x="103" y="770" type="curve"/>
      <point x="113" y="736" type="line"/>
      <point x="558" y="543" type="line"/>
      <point x="61" y="352" type="line"/>
      <point x="50" y="329"/>
      <point x="37" y="282"/>
      <point x="27" y="258" type="curve"/>
      <point x="45" y="235" type="line"/>
      <point x="687" y="487" type="line"/>
      <point x="700" y="510"/>
      <point x="713" y="548"/>
      <point x="722" y="575" type="curve"/>
    </contour>
  </outline>
</glyph>
<glyph name="question" format="2">
  <advance width="720"/>
  <unicode hex="003F"/>
  <outline>
    <contour>
      <point x="670" y="765" type="line" smooth="yes"/>
      <point x="670" y="748"/>
      <point x="668" y="730"/>
      <point x="664" y="712" type="curve" smooth="yes"/>
      <point x="617" y="485"/>
      <point x="410" y="452"/>
      <point x="398" y="441" type="curve" smooth="yes"/>
      <point x="383" y="428"/>
      <point x="351" y="242"/>
      <point x="349" y="221" type="curve" smooth="yes"/>
      <point x="348" y="212"/>
      <point x="342" y="203"/>
      <point x="306" y="203" type="curve" smooth="yes"/>
      <point x="266" y="203"/>
      <point x="261" y="207"/>
      <point x="261" y="220" type="curve" smooth="yes"/>
      <point x="261" y="242"/>
      <point x="309" y="471"/>
      <point x="323" y="486" type="curve" smooth="yes"/>
      <point x="334" y="498"/>
      <point x="525" y="543"/>
      <point x="559" y="717" type="curve" smooth="yes"/>
      <point x="562" y="730"/>
      <point x="563" y="743"/>
      <point x="563" y="755" type="curve" smooth="yes"/>
      <point x="563" y="847"/>
      <point x="503" y="901"/>
      <point x="444" y="901" type="curve" smooth="yes"/>
      <point x="352" y="901"/>
      <point x="287" y="822"/>
      <point x="248" y="747" type="curve" smooth="yes"/>
      <point x="239" y="730"/>
      <point x="228" y="727"/>
      <point x="189" y="753" type="curve" smooth="yes"/>
      <point x="150" y="779"/>
      <point x="147" y="794"/>
      <point x="158" y="807" type="curve" smooth="yes"/>
      <point x="208" y="866"/>
      <point x="284" y="968"/>
      <point x="450" y="968" type="curve" smooth="yes"/>
      <point x="557" y="968"/>
      <point x="670" y="890"/>
      <point x="670" y="765" type="curve" smooth="yes"/>
    </contour>
    <contour>
      <point x="346" y="71" type="line" smooth="yes"/>
      <point x="346" y="24"/>
      <point x="314" y="-17"/>
      <point x="266" y="-17" type="curve" smooth="yes"/>
      <point x="234" y="-17"/>
      <point x="211" y="11"/>
      <point x="211" y="42" type="curve" smooth="yes"/>
      <point x="211" y="82"/>
      <point x="244" y="128"/>
      <point x="286" y="128" type="curve" smooth="yes"/>
      <point x="319" y="128"/>
      <point x="346" y="107"/>
      <point x="346" y="71" type="curve" smooth="yes"/>
    </contour>
  </outline>
</glyph>
<glyph name="at" format="2">
  <advance width="1465"/>
  <unicode hex="0040"/>
  <outline>
    <contour>
      <point x="1380" y="505" type="curve"/>
      <point x="1447" y="965"/>
      <point x="1209" y="1226"/>
      <point x="884" y="1226" type="curve" smooth="yes"/>
      <point x="480" y="1226"/>
      <point x="133" y="841"/>
      <point x="75" y="427" type="curve" smooth="yes"/>
      <point x="9" y="-43"/>
      <point x="265" y="-345"/>
      <point x="672" y="-345" type="curve" smooth="yes"/>
      <point x="909" y="-345"/>
      <point x="1102" y="-218"/>
      <point x="1196" y="-126" type="curve"/>
      <point x="1181" y="-75" type="line"/>
      <point x="1104" y="-138"/>
      <point x="915" y="-235"/>
      <point x="731" y="-235" type="curve" smooth="yes"/>
      <point x="399" y="-235"/>
      <point x="149" y="18"/>
      <point x="210" y="463" type="curve" smooth="yes"/>
      <point x="258" y="794"/>
      <point x="494" y="1116"/>
      <point x="834" y="1116" type="curve" smooth="yes"/>
      <point x="1105" y="1116"/>
      <point x="1334" y="884"/>
      <point x="1271" y="469" type="curve" smooth="yes"/>
      <point x="1240" y="260"/>
      <point x="1100" y="86"/>
      <point x="1037" y="86" type="curve" smooth="yes"/>
      <point x="1008" y="86"/>
      <point x="981" y="116"/>
      <point x="981" y="256" type="curve" smooth="yes"/>
      <point x="981" y="310"/>
      <point x="1008" y="523"/>
      <point x="1046" y="699" type="curve" smooth="yes"/>
      <point x="1062" y="782"/>
      <point x="1073" y="794"/>
      <point x="1115" y="828" type="curve"/>
      <point x="1096" y="861" type="line"/>
      <point x="1013" y="821"/>
      <point x="932" y="764"/>
      <point x="920" y="708" type="curve" smooth="yes"/>
      <point x="908" y="636"/>
      <point x="851" y="329"/>
      <point x="851" y="258" type="curve" smooth="yes"/>
      <point x="851" y="12"/>
      <point x="900" y="-37"/>
      <point x="943" y="-37" type="curve" smooth="yes"/>
      <point x="1089" y="-37"/>
      <point x="1337" y="186"/>
    </contour>
    <contour>
      <point x="1068" y="774" type="curve"/>
      <point x="1024" y="780"/>
      <point x="958" y="861"/>
      <point x="875" y="861" type="curve" smooth="yes"/>
      <point x="798" y="861"/>
      <point x="702" y="819"/>
      <point x="636" y="774" type="curve" smooth="yes"/>
      <point x="463" y="655"/>
      <point x="390" y="474"/>
      <point x="390" y="280" type="curve" smooth="yes"/>
      <point x="390" y="50"/>
      <point x="503" y="-37"/>
      <point x="586" y="-37" type="curve" smooth="yes"/>
      <point x="690" y="-37"/>
      <point x="794" y="145"/>
      <point x="855" y="256" type="curve"/>
      <point x="879" y="420" type="line"/>
      <point x="810" y="273"/>
      <point x="708" y="88"/>
      <point x="644" y="88" type="curve" smooth="yes"/>
      <point x="573" y="88"/>
      <point x="516" y="190"/>
      <point x="516" y="348" type="curve" smooth="yes"/>
      <point x="516" y="494"/>
      <point x="614" y="764"/>
      <point x="782" y="764" type="curve" smooth="yes"/>
      <point x="881" y="764"/>
      <point x="947" y="663"/>
      <point x="981" y="663" type="curve" smooth="yes"/>
      <point x="1012" y="663"/>
      <point x="1015" y="738"/>
    </contour>
  </outline>
</glyph>
<glyph name="A" format="2">
  <advance width="1251"/>
  <unicode hex="0041"/>
  <outline>
    <contour>
      <point x="-130" y="0" type="line"/>
      <point x="272" y="0" type="line"/>
      <point x="286" y="37" type="line"/>
      <point x="96" y="37"/>
      <point x="184" y="187"/>
      <point x="248" y="272" type="curve" smooth="yes"/>
      <point x="380" y="447" type="line"/>
      <point x="768" y="447" type="line"/>
      <point x="745" y="232" type="line" smooth="yes"/>
      <point x="728" y="81"/>
      <point x="713" y="37"/>
      <point x="556" y="37" type="curve"/>
      <point x="546" y="0" type="line"/>
      <point x="1080" y="0" type="line"/>
      <point x="1091" y="37" type="line"/>
      <point x="922" y="37"/>
      <point x="908" y="82"/>
      <point x="922" y="232" type="curve" smooth="yes"/>
      <point x="1026" y="1387" type="line"/>
      <point x="991" y="1387" type="line"/>
      <point x="197" y="309" type="line" smooth="yes"/>
      <point x="58" y="121"/>
      <point x="-6" y="37"/>
      <point x="-120" y="37" type="curve"/>
    </contour>
    <contour>
      <point x="435" y="520" type="line"/>
      <point x="827" y="1056" type="line"/>
      <point x="776" y="520" type="line"/>
    </contour>
  </outline>
</glyph>
<glyph name="B" format="2">
  <advance width="932"/>
  <unicode hex="0042"/>
  <anchor x="379" y="-92" name="L"/>
  <anchor x="559" y="1214" name="U"/>
  <outline>
    <contour>
      <point x="859" y="377" type="curve"/>
      <point x="859" y="523"/>
      <point x="774" y="636"/>
      <point x="650" y="665" type="curve"/>
      <point x="767" y="712"/>
      <point x="853" y="828"/>
      <point x="853" y="956" type="curve" smooth="yes"/>
      <point x="853" y="1100"/>
      <point x="729" y="1186"/>
      <point x="531" y="1186" type="curve" smooth="yes"/>
      <point x="361" y="1186"/>
      <point x="242" y="1161"/>
      <point x="129" y="1128" type="curve"/>
      <point x="129" y="1071" type="line"/>
      <point x="222" y="1092"/>
      <point x="309" y="1109"/>
      <point x="506" y="1109" type="curve" smooth="yes"/>
      <point x="591" y="1109"/>
      <point x="710" y="1058"/>
      <point x="710" y="908" type="curve" smooth="yes"/>
      <point x="710" y="712"/>
      <point x="550" y="667"/>
      <point x="377" y="667" type="curve" smooth="yes"/>
      <point x="293" y="667" type="line"/>
      <point x="289" y="576" type="line"/>
      <point x="340" y="588"/>
      <point x="402" y="597"/>
      <point x="476" y="597" type="curve" smooth="yes"/>
      <point x="648" y="597"/>
      <point x="715" y="467"/>
      <point x="715" y="345" type="curve" smooth="yes"/>
      <point x="715" y="195"/>
      <point x="609" y="48"/>
      <point x="448" y="48" type="curve" smooth="yes"/>
      <point x="388" y="48"/>
      <point x="303" y="57"/>
      <point x="260" y="90" type="curve"/>
      <point x="60" y="0" type="line"/>
      <point x="154" y="-10"/>
      <point x="348" y="-28"/>
      <point x="424" y="-28" type="curve"/>
      <point x="657" y="-28"/>
      <point x="859" y="138"/>
    </contour>
    <contour>
      <point x="414" y="1159" type="line"/>
      <point x="280" y="1159" type="line"/>
      <point x="135" y="95" type="line" smooth="yes"/>
      <point x="133" y="79"/>
      <point x="82" y="56"/>
      <point x="5" y="39" type="curve"/>
      <point x="0" y="0" type="line"/>
      <point x="377" y="0" type="line"/>
      <point x="382" y="39" type="line"/>
      <point x="305" y="56"/>
      <point x="267" y="80"/>
      <point x="269" y="95" type="curve" smooth="yes"/>
    </contour>
  </outline>
</glyph>
<glyph name="C" format="2">
  <advance width="1367"/>
  <unicode hex="0043"/>
  <outline>
    <contour>
      <point x="695" y="-32" type="curve" smooth="yes"/>
      <point x="980" y="-32"/>
      <point x="1121" y="102"/>
      <point x="1261" y="309" type="curve"/>
      <point x="1212" y="309" type="line"/>
      <point x="1212" y="309"/>
      <point x="1060" y="55"/>
      <point x="768" y="55" type="curve" smooth="yes"/>
      <point x="477" y="55"/>
      <point x="347" y="278"/>
      <point x="347" y="489" type="curve" smooth="yes"/>
      <point x="347" y="810"/>
      <point x="566" y="1322"/>
      <point x="1007" y="1322" type="curve" smooth="yes"/>
      <point x="1301" y="1322"/>
      <point x="1310" y="1070"/>
      <point x="1302" y="952" type="curve"/>
      <point x="1338" y="952" type="line"/>
      <point x="1440" y="1389" type="line"/>
      <point x="1391" y="1389" type="line"/>
      <point x="1391" y="1389"/>
      <point x="1373" y="1322"/>
      <point x="1302" y="1322" type="curve" smooth="yes"/>
      <point x="1231" y="1322"/>
      <point x="1151" y="1387"/>
      <point x="997" y="1387" type="curve" smooth="yes" name="hr01"/>
      <point x="463" y="1387"/>
      <point x="138" y="887"/>
      <point x="138" y="498" type="curve" smooth="yes"/>
      <point x="138" y="177"/>
      <point x="380" y="-32"/>
    </contour>
  </outline>
</glyph>
<glyph name="D" format="2">
  <advance width="1480"/>
  <unicode hex="0044"/>
  <outline>
    <contour>
      <point x="1444" y="798" type="line" smooth="yes"/>
      <point x="1444" y="349"/>
      <point x="1089" y="0"/>
      <point x="518" y="0" type="curve" smooth="yes"/>
      <point x="-61" y="0" type="line"/>
      <point x="-47" y="37" type="line" name="hr01"/>
      <point x="100" y="37"/>
      <point x="129" y="77"/>
      <point x="181" y="258" type="curve" smooth="yes"/>
      <point x="422" y="1097" type="line" smooth="yes"/>
      <point x="478" y="1294"/>
      <point x="450" y="1318"/>
      <point x="299" y="1318" type="curve"/>
      <point x="313" y="1355" type="line"/>
      <point x="755" y="1355" type="line" smooth="yes"/>
      <point x="1130" y="1355"/>
      <point x="1444" y="1224"/>
      <point x="1444" y="798" type="curve" smooth="yes"/>
    </contour>
    <contour>
      <point x="1231" y="826" type="line" smooth="yes"/>
      <point x="1231" y="1103"/>
      <point x="1110" y="1285"/>
      <point x="782" y="1285" type="curve" smooth="yes"/>
      <point x="764" y="1285"/>
      <point x="701" y="1281"/>
      <point x="654" y="1281" type="curve"/>
      <point x="357" y="258" type="line" smooth="yes"/>
      <point x="306" y="83"/>
      <point x="321" y="65"/>
      <point x="455" y="65" type="curve" smooth="yes" name="hr02"/>
      <point x="982" y="65"/>
      <point x="1231" y="347"/>
      <point x="1231" y="826" type="curve" smooth="yes"/>
    </contour>
  </outline>
</glyph>
<glyph name="E" format="2">
  <advance width="1251"/>
  <unicode hex="0045"/>
  <outline>
    <contour>
      <point x="1296" y="1355" type="line"/>
      <point x="1214" y="1030" type="line"/>
      <point x="1176" y="1030" type="line"/>
      <point x="1218" y="1241"/>
      <point x="1088" y="1285"/>
      <point x="855" y="1285" type="curve" smooth="yes" name="hr01"/>
      <point x="664" y="1285" type="line"/>
      <point x="508" y="749" type="line"/>
      <point x="628" y="749" type="line" smooth="yes"/>
      <point x="824" y="749"/>
      <point x="869" y="780"/>
      <point x="940" y="942" type="curve"/>
      <point x="979" y="942" type="line"/>
      <point x="837" y="449" type="line" name="hr02"/>
      <point x="798" y="449" type="line"/>
      <point x="841" y="644"/>
      <point x="808" y="676"/>
      <point x="609" y="676" type="curve" smooth="yes" name="hr03"/>
      <point x="489" y="676" type="line"/>
      <point x="368" y="258" type="line" smooth="yes"/>
      <point x="313" y="66"/>
      <point x="335" y="67"/>
      <point x="540" y="67" type="curve" smooth="yes"/>
      <point x="804" y="67"/>
      <point x="956" y="122"/>
      <point x="1095" y="376" type="curve"/>
      <point x="1133" y="376" type="line"/>
      <point x="1005" y="0" type="line"/>
      <point x="-49" y="0" type="line"/>
      <point x="-35" y="37" type="line"/>
      <point x="91" y="37"/>
      <point x="135" y="56"/>
      <point x="193" y="258" type="curve" smooth="yes"/>
      <point x="433" y="1097" type="line" smooth="yes"/>
      <point x="490" y="1295"/>
      <point x="456" y="1318"/>
      <point x="305" y="1318" type="curve"/>
      <point x="315" y="1355" type="line"/>
    </contour>
  </outline>
</glyph>
<glyph name="F" format="2">
  <advance width="819"/>
  <unicode hex="0046"/>
  <anchor x="343" y="-92" name="L"/>
  <anchor x="521" y="1214" name="U"/>
  <outline>
    <contour>
      <point x="868" y="1136" type="curve"/>
      <point x="846" y="1159" type="line"/>
      <point x="395" y="1159" type="line"/>
      <point x="359" y="1075" type="line"/>
      <point x="717" y="1075" type="line" smooth="yes"/>
      <point x="760" y="1075"/>
      <point x="778" y="1042"/>
      <point x="769" y="929" type="curve"/>
      <point x="806" y="929" type="line"/>
      <point x="827" y="976"/>
      <point x="857" y="1073"/>
    </contour>
    <contour>
      <point x="665" y="650" type="curve"/>
      <point x="644" y="676" type="line"/>
      <point x="314" y="676" type="line"/>
      <point x="286" y="602" type="line"/>
      <point x="401" y="602" type="line" smooth="yes"/>
      <point x="482" y="602"/>
      <point x="533" y="593"/>
      <point x="575" y="552" type="curve"/>
      <point x="600" y="573"/>
      <point x="638" y="616"/>
    </contour>
    <contour>
      <point x="537" y="1159" type="line"/>
      <point x="160" y="1159" type="line"/>
      <point x="154" y="1119" type="line"/>
      <point x="233" y="1102"/>
      <point x="271" y="1077"/>
      <point x="269" y="1062" type="curve" smooth="yes"/>
      <point x="135" y="95" type="line" smooth="yes"/>
      <point x="133" y="79"/>
      <point x="82" y="56"/>
      <point x="5" y="39" type="curve"/>
      <point x="0" y="0" type="line"/>
      <point x="402" y="0" type="line"/>
      <point x="408" y="39" type="line"/>
      <point x="301" y="62"/>
      <point x="265" y="80"/>
      <point x="267" y="95" type="curve" smooth="yes"/>
      <point x="402" y="1081" type="line" smooth="yes"/>
      <point x="404" y="1098"/>
      <point x="454" y="1111"/>
      <point x="531" y="1119" type="curve"/>
    </contour>
  </outline>
</glyph>
<glyph name="G" format="2">
  <advance width="987"/>
  <unicode hex="0047"/>
  <anchor x="478" y="0" name="H"/>
  <anchor x="483" y="-92" name="L"/>
  <anchor x="662" y="1214" name="U"/>
  <outline>
    <contour>
      <point x="977" y="535" type="line"/>
      <point x="553" y="535" type="line"/>
      <point x="548" y="495" type="line"/>
      <point x="733" y="467"/>
      <point x="751" y="446"/>
      <point x="747" y="420" type="curve" smooth="yes"/>
      <point x="711" y="143" type="line"/>
      <point x="667" y="112"/>
      <point x="599" y="90"/>
      <point x="533" y="90" type="curve" smooth="yes"/>
      <point x="382" y="90"/>
      <point x="207" y="212"/>
      <point x="207" y="474" type="curve" smooth="yes"/>
      <point x="207" y="645"/>
      <point x="286" y="889"/>
      <point x="410" y="989" type="curve" smooth="yes"/>
      <point x="476" y="1042"/>
      <point x="548" y="1077"/>
      <point x="595" y="1077" type="curve" smooth="yes"/>
      <point x="706" y="1077"/>
      <point x="782" y="1055"/>
      <point x="846" y="977" type="curve"/>
      <point x="872" y="972" type="line"/>
      <point x="906" y="1000"/>
      <point x="985" y="1080"/>
      <point x="970" y="1092" type="curve"/>
      <point x="908" y="1152"/>
      <point x="802" y="1186"/>
      <point x="729" y="1186" type="curve" smooth="yes"/>
      <point x="584" y="1186"/>
      <point x="453" y="1133"/>
      <point x="350" y="1051" type="curve" smooth="yes"/>
      <point x="184" y="920"/>
      <point x="69" y="668"/>
      <point x="69" y="435" type="curve" smooth="yes"/>
      <point x="69" y="139"/>
      <point x="258" y="-28"/>
      <point x="461" y="-28" type="curve" smooth="yes"/>
      <point x="561" y="-28"/>
      <point x="650" y="-7"/>
      <point x="836" y="141" type="curve"/>
      <point x="841" y="188"/>
      <point x="864" y="355"/>
      <point x="874" y="420" type="curve" smooth="yes"/>
      <point x="877" y="448"/>
      <point x="906" y="476"/>
      <point x="972" y="495" type="curve"/>
    </contour>
  </outline>
</glyph>
<glyph name="H" format="2">
  <advance width="1480"/>
  <unicode hex="0048"/>
  <outline>
    <contour>
      <point x="1659" y="1355" type="line"/>
      <point x="1649" y="1318" type="line"/>
      <point x="1521" y="1318"/>
      <point x="1471" y="1293"/>
      <point x="1415" y="1097" type="curve" smooth="yes"/>
      <point x="1174" y="258" type="line" smooth="yes"/>
      <point x="1122" y="74"/>
      <point x="1131" y="37"/>
      <point x="1292" y="37" type="curve"/>
      <point x="1283" y="0" type="line"/>
      <point x="753" y="0" type="line"/>
      <point x="766" y="37" type="line"/>
      <point x="922" y="37"/>
      <point x="946" y="75"/>
      <point x="999" y="258" type="curve" smooth="yes"/>
      <point x="1121" y="682" type="line"/>
      <point x="491" y="682" type="line"/>
      <point x="368" y="258" type="line" smooth="yes"/>
      <point x="315" y="74"/>
      <point x="325" y="37"/>
      <point x="487" y="37" type="curve"/>
      <point x="477" y="0" type="line"/>
      <point x="-55" y="0" type="line"/>
      <point x="-41" y="37" type="line"/>
      <point x="114" y="37"/>
      <point x="141" y="75"/>
      <point x="193" y="258" type="curve" smooth="yes"/>
      <point x="433" y="1097" type="line" smooth="yes"/>
      <point x="490" y="1297"/>
      <point x="454" y="1318"/>
      <point x="303" y="1318" type="curve"/>
      <point x="313" y="1355" type="line"/>
      <point x="847" y="1355" type="line"/>
      <point x="837" y="1318" type="line"/>
      <point x="709" y="1318"/>
      <point x="665" y="1293"/>
      <point x="609" y="1097" type="curve" smooth="yes"/>
      <point x="510" y="753" type="line"/>
      <point x="1141" y="753" type="line"/>
      <point x="1239" y="1097" type="line" smooth="yes"/>
      <point x="1296" y="1297"/>
      <point x="1260" y="1318"/>
      <point x="1109" y="1318" type="curve"/>
      <point x="1119" y="1355" type="line"/>
    </contour>
  </outline>
</glyph>
<glyph name="I" format="2">
  <advance width="682"/>
  <unicode hex="0049"/>
  <outline>
    <contour>
      <point x="839" y="1355" type="line"/>
      <point x="829" y="1318" type="line"/>
      <point x="708" y="1318"/>
      <point x="665" y="1294"/>
      <point x="609" y="1097" type="curve" smooth="yes"/>
      <point x="368" y="258" type="line" smooth="yes"/>
      <point x="318" y="81"/>
      <point x="318" y="37"/>
      <point x="504" y="37" type="curve"/>
      <point x="495" y="0" type="line"/>
      <point x="-63" y="0" type="line"/>
      <point x="-49" y="37" type="line"/>
      <point x="106" y="37"/>
      <point x="140" y="73"/>
      <point x="193" y="258" type="curve" smooth="yes"/>
      <point x="433" y="1097" type="line" smooth="yes"/>
      <point x="491" y="1298"/>
      <point x="456" y="1318"/>
      <point x="305" y="1318" type="curve"/>
      <point x="315" y="1355" type="line"/>
    </contour>
  </outline>
</glyph>
<glyph name="J" format="2">
  <advance width="910"/>
  <unicode hex="004A"/>
  <outline>
    <contour>
      <point x="1119" y="1355" type="line"/>
      <point x="1107" y="1318" type="line"/>
      <point x="980" y="1318"/>
      <point x="934" y="1294"/>
      <point x="879" y="1097" type="curve" smooth="yes"/>
      <point x="711" y="508" type="line" smooth="yes"/>
      <point x="583" y="58"/>
      <point x="376" y="-32"/>
      <point x="173" y="-32" type="curve" smooth="yes"/>
      <point x="8" y="-32"/>
      <point x="-69" y="53"/>
      <point x="-69" y="152" type="curve" smooth="yes"/>
      <point x="-69" y="244"/>
      <point x="0" y="292"/>
      <point x="57" y="292" type="curve" smooth="yes"/>
      <point x="114" y="292"/>
      <point x="160" y="250"/>
      <point x="160" y="199" type="curve" smooth="yes"/>
      <point x="160" y="148"/>
      <point x="100" y="116"/>
      <point x="100" y="85" type="curve" smooth="yes" name="hr01"/>
      <point x="100" y="53"/>
      <point x="122" y="32"/>
      <point x="173" y="32" type="curve" smooth="yes"/>
      <point x="333" y="32"/>
      <point x="437" y="159"/>
      <point x="536" y="508" type="curve" smooth="yes"/>
      <point x="703" y="1097" type="line" smooth="yes"/>
      <point x="740" y="1226"/>
      <point x="770" y="1318"/>
      <point x="575" y="1318" type="curve"/>
      <point x="585" y="1355" type="line"/>
    </contour>
  </outline>
</glyph>
<glyph name="K" format="2">
  <advance width="1013"/>
  <unicode hex="004B"/>
  <anchor x="184" y="0" name="H"/>
  <anchor x="474" y="-92" name="L"/>
  <anchor x="654" y="1214" name="U"/>
  <outline>
    <contour>
      <point x="1068" y="1159" type="line"/>
      <point x="715" y="1159" type="line"/>
      <point x="710" y="1119" type="line"/>
      <point x="794" y="1111"/>
      <point x="821" y="1102"/>
      <point x="759" y="1037" type="curve"/>
      <point x="333" y="591" type="line"/>
      <point x="439" y="591" type="line"/>
      <point x="911" y="1062" type="line" smooth="yes"/>
      <point x="951" y="1102"/>
      <point x="987" y="1109"/>
      <point x="1062" y="1119" type="curve"/>
    </contour>
    <contour>
      <point x="990" y="102" type="curve"/>
      <point x="974" y="135" type="line"/>
      <point x="859" y="88"/>
      <point x="821" y="92"/>
      <point x="787" y="143" type="curve"/>
      <point x="434" y="663" type="line"/>
      <point x="333" y="591" type="line"/>
      <point x="672" y="46" type="line" smooth="yes"/>
      <point x="702" y="-1"/>
      <point x="723" y="-12"/>
      <point x="760" y="-12" type="curve" smooth="yes"/>
      <point x="808" y="-12"/>
      <point x="897" y="30"/>
    </contour>
    <contour>
      <point x="537" y="1159" type="line"/>
      <point x="160" y="1159" type="line"/>
      <point x="154" y="1119" type="line"/>
      <point x="233" y="1102"/>
      <point x="271" y="1077"/>
      <point x="269" y="1062" type="curve" smooth="yes"/>
      <point x="135" y="95" type="line" smooth="yes"/>
      <point x="133" y="79"/>
      <point x="82" y="56"/>
      <point x="5" y="39" type="curve"/>
      <point x="0" y="0" type="line"/>
      <point x="377" y="0" type="line"/>
      <point x="382" y="39" type="line"/>
      <point x="305" y="56"/>
      <point x="265" y="80"/>
      <point x="269" y="95" type="curve"/>
      <point x="401" y="1062" type="line"/>
      <point x="404" y="1080"/>
      <point x="454" y="1102"/>
      <point x="531" y="1119" type="curve"/>
    </contour>
  </outline>
</glyph>
<glyph name="L" format="2">
  <advance width="1139"/>
  <unicode hex="004C"/>
  <outline>
    <contour>
      <point x="-59" y="0" type="line"/>
      <point x="948" y="0" type="line"/>
      <point x="1080" y="386" type="line"/>
      <point x="1042" y="386" type="line"/>
      <point x="903" y="132"/>
      <point x="844" y="73"/>
      <point x="530" y="73" type="curve" smooth="yes" name="hr02"/>
      <point x="326" y="73"/>
      <point x="319" y="84"/>
      <point x="368" y="258" type="curve" smooth="yes"/>
      <point x="609" y="1097" type="line" smooth="yes"/>
      <point x="665" y="1293"/>
      <point x="697" y="1318"/>
      <point x="859" y="1318" type="curve"/>
      <point x="869" y="1355" type="line"/>
      <point x="315" y="1355" type="line"/>
      <point x="305" y="1318" type="line"/>
      <point x="456" y="1318"/>
      <point x="491" y="1297"/>
      <point x="433" y="1097" type="curve" smooth="yes"/>
      <point x="193" y="258" type="line" smooth="yes"/>
      <point x="140" y="74"/>
      <point x="97" y="37"/>
      <point x="-45" y="37" type="curve" name="hr01"/>
    </contour>
  </outline>
</glyph>
<glyph name="M" format="2">
  <advance width="1706"/>
  <unicode hex="004D"/>
  <outline>
    <contour>
      <point x="-61" y="0" type="line"/>
      <point x="386" y="0" type="line"/>
      <point x="398" y="37" type="line"/>
      <point x="236" y="37"/>
      <point x="217" y="75"/>
      <point x="270" y="258" type="curve" smooth="yes"/>
      <point x="512" y="1105" type="line"/>
      <point x="638" y="0" type="line"/>
      <point x="678" y="0" type="line"/>
      <point x="1472" y="1105" type="line"/>
      <point x="1227" y="258" type="line" smooth="yes"/>
      <point x="1175" y="75"/>
      <point x="1151" y="37"/>
      <point x="979" y="37" type="curve"/>
      <point x="969" y="0" type="line"/>
      <point x="1541" y="0" type="line"/>
      <point x="1551" y="37" type="line"/>
      <point x="1379" y="37"/>
      <point x="1351" y="76"/>
      <point x="1403" y="258" type="curve" smooth="yes"/>
      <point x="1643" y="1097" type="line" smooth="yes"/>
      <point x="1698" y="1291"/>
      <point x="1742" y="1318"/>
      <point x="1899" y="1318" type="curve"/>
      <point x="1899" y="1355" type="line"/>
      <point x="1566" y="1355" type="line"/>
      <point x="780" y="264" type="line"/>
      <point x="656" y="1355" type="line"/>
      <point x="319" y="1355" type="line"/>
      <point x="307" y="1318" type="line"/>
      <point x="456" y="1318"/>
      <point x="479" y="1253"/>
      <point x="479" y="1253" type="curve"/>
      <point x="193" y="258" type="line" smooth="yes"/>
      <point x="141" y="76"/>
      <point x="108" y="37"/>
      <point x="-47" y="37" type="curve"/>
    </contour>
  </outline>
</glyph>
<glyph name="N" format="2">
  <advance width="1367"/>
  <unicode hex="004E"/>
  <outline>
    <contour>
      <point x="965" y="-32" type="line"/>
      <point x="999" y="-32" type="line"/>
      <point x="1324" y="1101" type="line" smooth="yes"/>
      <point x="1382" y="1303"/>
      <point x="1433" y="1318"/>
      <point x="1554" y="1318" type="curve"/>
      <point x="1566" y="1355" type="line"/>
      <point x="1131" y="1355" type="line"/>
      <point x="1121" y="1318" type="line"/>
      <point x="1272" y="1318"/>
      <point x="1298" y="1298"/>
      <point x="1241" y="1097" type="curve" smooth="yes"/>
      <point x="1013" y="292" type="line"/>
      <point x="593" y="1355" type="line"/>
      <point x="256" y="1355" type="line"/>
      <point x="244" y="1318" type="line"/>
      <point x="425" y="1318"/>
      <point x="465" y="1212"/>
      <point x="465" y="1212" type="curve"/>
      <point x="193" y="258" type="line" smooth="yes"/>
      <point x="143" y="83"/>
      <point x="118" y="37"/>
      <point x="-37" y="37" type="curve"/>
      <point x="-51" y="0" type="line"/>
      <point x="374" y="0" type="line"/>
      <point x="384" y="37" type="line" name="hr01"/>
      <point x="230" y="37"/>
      <point x="222" y="87"/>
      <point x="270" y="258" type="curve" smooth="yes"/>
      <point x="512" y="1113" type="line"/>
    </contour>
  </outline>
</glyph>
<glyph name="O" format="2">
  <advance width="1480"/>
  <unicode hex="004F"/>
  <outline>
    <contour>
      <point x="1472" y="918" type="line" smooth="yes"/>
      <point x="1472" y="469"/>
      <point x="1089" y="-32"/>
      <point x="595" y="-32" type="curve" smooth="yes"/>
      <point x="213" y="-32"/>
      <point x="122" y="280"/>
      <point x="122" y="441" type="curve" smooth="yes"/>
      <point x="122" y="851"/>
      <point x="498" y="1387"/>
      <point x="1007" y="1387" type="curve" smooth="yes"/>
      <point x="1369" y="1387"/>
      <point x="1472" y="1093"/>
      <point x="1472" y="918" type="curve" smooth="yes"/>
    </contour>
    <contour>
      <point x="1269" y="977" type="line" smooth="yes"/>
      <point x="1269" y="1179"/>
      <point x="1157" y="1326"/>
      <point x="971" y="1326" type="curve" smooth="yes"/>
      <point x="630" y="1326"/>
      <point x="327" y="818"/>
      <point x="327" y="382" type="curve" smooth="yes"/>
      <point x="327" y="203"/>
      <point x="426" y="33"/>
      <point x="630" y="33" type="curve" smooth="yes"/>
      <point x="932" y="33"/>
      <point x="1269" y="520"/>
      <point x="1269" y="977" type="curve" smooth="yes"/>
    </contour>
  </outline>
</glyph>
<glyph name="P" format="2">
  <advance width="1251"/>
  <unicode hex="0050"/>
  <outline>
    <contour>
      <point x="-47" y="0" type="line"/>
      <point x="495" y="0" type="line"/>
      <point x="504" y="37" type="line"/>
      <point x="318" y="37"/>
      <point x="316" y="81"/>
      <point x="368" y="258" type="curve" smooth="yes"/>
      <point x="489" y="664" type="line"/>
      <point x="489" y="664"/>
      <point x="607" y="627"/>
      <point x="735" y="627" type="curve" smooth="yes"/>
      <point x="1028" y="627"/>
      <point x="1273" y="810"/>
      <point x="1273" y="1052" type="curve" smooth="yes"/>
      <point x="1273" y="1254"/>
      <point x="1088" y="1355"/>
      <point x="869" y="1355" type="curve" smooth="yes"/>
      <point x="319" y="1355" type="line"/>
      <point x="305" y="1318" type="line"/>
      <point x="481" y="1318"/>
      <point x="481" y="1267"/>
      <point x="431" y="1097" type="curve" smooth="yes"/>
      <point x="187" y="258" type="line" smooth="yes"/>
      <point x="136" y="81"/>
      <point x="111" y="37"/>
      <point x="-35" y="37" type="curve"/>
    </contour>
    <contour>
      <point x="684" y="697" type="curve" smooth="yes"/>
      <point x="595" y="697"/>
      <point x="504" y="725"/>
      <point x="504" y="725" type="curve"/>
      <point x="664" y="1267" type="line"/>
      <point x="664" y="1267"/>
      <point x="760" y="1283"/>
      <point x="827" y="1283" type="curve" smooth="yes"/>
      <point x="997" y="1283"/>
      <point x="1078" y="1204"/>
      <point x="1078" y="1058" type="curve" smooth="yes"/>
      <point x="1078" y="930"/>
      <point x="997" y="697"/>
    </contour>
  </outline>
</glyph>
<glyph name="Q" format="2">
  <advance width="1480"/>
  <unicode hex="0051"/>
  <outline>
    <contour>
      <point x="1472" y="918" type="curve" smooth="yes"/>
      <point x="1472" y="470"/>
      <point x="1090" y="-29"/>
      <point x="599" y="-32" type="curve"/>
      <point x="343" y="-240" type="line"/>
      <point x="343" y="-240"/>
      <point x="403" y="-229"/>
      <point x="459" y="-229" type="curve" smooth="yes"/>
      <point x="599" y="-229"/>
      <point x="800" y="-305"/>
      <point x="973" y="-305" type="curve" smooth="yes"/>
      <point x="1133" y="-305"/>
      <point x="1235" y="-236"/>
      <point x="1312" y="-138" type="curve"/>
      <point x="1344" y="-154" type="line"/>
      <point x="1229" y="-313"/>
      <point x="1062" y="-431"/>
      <point x="808" y="-431" type="curve" smooth="yes"/>
      <point x="662" y="-431"/>
      <point x="376" y="-347"/>
      <point x="248" y="-347" type="curve" smooth="yes"/>
      <point x="173" y="-347"/>
      <point x="120" y="-374"/>
      <point x="120" y="-374" type="curve"/>
      <point x="97" y="-349" type="line"/>
      <point x="502" y="-26" type="line"/>
      <point x="197" y="20"/>
      <point x="122" y="294"/>
      <point x="122" y="441" type="curve" smooth="yes"/>
      <point x="122" y="851"/>
      <point x="498" y="1387"/>
      <point x="1007" y="1387" type="curve" smooth="yes"/>
      <point x="1369" y="1387"/>
      <point x="1472" y="1093"/>
    </contour>
    <contour>
      <point x="1269" y="977" type="curve" smooth="yes"/>
      <point x="1269" y="1179"/>
      <point x="1157" y="1326"/>
      <point x="971" y="1326" type="curve" smooth="yes"/>
      <point x="630" y="1326"/>
      <point x="327" y="818"/>
      <point x="327" y="382" type="curve" smooth="yes"/>
      <point x="327" y="203"/>
      <point x="426" y="33"/>
      <point x="630" y="33" type="curve" smooth="yes" name="hr01"/>
      <point x="932" y="33"/>
      <point x="1269" y="520"/>
    </contour>
  </outline>
</glyph>
<glyph name="R" format="2">
  <advance width="1251"/>
  <unicode hex="0052"/>
  <outline>
    <contour>
      <point x="-47" y="0" type="line"/>
      <point x="477" y="0" type="line"/>
      <point x="489" y="37" type="line"/>
      <point x="319" y="37"/>
      <point x="319" y="99"/>
      <point x="364" y="258" type="curve" smooth="yes"/>
      <point x="483" y="674" type="line"/>
      <point x="483" y="674"/>
      <point x="523" y="661"/>
      <point x="634" y="660" type="curve"/>
      <point x="851" y="0" type="line"/>
      <point x="1176" y="0" type="line"/>
      <point x="1186" y="37" type="line"/>
      <point x="1032" y="41"/>
      <point x="986" y="103"/>
      <point x="894" y="390" type="curve" smooth="yes"/>
      <point x="804" y="674" type="line"/>
      <point x="1022" y="716"/>
      <point x="1178" y="853"/>
      <point x="1178" y="1052" type="curve" smooth="yes"/>
      <point x="1178" y="1254"/>
      <point x="1027" y="1355"/>
      <point x="770" y="1355" type="curve" smooth="yes"/>
      <point x="319" y="1355" type="line"/>
      <point x="305" y="1318" type="line"/>
      <point x="481" y="1318"/>
      <point x="461" y="1197"/>
      <point x="431" y="1097" type="curve" smooth="yes"/>
      <point x="187" y="258" type="line" smooth="yes"/>
      <point x="136" y="81"/>
      <point x="110" y="37"/>
      <point x="-37" y="37" type="curve"/>
    </contour>
    <contour>
      <point x="609" y="723" type="curve" smooth="yes"/>
      <point x="520" y="723"/>
      <point x="498" y="731"/>
      <point x="498" y="731" type="curve"/>
      <point x="658" y="1277" type="line"/>
      <point x="658" y="1277"/>
      <point x="662" y="1285"/>
      <point x="729" y="1285" type="curve" smooth="yes"/>
      <point x="899" y="1285"/>
      <point x="981" y="1204"/>
      <point x="981" y="1058" type="curve" smooth="yes"/>
      <point x="981" y="930"/>
      <point x="904" y="723"/>
    </contour>
  </outline>
</glyph>
<glyph name="S" format="2">
  <advance width="1024"/>
  <unicode hex="0053"/>
  <outline>
    <contour>
      <point x="14" y="-32" type="line"/>
      <point x="53" y="-32" type="line"/>
      <point x="73" y="16"/>
      <point x="99" y="49"/>
      <point x="146" y="49" type="curve" smooth="yes"/>
      <point x="223" y="49"/>
      <point x="330" y="-32"/>
      <point x="475" y="-32" type="curve" smooth="yes"/>
      <point x="660" y="-32"/>
      <point x="922" y="70"/>
      <point x="922" y="376" type="curve" smooth="yes"/>
      <point x="922" y="552"/>
      <point x="776" y="676"/>
      <point x="656" y="792" type="curve" smooth="yes"/>
      <point x="522" y="922"/>
      <point x="451" y="998"/>
      <point x="451" y="1103" type="curve" smooth="yes"/>
      <point x="451" y="1200"/>
      <point x="530" y="1310"/>
      <point x="690" y="1310" type="curve" smooth="yes"/>
      <point x="877" y="1310"/>
      <point x="977" y="1168"/>
      <point x="977" y="1034" type="curve" smooth="yes"/>
      <point x="977" y="1002"/>
      <point x="971" y="938"/>
      <point x="971" y="938" type="curve"/>
      <point x="1007" y="938" type="line" name="hr01"/>
      <point x="1111" y="1387" type="line"/>
      <point x="1072" y="1387" type="line"/>
      <point x="1044" y="1332"/>
      <point x="1021" y="1310"/>
      <point x="967" y="1310" type="curve" smooth="yes"/>
      <point x="905" y="1310"/>
      <point x="830" y="1387"/>
      <point x="656" y="1387" type="curve" smooth="yes" name="hr02"/>
      <point x="454" y="1387"/>
      <point x="280" y="1241"/>
      <point x="280" y="1050" type="curve" smooth="yes"/>
      <point x="280" y="889"/>
      <point x="367" y="822"/>
      <point x="461" y="719" type="curve" smooth="yes"/>
      <point x="617" y="550"/>
      <point x="735" y="456"/>
      <point x="735" y="301" type="curve" smooth="yes"/>
      <point x="735" y="124"/>
      <point x="601" y="43"/>
      <point x="473" y="43" type="curve" smooth="yes"/>
      <point x="274" y="43"/>
      <point x="154" y="174"/>
      <point x="154" y="351" type="curve" smooth="yes"/>
      <point x="154" y="424"/>
      <point x="160" y="473"/>
      <point x="160" y="473" type="curve"/>
      <point x="126" y="473" type="line"/>
    </contour>
  </outline>
</glyph>
<glyph name="T" format="2">
  <advance width="1139"/>
  <unicode hex="0054"/>
  <outline>
    <contour>
      <point x="1330" y="1355" type="line"/>
      <point x="1220" y="995" type="line"/>
      <point x="1182" y="995" type="line"/>
      <point x="1229" y="1269"/>
      <point x="1203" y="1277"/>
      <point x="873" y="1277" type="curve" name="hr01"/>
      <point x="579" y="258" type="line" smooth="yes"/>
      <point x="524" y="66"/>
      <point x="537" y="37"/>
      <point x="747" y="37" type="curve"/>
      <point x="735" y="0" type="line"/>
      <point x="144" y="0" type="line"/>
      <point x="154" y="37" type="line"/>
      <point x="318" y="37"/>
      <point x="349" y="69"/>
      <point x="404" y="258" type="curve" smooth="yes"/>
      <point x="697" y="1277" type="line"/>
      <point x="391" y="1277"/>
      <point x="311" y="1233"/>
      <point x="242" y="995" type="curve" name="hr02"/>
      <point x="205" y="995" type="line"/>
      <point x="299" y="1355" type="line"/>
    </contour>
  </outline>
</glyph>
<glyph name="U" format="2">
  <advance width="1480"/>
  <unicode hex="0055"/>
  <outline>
    <contour>
      <point x="1671" y="1355" type="line"/>
      <point x="1659" y="1318" type="line"/>
      <point x="1538" y="1318"/>
      <point x="1492" y="1302"/>
      <point x="1434" y="1101" type="curve" smooth="yes"/>
      <point x="1300" y="636" type="line" smooth="yes"/>
      <point x="1171" y="187"/>
      <point x="1064" y="-32"/>
      <point x="676" y="-32" type="curve" smooth="yes"/>
      <point x="412" y="-32"/>
      <point x="217" y="143"/>
      <point x="217" y="353" type="curve" smooth="yes"/>
      <point x="217" y="417"/>
      <point x="230" y="494"/>
      <point x="250" y="563" type="curve" smooth="yes"/>
      <point x="404" y="1097" type="line" smooth="yes"/>
      <point x="461" y="1296"/>
      <point x="415" y="1318"/>
      <point x="258" y="1318" type="curve"/>
      <point x="268" y="1355" type="line"/>
      <point x="839" y="1355" type="line"/>
      <point x="829" y="1318" type="line"/>
      <point x="682" y="1318"/>
      <point x="636" y="1293"/>
      <point x="579" y="1097" type="curve" smooth="yes"/>
      <point x="426" y="563" type="line" smooth="yes"/>
      <point x="400" y="474"/>
      <point x="390" y="411"/>
      <point x="390" y="349" type="curve" smooth="yes"/>
      <point x="390" y="204"/>
      <point x="498" y="59"/>
      <point x="721" y="59" type="curve" smooth="yes"/>
      <point x="1009" y="59"/>
      <point x="1112" y="251"/>
      <point x="1235" y="688" type="curve" smooth="yes"/>
      <point x="1352" y="1097" type="line" smooth="yes"/>
      <point x="1394" y="1246"/>
      <point x="1403" y="1318"/>
      <point x="1225" y="1318" type="curve"/>
      <point x="1237" y="1355" type="line"/>
    </contour>
  </outline>
</glyph>
<glyph name="V" format="2">
  <advance width="1251"/>
  <unicode hex="0056"/>
  <outline>
    <contour>
      <point x="311" y="-32" type="line"/>
      <point x="347" y="-32" type="line"/>
      <point x="1160" y="1076" type="line" smooth="yes"/>
      <point x="1290" y="1252"/>
      <point x="1385" y="1318"/>
      <point x="1472" y="1318" type="curve"/>
      <point x="1482" y="1355" type="line"/>
      <point x="1074" y="1355" type="line"/>
      <point x="1062" y="1318" type="line"/>
      <point x="1149" y="1318"/>
      <point x="1170" y="1281"/>
      <point x="1170" y="1247" type="curve" smooth="yes"/>
      <point x="1170" y="1204"/>
      <point x="1135" y="1155"/>
      <point x="1056" y="1046" type="curve" smooth="yes"/>
      <point x="518" y="309" type="line" name="hr02"/>
      <point x="597" y="1097" type="line" smooth="yes"/>
      <point x="615" y="1278"/>
      <point x="622" y="1318"/>
      <point x="788" y="1318" type="curve"/>
      <point x="802" y="1355" type="line"/>
      <point x="266" y="1355" type="line"/>
      <point x="256" y="1318" type="line"/>
      <point x="436" y="1318"/>
      <point x="439" y="1279"/>
      <point x="422" y="1097" type="curve" smooth="yes" name="hr01"/>
    </contour>
  </outline>
</glyph>
<glyph name="W" format="2">
  <advance width="1706"/>
  <unicode hex="0057"/>
  <outline>
    <contour>
      <point x="274" y="-32" type="line"/>
      <point x="311" y="-32" type="line"/>
      <point x="991" y="1021" type="line"/>
      <point x="881" y="-32" type="line"/>
      <point x="918" y="-32" type="line"/>
      <point x="1635" y="1076" type="line" smooth="yes"/>
      <point x="1754" y="1259"/>
      <point x="1830" y="1318"/>
      <point x="1923" y="1318" type="curve"/>
      <point x="1933" y="1355" type="line"/>
      <point x="1529" y="1355" type="line"/>
      <point x="1521" y="1318" type="line"/>
      <point x="1715" y="1318"/>
      <point x="1592" y="1123"/>
      <point x="1541" y="1046" type="curve" smooth="yes"/>
      <point x="1091" y="368" type="line"/>
      <point x="1172" y="1097" type="line" smooth="yes"/>
      <point x="1195" y="1302"/>
      <point x="1211" y="1318"/>
      <point x="1377" y="1318" type="curve"/>
      <point x="1387" y="1355" type="line"/>
      <point x="837" y="1355" type="line"/>
      <point x="829" y="1318" type="line"/>
      <point x="979" y="1318"/>
      <point x="1015" y="1266"/>
      <point x="1005" y="1160" type="curve"/>
      <point x="491" y="368" type="line" name="hr02"/>
      <point x="563" y="1097" type="line" smooth="yes"/>
      <point x="581" y="1274"/>
      <point x="599" y="1318"/>
      <point x="755" y="1318" type="curve"/>
      <point x="766" y="1355" type="line"/>
      <point x="258" y="1355" type="line"/>
      <point x="248" y="1318" type="line"/>
      <point x="404" y="1318"/>
      <point x="408" y="1251"/>
      <point x="392" y="1097" type="curve" smooth="yes" name="hr01"/>
    </contour>
  </outline>
</glyph>
<glyph name="X" format="2">
  <advance width="1251"/>
  <unicode hex="0058"/>
  <outline>
    <contour>
      <point x="1517" y="1355" type="line"/>
      <point x="1505" y="1318" type="line"/>
      <point x="1389" y="1318"/>
      <point x="1281" y="1229"/>
      <point x="1168" y="1113" type="curve" smooth="yes"/>
      <point x="786" y="723" type="line"/>
      <point x="873" y="408" type="line" smooth="yes"/>
      <point x="959" y="94"/>
      <point x="989" y="37"/>
      <point x="1158" y="37" type="curve"/>
      <point x="1147" y="0" type="line"/>
      <point x="615" y="0" type="line"/>
      <point x="625" y="37" type="line"/>
      <point x="800" y="37"/>
      <point x="778" y="122"/>
      <point x="751" y="221" type="curve" smooth="yes"/>
      <point x="650" y="583" type="line"/>
      <point x="329" y="260" type="line" smooth="yes"/>
      <point x="271" y="202"/>
      <point x="209" y="140"/>
      <point x="209" y="104" type="curve" smooth="yes"/>
      <point x="209" y="74"/>
      <point x="230" y="37"/>
      <point x="323" y="37" type="curve"/>
      <point x="313" y="0" type="line"/>
      <point x="-138" y="0" type="line"/>
      <point x="-126" y="37" type="line"/>
      <point x="30" y="37"/>
      <point x="153" y="183"/>
      <point x="286" y="317" type="curve" smooth="yes"/>
      <point x="627" y="660" type="line"/>
      <point x="504" y="1097" type="line" smooth="yes"/>
      <point x="449" y="1295"/>
      <point x="407" y="1318"/>
      <point x="305" y="1318" type="curve"/>
      <point x="315" y="1355" type="line"/>
      <point x="800" y="1355" type="line"/>
      <point x="786" y="1318" type="line"/>
      <point x="646" y="1318"/>
      <point x="623" y="1302"/>
      <point x="680" y="1097" type="curve" smooth="yes"/>
      <point x="762" y="798" type="line"/>
      <point x="1009" y="1046" type="line" smooth="yes"/>
      <point x="1176" y="1215"/>
      <point x="1243" y="1318"/>
      <point x="1046" y="1318" type="curve"/>
      <point x="1058" y="1355" type="line"/>
    </contour>
  </outline>
</glyph>
<glyph name="Y" format="2">
  <advance width="1139"/>
  <unicode hex="0059"/>
  <outline>
    <contour>
      <point x="1367" y="1355" type="line"/>
      <point x="1359" y="1318" type="line"/>
      <point x="1233" y="1318"/>
      <point x="1188" y="1252"/>
      <point x="1058" y="1076" type="curve" smooth="yes"/>
      <point x="733" y="634" type="line"/>
      <point x="623" y="258" type="line" smooth="yes"/>
      <point x="566" y="67"/>
      <point x="595" y="37"/>
      <point x="764" y="37" type="curve"/>
      <point x="757" y="0" type="line"/>
      <point x="185" y="0" type="line"/>
      <point x="197" y="37" type="line"/>
      <point x="376" y="37"/>
      <point x="406" y="122"/>
      <point x="447" y="258" type="curve" smooth="yes"/>
      <point x="567" y="660" type="line"/>
      <point x="430" y="1097" type="line" smooth="yes"/>
      <point x="368" y="1293"/>
      <point x="336" y="1318"/>
      <point x="234" y="1318" type="curve"/>
      <point x="244" y="1355" type="line"/>
      <point x="747" y="1355" type="line"/>
      <point x="733" y="1318" type="line"/>
      <point x="593" y="1318"/>
      <point x="545" y="1300"/>
      <point x="605" y="1097" type="curve" smooth="yes"/>
      <point x="717" y="719" type="line"/>
      <point x="950" y="1046" type="line" smooth="yes"/>
      <point x="1112" y="1275"/>
      <point x="1124" y="1318"/>
      <point x="928" y="1318" type="curve"/>
      <point x="940" y="1355" type="line"/>
    </contour>
  </outline>
</glyph>
<glyph name="Z" format="2">
  <advance width="1139"/>
  <unicode hex="005A"/>
  <outline>
    <contour>
      <point x="1251" y="1320" type="line"/>
      <point x="244" y="65" type="line"/>
      <point x="796" y="65"/>
      <point x="924" y="71"/>
      <point x="1052" y="353" type="curve"/>
      <point x="1088" y="353" type="line"/>
      <point x="971" y="0" type="line"/>
      <point x="-4" y="0" type="line"/>
      <point x="-4" y="30" type="line"/>
      <point x="1005" y="1285" type="line"/>
      <point x="784" y="1285" type="line" smooth="yes"/>
      <point x="416" y="1285"/>
      <point x="331" y="1271"/>
      <point x="244" y="1046" type="curve"/>
      <point x="209" y="1046" type="line"/>
      <point x="309" y="1355" type="line"/>
      <point x="1251" y="1355" type="line"/>
    </contour>
  </outline>
</glyph>
<glyph name="bracketleft" format="2">
  <advance width="676"/>
  <unicode hex="005B"/>
  <outline>
    <contour>
      <point x="427" y="-441" type="line"/>
      <point x="59" y="-441" type="line"/>
      <point x="443" y="1533" type="line"/>
      <point x="811" y="1533" type="line"/>
      <point x="794" y="1448" type="line"/>
      <point x="551" y="1448" type="line"/>
      <point x="201" y="-355" type="line"/>
      <point x="444" y="-355" type="line"/>
    </contour>
  </outline>
</glyph>
<glyph name="backslash" format="2">
  <advance width="753"/>
  <unicode hex="005C"/>
  <outline>
    <contour>
      <point x="627" y="-286" type="line"/>
      <point x="271" y="1426" type="line"/>
      <point x="241" y="1447"/>
      <point x="201" y="1461"/>
      <point x="167" y="1471" type="curve"/>
      <point x="133" y="1450" type="line"/>
      <point x="492" y="-262" type="line"/>
      <point x="510" y="-278"/>
      <point x="568" y="-299"/>
      <point x="595" y="-309" type="curve"/>
    </contour>
  </outline>
</glyph>
<glyph name="bracketright" format="2">
  <advance width="676"/>
  <unicode hex="005D"/>
  <outline>
    <contour>
      <point x="217" y="-444" type="line"/>
      <point x="-149" y="-444" type="line"/>
      <point x="-132" y="-355" type="line"/>
      <point x="109" y="-355" type="line"/>
      <point x="460" y="1448" type="line"/>
      <point x="219" y="1448" type="line"/>
      <point x="235" y="1533" type="line"/>
      <point x="601" y="1533" type="line"/>
    </contour>
  </outline>
</glyph>
<glyph name="asciicircum" format="2">
  <advance width="862"/>
  <unicode hex="005E"/>
  <anchor x="574" y="1508" name="U"/>
  <outline>
    <contour>
      <point x="785" y="584" type="curve"/>
      <point x="600" y="1426" type="line"/>
      <point x="566" y="1409"/>
      <point x="506" y="1373"/>
      <point x="474" y="1345" type="curve"/>
      <point x="86" y="544" type="line"/>
      <point x="103" y="519" type="line"/>
      <point x="127" y="531"/>
      <point x="177" y="559"/>
      <point x="205" y="584" type="curve"/>
      <point x="508" y="1209" type="line"/>
      <point x="655" y="544" type="line"/>
      <point x="683" y="519" type="line"/>
      <point x="724" y="539"/>
      <point x="751" y="555"/>
    </contour>
  </outline>
</glyph>
<glyph name="underscore" format="2">
  <advance width="985"/>
  <unicode hex="005F"/>
  <outline>
    <contour>
      <point x="985" y="-231" type="line"/>
      <point x="0" y="-231" type="line"/>
      <point x="0" y="-158" type="line"/>
      <point x="985" y="-158" type="line"/>
    </contour>
  </outline>
</glyph>
<glyph name="grave" format="2">
  <advance width="741"/>
  <unicode hex="0060"/>
  <outline>
    <contour>
      <point x="528" y="1042" type="line"/>
      <point x="591" y="1042" type="line"/>
      <point x="406" y="1328" type="line" smooth="yes"/>
      <point x="381" y="1366"/>
      <point x="349" y="1399"/>
      <point x="313" y="1399" type="curve" smooth="yes"/>
      <point x="274" y="1399"/>
      <point x="229" y="1367"/>
      <point x="229" y="1318" type="curve" smooth="yes"/>
      <point x="229" y="1281"/>
      <point x="258" y="1251"/>
      <point x="286" y="1229" type="curve" smooth="yes"/>
    </contour>
  </outline>
</glyph>
<glyph name="a" format="2">
  <advance width="1024"/>
  <unicode hex="0061"/>
  <outline>
    <contour>
      <point x="961" y="906" type="line"/>
      <point x="782" y="282" type="line" smooth="yes"/>
      <point x="758" y="198"/>
      <point x="741" y="126"/>
      <point x="741" y="116" type="curve" smooth="yes"/>
      <point x="741" y="93"/>
      <point x="756" y="75"/>
      <point x="772" y="75" type="curve" smooth="yes"/>
      <point x="798" y="75"/>
      <point x="863" y="144"/>
      <point x="908" y="213" type="curve"/>
      <point x="942" y="191" type="line"/>
      <point x="875" y="79"/>
      <point x="760" y="-24"/>
      <point x="672" y="-24" type="curve" smooth="yes"/>
      <point x="536" y="-24"/>
      <point x="579" y="99"/>
      <point x="623" y="262" type="curve"/>
      <point x="474" y="75"/>
      <point x="360" y="-24"/>
      <point x="229" y="-24" type="curve" smooth="yes"/>
      <point x="124" y="-24"/>
      <point x="47" y="67"/>
      <point x="47" y="207" type="curve" smooth="yes"/>
      <point x="47" y="537"/>
      <point x="375" y="906"/>
      <point x="603" y="906" type="curve" smooth="yes"/>
      <point x="698" y="906"/>
      <point x="741" y="854"/>
      <point x="766" y="766" type="curve"/>
      <point x="804" y="881" type="line"/>
    </contour>
    <contour>
      <point x="727" y="690" type="line" smooth="yes"/>
      <point x="727" y="826"/>
      <point x="668" y="855"/>
      <point x="603" y="855" type="curve" smooth="yes"/>
      <point x="440" y="855"/>
      <point x="207" y="493"/>
      <point x="207" y="242" type="curve" smooth="yes"/>
      <point x="207" y="142"/>
      <point x="268" y="93"/>
      <point x="319" y="93" type="curve" smooth="yes"/>
      <point x="475" y="93"/>
      <point x="727" y="402"/>
      <point x="727" y="690" type="curve" smooth="yes"/>
    </contour>
  </outline>
</glyph>
<glyph name="b" format="2">
  <advance width="879"/>
  <unicode hex="0062"/>
  <anchor x="404" y="0" name="H"/>
  <anchor x="395" y="-92" name="L"/>
  <anchor x="890" y="800" name="R"/>
  <anchor x="634" y="1453" name="U"/>
  <outline>
    <contour>
      <point x="814" y="561" type="curve"/>
      <point x="816" y="755"/>
      <point x="742" y="861"/>
      <point x="645" y="861" type="curve" smooth="yes"/>
      <point x="557" y="861"/>
      <point x="367" y="760"/>
      <point x="233" y="458" type="curve"/>
      <point x="248" y="380" type="line"/>
      <point x="337" y="584"/>
      <point x="505" y="738"/>
      <point x="555" y="738" type="curve" smooth="yes"/>
      <point x="614" y="738"/>
      <point x="681" y="657"/>
      <point x="681" y="487" type="curve" smooth="yes"/>
      <point x="681" y="404"/>
      <point x="670" y="299"/>
      <point x="614" y="210" type="curve" smooth="yes"/>
      <point x="575" y="149"/>
      <point x="510" y="79"/>
      <point x="422" y="79" type="curve" smooth="yes"/>
      <point x="337" y="79"/>
      <point x="253" y="171"/>
      <point x="253" y="235" type="curve" smooth="yes"/>
      <point x="253" y="397"/>
      <point x="397" y="1149"/>
      <point x="397" y="1322" type="curve" smooth="yes"/>
      <point x="397" y="1379"/>
      <point x="386" y="1398"/>
      <point x="352" y="1398" type="curve" smooth="yes"/>
      <point x="322" y="1398"/>
      <point x="201" y="1357"/>
      <point x="97" y="1311" type="curve"/>
      <point x="109" y="1275" type="line"/>
      <point x="109" y="1275"/>
      <point x="179" y="1299"/>
      <point x="201" y="1299" type="curve" smooth="yes"/>
      <point x="222" y="1299"/>
      <point x="250" y="1294"/>
      <point x="250" y="1238" type="curve" smooth="yes"/>
      <point x="250" y="1087"/>
      <point x="113" y="329"/>
      <point x="113" y="199" type="curve" smooth="yes"/>
      <point x="113" y="88"/>
      <point x="256" y="-37"/>
      <point x="333" y="-37" type="curve" smooth="yes"/>
      <point x="487" y="-37"/>
      <point x="609" y="62"/>
      <point x="691" y="172" type="curve" smooth="yes"/>
      <point x="780" y="296"/>
      <point x="812" y="431"/>
    </contour>
  </outline>
</glyph>
<glyph name="c" format="2">
  <advance width="910"/>
  <unicode hex="0063"/>
  <outline>
    <contour>
      <point x="359" y="-24" type="curve" smooth="yes"/>
      <point x="548" y="-24"/>
      <point x="674" y="81"/>
      <point x="796" y="217" type="curve"/>
      <point x="766" y="244" type="line"/>
      <point x="660" y="132"/>
      <point x="565" y="65"/>
      <point x="445" y="65" type="curve" smooth="yes"/>
      <point x="318" y="65"/>
      <point x="227" y="143"/>
      <point x="227" y="288" type="curve" smooth="yes"/>
      <point x="227" y="593"/>
      <point x="459" y="861"/>
      <point x="666" y="861" type="curve" smooth="yes"/>
      <point x="731" y="861"/>
      <point x="770" y="833"/>
      <point x="770" y="808" type="curve" smooth="yes" name="hr02"/>
      <point x="770" y="760"/>
      <point x="697" y="748"/>
      <point x="697" y="680" type="curve" smooth="yes" name="hr01"/>
      <point x="697" y="642"/>
      <point x="717" y="609"/>
      <point x="770" y="609" type="curve" smooth="yes"/>
      <point x="814" y="609"/>
      <point x="877" y="658"/>
      <point x="877" y="751" type="curve" smooth="yes"/>
      <point x="877" y="843"/>
      <point x="786" y="906"/>
      <point x="662" y="906" type="curve" smooth="yes"/>
      <point x="364" y="906"/>
      <point x="59" y="587"/>
      <point x="59" y="276" type="curve" smooth="yes"/>
      <point x="59" y="91"/>
      <point x="169" y="-24"/>
    </contour>
  </outline>
</glyph>
<glyph name="d" format="2">
  <advance width="1024"/>
  <unicode hex="0064"/>
  <outline>
    <contour>
      <point x="1109" y="1422" type="line"/>
      <point x="776" y="282" type="line" smooth="yes"/>
      <point x="752" y="199"/>
      <point x="735" y="126"/>
      <point x="735" y="116" type="curve" smooth="yes"/>
      <point x="735" y="99"/>
      <point x="749" y="89"/>
      <point x="764" y="89" type="curve" smooth="yes"/>
      <point x="786" y="89"/>
      <point x="857" y="151"/>
      <point x="908" y="221" type="curve"/>
      <point x="942" y="199" type="line"/>
      <point x="859" y="88"/>
      <point x="746" y="-24"/>
      <point x="666" y="-24" type="curve" smooth="yes"/>
      <point x="538" y="-24"/>
      <point x="570" y="116"/>
      <point x="650" y="343" type="curve"/>
      <point x="485" y="99"/>
      <point x="360" y="-24"/>
      <point x="229" y="-24" type="curve" smooth="yes"/>
      <point x="124" y="-24"/>
      <point x="39" y="77"/>
      <point x="39" y="217" type="curve" smooth="yes"/>
      <point x="39" y="551"/>
      <point x="379" y="906"/>
      <point x="603" y="906" type="curve" smooth="yes"/>
      <point x="698" y="906"/>
      <point x="759" y="855"/>
      <point x="780" y="808" type="curve"/>
      <point x="885" y="1172" type="line" smooth="yes"/>
      <point x="922" y="1301"/>
      <point x="926" y="1336"/>
      <point x="833" y="1336" type="curve" smooth="yes"/>
      <point x="800" y="1336"/>
      <point x="764" y="1330"/>
      <point x="764" y="1330" type="curve"/>
      <point x="764" y="1367" type="line"/>
    </contour>
    <contour>
      <point x="737" y="713" type="curve" smooth="yes"/>
      <point x="737" y="817"/>
      <point x="668" y="855"/>
      <point x="603" y="855" type="curve" smooth="yes"/>
      <point x="440" y="855"/>
      <point x="207" y="493"/>
      <point x="207" y="242" type="curve" smooth="yes"/>
      <point x="207" y="142"/>
      <point x="268" y="93"/>
      <point x="319" y="93" type="curve" smooth="yes"/>
      <point x="458" y="93"/>
      <point x="737" y="482"/>
    </contour>
  </outline>
</glyph>
<glyph name="e" format="2">
  <advance width="910"/>
  <unicode hex="0065"/>
  <outline>
    <contour>
      <point x="359" y="-24" type="curve" smooth="yes"/>
      <point x="525" y="-24"/>
      <point x="666" y="74"/>
      <point x="812" y="211" type="curve"/>
      <point x="788" y="240" type="line"/>
      <point x="617" y="104"/>
      <point x="547" y="81"/>
      <point x="463" y="81" type="curve" smooth="yes"/>
      <point x="336" y="81"/>
      <point x="238" y="162"/>
      <point x="238" y="296" type="curve" smooth="yes"/>
      <point x="238" y="323"/>
      <point x="241" y="350"/>
      <point x="244" y="376" type="curve"/>
      <point x="622" y="412"/>
      <point x="881" y="569"/>
      <point x="881" y="760" type="curve" smooth="yes"/>
      <point x="881" y="853"/>
      <point x="797" y="906"/>
      <point x="668" y="906" type="curve" smooth="yes"/>
      <point x="370" y="906"/>
      <point x="63" y="587"/>
      <point x="63" y="276" type="curve" smooth="yes"/>
      <point x="63" y="152"/>
      <point x="134" y="-24"/>
    </contour>
    <contour>
      <point x="252" y="428" type="curve"/>
      <point x="306" y="675"/>
      <point x="488" y="857"/>
      <point x="634" y="857" type="curve" smooth="yes"/>
      <point x="713" y="857"/>
      <point x="737" y="802"/>
      <point x="737" y="760" type="curve" smooth="yes"/>
      <point x="737" y="580"/>
      <point x="493" y="446"/>
    </contour>
  </outline>
</glyph>
<glyph name="f" format="2">
  <advance width="569"/>
  <unicode hex="0066"/>
  <outline>
    <contour>
      <point x="-221" y="-443" type="curve" smooth="yes"/>
      <point x="73" y="-443"/>
      <point x="245" y="14"/>
      <point x="335" y="370" type="curve" smooth="yes"/>
      <point x="447" y="816" type="line"/>
      <point x="595" y="816" type="line"/>
      <point x="613" y="881" type="line"/>
      <point x="465" y="881" type="line"/>
      <point x="544" y="1178"/>
      <point x="640" y="1381"/>
      <point x="796" y="1381" type="curve" smooth="yes"/>
      <point x="839" y="1381"/>
      <point x="843" y="1359"/>
      <point x="843" y="1352" type="curve" smooth="yes" name="hr01"/>
      <point x="843" y="1334"/>
      <point x="820" y="1318"/>
      <point x="820" y="1277" type="curve" smooth="yes"/>
      <point x="820" y="1247"/>
      <point x="843" y="1218"/>
      <point x="887" y="1218" type="curve" smooth="yes"/>
      <point x="939" y="1218"/>
      <point x="969" y="1255"/>
      <point x="969" y="1298" type="curve" smooth="yes"/>
      <point x="969" y="1370"/>
      <point x="891" y="1422"/>
      <point x="804" y="1422" type="curve" smooth="yes"/>
      <point x="598" y="1422"/>
      <point x="443" y="1200"/>
      <point x="378" y="1060" type="curve" smooth="yes"/>
      <point x="304" y="899"/>
      <point x="276" y="881"/>
      <point x="132" y="881" type="curve" name="hr04"/>
      <point x="116" y="816" type="line"/>
      <point x="292" y="816" type="line"/>
      <point x="57" y="-85" type="line" smooth="yes"/>
      <point x="13" y="-255"/>
      <point x="-71" y="-402"/>
      <point x="-201" y="-402" type="curve" smooth="yes" name="hr03"/>
      <point x="-227" y="-402"/>
      <point x="-238" y="-390"/>
      <point x="-238" y="-382" type="curve" smooth="yes" name="hr02"/>
      <point x="-238" y="-364"/>
      <point x="-201" y="-359"/>
      <point x="-201" y="-317" type="curve" smooth="yes"/>
      <point x="-201" y="-288"/>
      <point x="-229" y="-262"/>
      <point x="-264" y="-262" type="curve" smooth="yes"/>
      <point x="-321" y="-262"/>
      <point x="-353" y="-301"/>
      <point x="-353" y="-345" type="curve" smooth="yes"/>
      <point x="-353" y="-388"/>
      <point x="-307" y="-443"/>
    </contour>
  </outline>
</glyph>
<glyph name="g" format="2">
  <advance width="1024"/>
  <unicode hex="0067"/>
  <outline>
    <contour>
      <point x="1068" y="843" type="line"/>
      <point x="1038" y="739" type="line"/>
      <point x="873" y="739" type="line"/>
      <point x="884" y="708"/>
      <point x="891" y="674"/>
      <point x="891" y="636" type="curve" smooth="yes"/>
      <point x="891" y="482"/>
      <point x="759" y="305"/>
      <point x="463" y="288" type="curve"/>
      <point x="381" y="263"/>
      <point x="290" y="212"/>
      <point x="290" y="177" type="curve" smooth="yes"/>
      <point x="290" y="139"/>
      <point x="323" y="121"/>
      <point x="546" y="77" type="curve" smooth="yes"/>
      <point x="743" y="37"/>
      <point x="857" y="-16"/>
      <point x="857" y="-148" type="curve" smooth="yes" name="hr01"/>
      <point x="857" y="-357"/>
      <point x="577" y="-443"/>
      <point x="357" y="-443" type="curve" smooth="yes"/>
      <point x="136" y="-443"/>
      <point x="-55" y="-364"/>
      <point x="-55" y="-227" type="curve" smooth="yes"/>
      <point x="-55" y="-119"/>
      <point x="33" y="-60"/>
      <point x="201" y="28" type="curve"/>
      <point x="162" y="53"/>
      <point x="152" y="78"/>
      <point x="152" y="106" type="curve" smooth="yes"/>
      <point x="152" y="174"/>
      <point x="234" y="241"/>
      <point x="364" y="290" type="curve"/>
      <point x="229" y="312"/>
      <point x="124" y="408"/>
      <point x="124" y="538" type="curve" smooth="yes" name="hr02"/>
      <point x="124" y="729"/>
      <point x="307" y="906"/>
      <point x="585" y="906" type="curve" smooth="yes"/>
      <point x="672" y="906"/>
      <point x="743" y="884"/>
      <point x="796" y="843" type="curve"/>
    </contour>
    <contour>
      <point x="719" y="684" type="curve" smooth="yes"/>
      <point x="719" y="806"/>
      <point x="643" y="859"/>
      <point x="558" y="859" type="curve" smooth="yes"/>
      <point x="420" y="859"/>
      <point x="299" y="693"/>
      <point x="299" y="506" type="curve" smooth="yes"/>
      <point x="299" y="402"/>
      <point x="368" y="335"/>
      <point x="461" y="335" type="curve" smooth="yes"/>
      <point x="608" y="335"/>
      <point x="719" y="506"/>
    </contour>
    <contour>
      <point x="735" y="-209" type="curve" smooth="yes" name="hr03"/>
      <point x="735" y="-132"/>
      <point x="670" y="-95"/>
      <point x="431" y="-47" type="curve" smooth="yes"/>
      <point x="348" y="-31"/>
      <point x="286" y="-15"/>
      <point x="244" y="2" type="curve"/>
      <point x="122" y="-50"/>
      <point x="75" y="-152"/>
      <point x="75" y="-211" type="curve" smooth="yes"/>
      <point x="75" y="-286"/>
      <point x="158" y="-380"/>
      <point x="388" y="-380" type="curve" smooth="yes"/>
      <point x="619" y="-380"/>
      <point x="735" y="-288"/>
    </contour>
  </outline>
</glyph>
<glyph name="h" format="2">
  <advance width="931"/>
  <unicode hex="0068"/>
  <anchor x="145" y="0" name="H"/>
  <anchor x="390" y="-92" name="L"/>
  <anchor x="604" y="1453" name="U"/>
  <outline>
    <contour>
      <point x="891" y="66" type="curve"/>
      <point x="877" y="100" type="line"/>
      <point x="832" y="80"/>
      <point x="796" y="69"/>
      <point x="762" y="69" type="curve" smooth="yes"/>
      <point x="747" y="69"/>
      <point x="729" y="82"/>
      <point x="729" y="124" type="curve" smooth="yes"/>
      <point x="729" y="226"/>
      <point x="808" y="571"/>
      <point x="808" y="699" type="curve" smooth="yes"/>
      <point x="808" y="817"/>
      <point x="778" y="861"/>
      <point x="701" y="861" type="curve" smooth="yes"/>
      <point x="591" y="861"/>
      <point x="454" y="800"/>
      <point x="310" y="623" type="curve"/>
      <point x="333" y="757"/>
      <point x="406" y="1235"/>
      <point x="406" y="1322" type="curve" smooth="yes"/>
      <point x="406" y="1379"/>
      <point x="386" y="1398"/>
      <point x="352" y="1398" type="curve" smooth="yes"/>
      <point x="320" y="1398"/>
      <point x="207" y="1357"/>
      <point x="103" y="1311" type="curve"/>
      <point x="115" y="1275" type="line"/>
      <point x="139" y="1282"/>
      <point x="200" y="1299"/>
      <point x="220" y="1299" type="curve" smooth="yes"/>
      <point x="241" y="1299"/>
      <point x="258" y="1294"/>
      <point x="258" y="1238" type="curve" smooth="yes"/>
      <point x="258" y="1081"/>
      <point x="124" y="253"/>
      <point x="79" y="-9" type="curve"/>
      <point x="109" y="-37" type="line"/>
      <point x="139" y="-21"/>
      <point x="208" y="9"/>
      <point x="241" y="23" type="curve"/>
      <point x="241" y="75"/>
      <point x="242" y="141"/>
      <point x="262" y="276" type="curve" smooth="yes"/>
      <point x="277" y="386"/>
      <point x="298" y="477"/>
      <point x="333" y="535" type="curve" smooth="yes"/>
      <point x="426" y="691"/>
      <point x="571" y="767"/>
      <point x="602" y="767" type="curve" smooth="yes"/>
      <point x="655" y="767"/>
      <point x="667" y="736"/>
      <point x="667" y="644" type="curve" smooth="yes"/>
      <point x="667" y="561"/>
      <point x="587" y="135"/>
      <point x="587" y="69" type="curve" smooth="yes"/>
      <point x="587" y="3"/>
      <point x="620" y="-37"/>
      <point x="655" y="-37" type="curve" smooth="yes"/>
      <point x="706" y="-37"/>
      <point x="778" y="0"/>
    </contour>
  </outline>
</glyph>
<glyph name="i" format="2">
  <advance width="569"/>
  <unicode hex="0069"/>
  <outline>
    <contour>
      <point x="575" y="1204" type="line" smooth="yes"/>
      <point x="575" y="1148"/>
      <point x="533" y="1103"/>
      <point x="477" y="1103" type="curve" smooth="yes"/>
      <point x="421" y="1103"/>
      <point x="376" y="1148"/>
      <point x="376" y="1204" type="curve" smooth="yes"/>
      <point x="376" y="1260"/>
      <point x="421" y="1302"/>
      <point x="477" y="1302" type="curve" smooth="yes"/>
      <point x="533" y="1302"/>
      <point x="575" y="1260"/>
      <point x="575" y="1204" type="curve" smooth="yes"/>
    </contour>
    <contour>
      <point x="489" y="205" type="line"/>
      <point x="416" y="91"/>
      <point x="300" y="-24"/>
      <point x="199" y="-24" type="curve" smooth="yes"/>
      <point x="127" y="-24"/>
      <point x="106" y="17"/>
      <point x="106" y="67" type="curve" smooth="yes"/>
      <point x="106" y="112"/>
      <point x="123" y="165"/>
      <point x="134" y="201" type="curve" smooth="yes"/>
      <point x="268" y="654" type="line" smooth="yes"/>
      <point x="283" y="704"/>
      <point x="292" y="740"/>
      <point x="292" y="766" type="curve" smooth="yes"/>
      <point x="292" y="804"/>
      <point x="274" y="822"/>
      <point x="234" y="822" type="curve" smooth="yes"/>
      <point x="201" y="822"/>
      <point x="144" y="812"/>
      <point x="144" y="812" type="curve"/>
      <point x="144" y="849" type="line"/>
      <point x="489" y="906" type="line"/>
      <point x="288" y="201" type="line" smooth="yes"/>
      <point x="279" y="169"/>
      <point x="272" y="141"/>
      <point x="272" y="120" type="curve" smooth="yes"/>
      <point x="272" y="98"/>
      <point x="279" y="85"/>
      <point x="301" y="85" type="curve" smooth="yes"/>
      <point x="334" y="85"/>
      <point x="410" y="158"/>
      <point x="455" y="227" type="curve"/>
    </contour>
  </outline>
</glyph>
<glyph name="j" format="2">
  <advance width="569"/>
  <unicode hex="006A"/>
  <outline>
    <contour>
      <point x="-221" y="-443" type="curve" smooth="yes"/>
      <point x="75" y="-443"/>
      <point x="187" y="-134"/>
      <point x="244" y="63" type="curve" smooth="yes"/>
      <point x="491" y="906" type="line"/>
      <point x="142" y="849" type="line"/>
      <point x="142" y="812" type="line"/>
      <point x="142" y="812"/>
      <point x="199" y="822"/>
      <point x="232" y="822" type="curve" smooth="yes"/>
      <point x="299" y="822"/>
      <point x="301" y="775"/>
      <point x="266" y="654" type="curve" smooth="yes"/>
      <point x="35" y="-130" type="line" smooth="yes"/>
      <point x="2" y="-245"/>
      <point x="-45" y="-396"/>
      <point x="-209" y="-396" type="curve" smooth="yes"/>
      <point x="-227" y="-396"/>
      <point x="-238" y="-392"/>
      <point x="-238" y="-384" type="curve" smooth="yes" name="hr01"/>
      <point x="-238" y="-366"/>
      <point x="-199" y="-359"/>
      <point x="-199" y="-317" type="curve" smooth="yes"/>
      <point x="-199" y="-288"/>
      <point x="-232" y="-266"/>
      <point x="-268" y="-266" type="curve" smooth="yes"/>
      <point x="-303" y="-266"/>
      <point x="-349" y="-301"/>
      <point x="-349" y="-345" type="curve" smooth="yes"/>
      <point x="-349" y="-388"/>
      <point x="-307" y="-443"/>
    </contour>
    <contour>
      <point x="475" y="1103" type="curve" smooth="yes"/>
      <point x="531" y="1103"/>
      <point x="573" y="1148"/>
      <point x="573" y="1204" type="curve" smooth="yes"/>
      <point x="573" y="1260"/>
      <point x="531" y="1302"/>
      <point x="475" y="1302" type="curve" smooth="yes"/>
      <point x="419" y="1302"/>
      <point x="374" y="1260"/>
      <point x="374" y="1204" type="curve" smooth="yes"/>
      <point x="374" y="1148"/>
      <point x="419" y="1103"/>
    </contour>
  </outline>
</glyph>
<glyph name="k" format="2">
  <advance width="910"/>
  <unicode hex="006B"/>
  <outline>
    <contour>
      <point x="623" y="-24" type="curve" smooth="yes"/>
      <point x="696" y="-24"/>
      <point x="786" y="55"/>
      <point x="891" y="199" type="curve"/>
      <point x="857" y="225" type="line"/>
      <point x="810" y="158"/>
      <point x="742" y="87"/>
      <point x="709" y="87" type="curve" smooth="yes"/>
      <point x="676" y="87"/>
      <point x="666" y="116"/>
      <point x="628" y="254" type="curve" smooth="yes"/>
      <point x="540" y="581" type="line"/>
      <point x="770" y="792"/>
      <point x="860" y="843"/>
      <point x="993" y="843" type="curve"/>
      <point x="1005" y="881" type="line"/>
      <point x="563" y="881" type="line"/>
      <point x="556" y="843" type="line"/>
      <point x="669" y="843"/>
      <point x="680" y="834"/>
      <point x="680" y="810" type="curve" smooth="yes"/>
      <point x="680" y="782"/>
      <point x="640" y="730"/>
      <point x="571" y="670" type="curve" smooth="yes"/>
      <point x="301" y="433" type="line"/>
      <point x="587" y="1424" type="line"/>
      <point x="240" y="1365" type="line"/>
      <point x="240" y="1328" type="line"/>
      <point x="240" y="1328"/>
      <point x="278" y="1336"/>
      <point x="311" y="1336" type="curve" smooth="yes"/>
      <point x="407" y="1336"/>
      <point x="394" y="1274"/>
      <point x="364" y="1172" type="curve" smooth="yes"/>
      <point x="28" y="0" type="line"/>
      <point x="177" y="0" type="line"/>
      <point x="278" y="347" type="line"/>
      <point x="420" y="471" type="line"/>
      <point x="500" y="148" type="line" smooth="yes"/>
      <point x="537" y="-1"/>
      <point x="569" y="-24"/>
    </contour>
  </outline>
</glyph>
<glyph name="l" format="2">
  <advance width="569"/>
  <unicode hex="006C"/>
  <outline>
    <contour>
      <point x="171" y="-24" type="curve" smooth="yes"/>
      <point x="273" y="-24"/>
      <point x="388" y="91"/>
      <point x="461" y="205" type="curve"/>
      <point x="428" y="227" type="line"/>
      <point x="382" y="158"/>
      <point x="306" y="85"/>
      <point x="274" y="85" type="curve" smooth="yes"/>
      <point x="252" y="85"/>
      <point x="244" y="98"/>
      <point x="244" y="120" type="curve" smooth="yes"/>
      <point x="244" y="140"/>
      <point x="250" y="167"/>
      <point x="260" y="201" type="curve" smooth="yes"/>
      <point x="611" y="1424" type="line"/>
      <point x="268" y="1367" type="line"/>
      <point x="268" y="1330" type="line"/>
      <point x="268" y="1330"/>
      <point x="302" y="1336"/>
      <point x="335" y="1336" type="curve" smooth="yes"/>
      <point x="396" y="1336"/>
      <point x="416" y="1313"/>
      <point x="416" y="1279" type="curve" smooth="yes"/>
      <point x="416" y="1250"/>
      <point x="402" y="1213"/>
      <point x="390" y="1172" type="curve" smooth="yes"/>
      <point x="108" y="201" type="line" smooth="yes"/>
      <point x="94" y="151"/>
      <point x="83" y="103"/>
      <point x="83" y="65" type="curve" smooth="yes"/>
      <point x="83" y="11"/>
      <point x="105" y="-24"/>
    </contour>
  </outline>
</glyph>
<glyph name="m" format="2">
  <advance width="1358"/>
  <unicode hex="006D"/>
  <anchor x="1078" y="0" name="H"/>
  <anchor x="609" y="-92" name="L"/>
  <anchor x="747" y="920" name="U"/>
  <outline>
    <contour>
      <point x="1299" y="66" type="curve"/>
      <point x="1290" y="100" type="line"/>
      <point x="1240" y="80"/>
      <point x="1209" y="71"/>
      <point x="1173" y="71" type="curve" smooth="yes"/>
      <point x="1152" y="71"/>
      <point x="1139" y="82"/>
      <point x="1139" y="124" type="curve" smooth="yes"/>
      <point x="1139" y="226"/>
      <point x="1220" y="559"/>
      <point x="1220" y="699" type="curve" smooth="yes"/>
      <point x="1220" y="817"/>
      <point x="1173" y="861"/>
      <point x="1102" y="861" type="curve" smooth="yes"/>
      <point x="1010" y="861"/>
      <point x="917" y="796"/>
      <point x="774" y="632" type="curve"/>
      <point x="776" y="659"/>
      <point x="778" y="676"/>
      <point x="778" y="699" type="curve" smooth="yes"/>
      <point x="778" y="780"/>
      <point x="753" y="861"/>
      <point x="661" y="861" type="curve" smooth="yes"/>
      <point x="561" y="861"/>
      <point x="456" y="796"/>
      <point x="310" y="623" type="curve"/>
      <point x="314" y="668"/>
      <point x="322" y="729"/>
      <point x="322" y="755" type="curve" smooth="yes"/>
      <point x="322" y="841"/>
      <point x="318" y="861"/>
      <point x="280" y="861" type="curve" smooth="yes"/>
      <point x="250" y="861"/>
      <point x="141" y="819"/>
      <point x="37" y="774" type="curve"/>
      <point x="48" y="738" type="line"/>
      <point x="48" y="738"/>
      <point x="124" y="762"/>
      <point x="147" y="762" type="curve" smooth="yes"/>
      <point x="167" y="762"/>
      <point x="183" y="755"/>
      <point x="183" y="699" type="curve" smooth="yes"/>
      <point x="183" y="593"/>
      <point x="129" y="250"/>
      <point x="79" y="-9" type="curve"/>
      <point x="109" y="-37" type="line"/>
      <point x="139" y="-21"/>
      <point x="208" y="5"/>
      <point x="241" y="23" type="curve"/>
      <point x="239" y="80"/>
      <point x="242" y="160"/>
      <point x="262" y="271" type="curve" smooth="yes"/>
      <point x="282" y="390"/>
      <point x="299" y="474"/>
      <point x="350" y="553" type="curve" smooth="yes"/>
      <point x="444" y="704"/>
      <point x="552" y="767"/>
      <point x="584" y="767" type="curve" smooth="yes"/>
      <point x="618" y="767"/>
      <point x="638" y="736"/>
      <point x="638" y="644" type="curve" smooth="yes"/>
      <point x="638" y="553"/>
      <point x="587" y="241"/>
      <point x="533" y="-9" type="curve"/>
      <point x="563" y="-37" type="line"/>
      <point x="595" y="-21"/>
      <point x="665" y="5"/>
      <point x="699" y="23" type="curve"/>
      <point x="695" y="82"/>
      <point x="699" y="160"/>
      <point x="715" y="271" type="curve" smooth="yes"/>
      <point x="735" y="388"/>
      <point x="746" y="467"/>
      <point x="800" y="552" type="curve" smooth="yes"/>
      <point x="897" y="702"/>
      <point x="998" y="767"/>
      <point x="1044" y="767" type="curve" smooth="yes"/>
      <point x="1066" y="767"/>
      <point x="1083" y="736"/>
      <point x="1083" y="661" type="curve" smooth="yes"/>
      <point x="1083" y="539"/>
      <point x="998" y="135"/>
      <point x="998" y="69" type="curve" smooth="yes"/>
      <point x="998" y="3"/>
      <point x="1026" y="-37"/>
      <point x="1062" y="-37" type="curve" smooth="yes"/>
      <point x="1115" y="-37"/>
      <point x="1186" y="0"/>
    </contour>
  </outline>
</glyph>
<glyph name="n" format="2">
  <advance width="1024"/>
  <unicode hex="006E"/>
  <outline>
    <contour>
      <point x="940" y="203" type="line"/>
      <point x="835" y="59"/>
      <point x="740" y="-24"/>
      <point x="666" y="-24" type="curve" smooth="yes"/>
      <point x="569" y="-24"/>
      <point x="564" y="54"/>
      <point x="607" y="201" type="curve" smooth="yes"/>
      <point x="735" y="642" type="line" smooth="yes"/>
      <point x="744" y="674"/>
      <point x="782" y="786"/>
      <point x="707" y="786" type="curve" smooth="yes"/>
      <point x="550" y="786"/>
      <point x="295" y="351"/>
      <point x="236" y="154" type="curve" smooth="yes"/>
      <point x="191" y="0" type="line"/>
      <point x="41" y="0" type="line"/>
      <point x="229" y="654" type="line" smooth="yes"/>
      <point x="258" y="756"/>
      <point x="273" y="818"/>
      <point x="177" y="818" type="curve" smooth="yes"/>
      <point x="144" y="818"/>
      <point x="106" y="810"/>
      <point x="106" y="810" type="curve"/>
      <point x="106" y="847" type="line"/>
      <point x="453" y="906" type="line"/>
      <point x="319" y="451" type="line"/>
      <point x="512" y="739"/>
      <point x="645" y="906"/>
      <point x="804" y="906" type="curve" smooth="yes"/>
      <point x="941" y="906"/>
      <point x="915" y="740"/>
      <point x="894" y="668" type="curve" smooth="yes"/>
      <point x="760" y="201" type="line" smooth="yes"/>
      <point x="739" y="127"/>
      <point x="719" y="91"/>
      <point x="768" y="91" type="curve" smooth="yes"/>
      <point x="801" y="91"/>
      <point x="863" y="158"/>
      <point x="910" y="225" type="curve"/>
    </contour>
  </outline>
</glyph>
<glyph name="o" format="2">
  <advance width="1024"/>
  <unicode hex="006F"/>
  <outline>
    <contour>
      <point x="359" y="-24" type="curve" smooth="yes"/>
      <point x="678" y="-24"/>
      <point x="950" y="284"/>
      <point x="950" y="589" type="curve" smooth="yes"/>
      <point x="950" y="766"/>
      <point x="827" y="906"/>
      <point x="642" y="906" type="curve" smooth="yes"/>
      <point x="364" y="906"/>
      <point x="59" y="613"/>
      <point x="59" y="297" type="curve" smooth="yes"/>
      <point x="59" y="124"/>
      <point x="164" y="-24"/>
    </contour>
    <contour>
      <point x="392" y="28" type="curve" smooth="yes"/>
      <point x="273" y="28"/>
      <point x="223" y="120"/>
      <point x="223" y="225" type="curve" smooth="yes"/>
      <point x="223" y="522"/>
      <point x="428" y="855"/>
      <point x="619" y="855" type="curve" smooth="yes"/>
      <point x="711" y="855"/>
      <point x="780" y="784"/>
      <point x="780" y="662" type="curve" smooth="yes"/>
      <point x="780" y="339"/>
      <point x="569" y="28"/>
    </contour>
  </outline>
</glyph>
<glyph name="p" format="2">
  <advance width="1024"/>
  <unicode hex="0070"/>
  <outline>
    <contour>
      <point x="-225" y="-439" type="line"/>
      <point x="244" y="-439" type="line"/>
      <point x="254" y="-402" type="line"/>
      <point x="77" y="-402"/>
      <point x="90" y="-349"/>
      <point x="118" y="-250" type="curve" smooth="yes"/>
      <point x="197" y="28" type="line"/>
      <point x="260" y="-10"/>
      <point x="309" y="-24"/>
      <point x="378" y="-24" type="curve" smooth="yes"/>
      <point x="715" y="-24"/>
      <point x="969" y="386"/>
      <point x="969" y="654" type="curve" smooth="yes"/>
      <point x="969" y="794"/>
      <point x="870" y="906"/>
      <point x="762" y="906" type="curve" smooth="yes"/>
      <point x="631" y="906"/>
      <point x="520" y="839"/>
      <point x="382" y="674" type="curve"/>
      <point x="453" y="906" type="line"/>
      <point x="106" y="847" type="line"/>
      <point x="106" y="810" type="line"/>
      <point x="106" y="810"/>
      <point x="144" y="818"/>
      <point x="177" y="818" type="curve" smooth="yes"/>
      <point x="273" y="818"/>
      <point x="263" y="767"/>
      <point x="215" y="601" type="curve" smooth="yes"/>
      <point x="-32" y="-246" type="line" smooth="yes"/>
      <point x="-62" y="-350"/>
      <point x="-83" y="-402"/>
      <point x="-215" y="-402" type="curve"/>
    </contour>
    <contour>
      <point x="388" y="32" type="curve" smooth="yes"/>
      <point x="323" y="32"/>
      <point x="252" y="55"/>
      <point x="221" y="104" type="curve"/>
      <point x="246" y="194"/>
      <point x="305" y="400"/>
      <point x="305" y="400" type="curve"/>
      <point x="375" y="644"/>
      <point x="534" y="818"/>
      <point x="676" y="818" type="curve" smooth="yes"/>
      <point x="743" y="818"/>
      <point x="798" y="753"/>
      <point x="798" y="652" type="curve" smooth="yes"/>
      <point x="798" y="402"/>
      <point x="605" y="32"/>
    </contour>
  </outline>
</glyph>
<glyph name="q" format="2">
  <advance width="844"/>
  <unicode hex="0071"/>
  <anchor x="243" y="-92" name="L"/>
  <anchor x="875" y="800" name="R"/>
  <anchor x="483" y="920" name="U"/>
  <outline>
    <contour>
      <point x="762" y="780" type="curve"/>
      <point x="721" y="785"/>
      <point x="645" y="861"/>
      <point x="563" y="861" type="curve" smooth="yes"/>
      <point x="485" y="861"/>
      <point x="393" y="819"/>
      <point x="325" y="774" type="curve" smooth="yes"/>
      <point x="152" y="661"/>
      <point x="48" y="474"/>
      <point x="48" y="280" type="curve" smooth="yes"/>
      <point x="48" y="50"/>
      <point x="172" y="-37"/>
      <point x="253" y="-37" type="curve" smooth="yes"/>
      <point x="352" y="-37"/>
      <point x="469" y="97"/>
      <point x="555" y="241" type="curve"/>
      <point x="587" y="413" type="line"/>
      <point x="503" y="258"/>
      <point x="386" y="88"/>
      <point x="320" y="88" type="curve" smooth="yes"/>
      <point x="248" y="88"/>
      <point x="167" y="190"/>
      <point x="167" y="348" type="curve" smooth="yes"/>
      <point x="167" y="494"/>
      <point x="303" y="764"/>
      <point x="471" y="764" type="curve" smooth="yes"/>
      <point x="582" y="764"/>
      <point x="655" y="663"/>
      <point x="688" y="663" type="curve" smooth="yes"/>
      <point x="717" y="663"/>
      <point x="710" y="744"/>
    </contour>
    <contour>
      <point x="823" y="828" type="curve"/>
      <point x="802" y="861" type="line"/>
      <point x="719" y="821"/>
      <point x="640" y="764"/>
      <point x="631" y="708" type="curve" smooth="yes"/>
      <point x="559" y="278"/>
      <point x="468" y="-292"/>
      <point x="448" y="-433" type="curve"/>
      <point x="481" y="-460" type="line"/>
      <point x="511" y="-445"/>
      <point x="585" y="-421"/>
      <point x="618" y="-411" type="curve"/>
      <point x="578" y="-330"/>
      <point x="673" y="210"/>
      <point x="755" y="699" type="curve" smooth="yes"/>
      <point x="769" y="782"/>
      <point x="782" y="794"/>
    </contour>
  </outline>
</glyph>
<glyph name="r" format="2">
  <advance width="798"/>
  <unicode hex="0072"/>
  <outline>
    <contour>
      <point x="41" y="0" type="line"/>
      <point x="191" y="0" type="line"/>
      <point x="234" y="244"/>
      <point x="358" y="476"/>
      <point x="540" y="684" type="curve" smooth="yes"/>
      <point x="591" y="742"/>
      <point x="605" y="753"/>
      <point x="634" y="753" type="curve" smooth="yes"/>
      <point x="686" y="753"/>
      <point x="637" y="658"/>
      <point x="723" y="658" type="curve" smooth="yes"/>
      <point x="798" y="658"/>
      <point x="826" y="780"/>
      <point x="826" y="831" type="curve" smooth="yes"/>
      <point x="826" y="883"/>
      <point x="795" y="906"/>
      <point x="759" y="906" type="curve" smooth="yes"/>
      <point x="714" y="906"/>
      <point x="569" y="869"/>
      <point x="311" y="430" type="curve"/>
      <point x="453" y="906" type="line"/>
      <point x="106" y="847" type="line"/>
      <point x="106" y="810" type="line"/>
      <point x="106" y="810"/>
      <point x="144" y="818"/>
      <point x="177" y="818" type="curve" smooth="yes"/>
      <point x="273" y="818"/>
      <point x="258" y="756"/>
      <point x="229" y="654" type="curve" smooth="yes"/>
    </contour>
  </outline>
</glyph>
<glyph name="s" format="2">
  <advance width="654"/>
  <unicode hex="0073"/>
  <anchor x="266" y="0" name="H"/>
  <anchor x="263" y="-92" name="L"/>
  <anchor x="402" y="920" name="U"/>
  <outline>
    <contour>
      <point x="642" y="776" type="curve"/>
      <point x="591" y="791"/>
      <point x="550" y="861"/>
      <point x="425" y="861" type="curve" smooth="yes"/>
      <point x="280" y="861"/>
      <point x="113" y="755"/>
      <point x="113" y="600" type="curve" smooth="yes"/>
      <point x="113" y="521"/>
      <point x="156" y="461"/>
      <point x="286" y="401" type="curve" smooth="yes"/>
      <point x="379" y="357"/>
      <point x="463" y="299"/>
      <point x="463" y="205" type="curve" smooth="yes"/>
      <point x="463" y="120"/>
      <point x="391" y="50"/>
      <point x="305" y="50" type="curve" smooth="yes"/>
      <point x="143" y="50"/>
      <point x="115" y="205"/>
      <point x="90" y="205" type="curve" smooth="yes"/>
      <point x="64" y="205"/>
      <point x="-3" y="116"/>
      <point x="-3" y="90" type="curve" smooth="yes"/>
      <point x="-3" y="37"/>
      <point x="116" y="-37"/>
      <point x="231" y="-37" type="curve" smooth="yes"/>
      <point x="391" y="-37"/>
      <point x="584" y="95"/>
      <point x="584" y="265" type="curve" smooth="yes"/>
      <point x="584" y="395"/>
      <point x="474" y="467"/>
      <point x="373" y="514" type="curve" smooth="yes"/>
      <point x="275" y="560"/>
      <point x="237" y="609"/>
      <point x="237" y="652" type="curve" smooth="yes"/>
      <point x="237" y="731"/>
      <point x="309" y="783"/>
      <point x="377" y="783" type="curve" smooth="yes"/>
      <point x="458" y="783"/>
      <point x="494" y="681"/>
      <point x="525" y="681" type="curve" smooth="yes"/>
      <point x="542" y="681"/>
      <point x="593" y="721"/>
    </contour>
  </outline>
</glyph>
<glyph name="t" format="2">
  <advance width="569"/>
  <unicode hex="0074"/>
  <outline>
    <contour>
      <point x="615" y="881" type="line"/>
      <point x="597" y="818" type="line"/>
      <point x="441" y="818" type="line"/>
      <point x="258" y="199" type="line" smooth="yes"/>
      <point x="249" y="170"/>
      <point x="240" y="135"/>
      <point x="240" y="108" type="curve" smooth="yes"/>
      <point x="240" y="84"/>
      <point x="248" y="67"/>
      <point x="270" y="67" type="curve" smooth="yes"/>
      <point x="303" y="67"/>
      <point x="392" y="156"/>
      <point x="437" y="225" type="curve"/>
      <point x="471" y="203" type="line"/>
      <point x="398" y="89"/>
      <point x="291" y="-26"/>
      <point x="189" y="-26" type="curve" smooth="yes"/>
      <point x="107" y="-26"/>
      <point x="85" y="24"/>
      <point x="85" y="83" type="curve" smooth="yes"/>
      <point x="85" y="122"/>
      <point x="94" y="165"/>
      <point x="104" y="199" type="curve" smooth="yes"/>
      <point x="288" y="818" type="line"/>
      <point x="136" y="818" type="line"/>
      <point x="146" y="857" type="line"/>
      <point x="309" y="900"/>
      <point x="388" y="989"/>
      <point x="493" y="1155" type="curve" name="hr01"/>
      <point x="534" y="1155" type="line"/>
      <point x="457" y="881" type="line" name="hr02"/>
    </contour>
  </outline>
</glyph>
<glyph name="u" format="2">
  <advance width="1024"/>
  <unicode hex="0075"/>
  <outline>
    <contour>
      <point x="201" y="-24" type="curve" smooth="yes"/>
      <point x="371" y="-24"/>
      <point x="552" y="219"/>
      <point x="699" y="469" type="curve"/>
      <point x="638" y="260" type="line" smooth="yes"/>
      <point x="595" y="110"/>
      <point x="561" y="-24"/>
      <point x="676" y="-24" type="curve" smooth="yes"/>
      <point x="777" y="-24"/>
      <point x="871" y="79"/>
      <point x="946" y="199" type="curve"/>
      <point x="916" y="221" type="line"/>
      <point x="849" y="130"/>
      <point x="809" y="83"/>
      <point x="776" y="83" type="curve" smooth="yes"/>
      <point x="728" y="83"/>
      <point x="765" y="202"/>
      <point x="790" y="286" type="curve" smooth="yes"/>
      <point x="965" y="881" type="line"/>
      <point x="814" y="881" type="line"/>
      <point x="758" y="682"/>
      <point x="716" y="561"/>
      <point x="642" y="447" type="curve" smooth="yes"/>
      <point x="487" y="207"/>
      <point x="372" y="97"/>
      <point x="294" y="97" type="curve" smooth="yes" name="hr01"/>
      <point x="234" y="97"/>
      <point x="243" y="148"/>
      <point x="266" y="229" type="curve" smooth="yes"/>
      <point x="396" y="682" type="line" smooth="yes"/>
      <point x="418" y="759"/>
      <point x="455" y="906"/>
      <point x="335" y="906" type="curve" smooth="yes"/>
      <point x="233" y="906"/>
      <point x="128" y="794"/>
      <point x="59" y="692" type="curve"/>
      <point x="93" y="670" type="line"/>
      <point x="160" y="757"/>
      <point x="194" y="796"/>
      <point x="227" y="796" type="curve" smooth="yes"/>
      <point x="266" y="796"/>
      <point x="255" y="751"/>
      <point x="236" y="682" type="curve" smooth="yes"/>
      <point x="132" y="299" type="line" smooth="yes"/>
      <point x="108" y="212"/>
      <point x="33" y="-24"/>
    </contour>
  </outline>
</glyph>
<glyph name="v" format="2">
  <advance width="910"/>
  <unicode hex="0076"/>
  <outline>
    <contour>
      <point x="305" y="-24" type="curve"/>
      <point x="343" y="-24" type="line"/>
      <point x="518" y="152"/>
      <point x="906" y="556"/>
      <point x="906" y="784" type="curve" smooth="yes"/>
      <point x="906" y="861"/>
      <point x="851" y="906"/>
      <point x="802" y="906" type="curve" smooth="yes"/>
      <point x="753" y="906"/>
      <point x="715" y="867"/>
      <point x="715" y="826" type="curve" smooth="yes" name="hr02"/>
      <point x="715" y="747"/>
      <point x="810" y="739"/>
      <point x="810" y="688" type="curve" smooth="yes" name="hr01"/>
      <point x="810" y="646"/>
      <point x="794" y="544"/>
      <point x="449" y="156" type="curve"/>
      <point x="433" y="471"/>
      <point x="408" y="737"/>
      <point x="335" y="906" type="curve"/>
      <point x="43" y="843" type="line"/>
      <point x="49" y="810" type="line"/>
      <point x="49" y="810"/>
      <point x="95" y="818"/>
      <point x="120" y="818" type="curve" smooth="yes"/>
      <point x="233" y="818"/>
      <point x="274" y="664"/>
    </contour>
  </outline>
</glyph>
<glyph name="w" format="2">
  <advance width="1367"/>
  <unicode hex="0077"/>
  <outline>
    <contour>
      <point x="278" y="-24" type="curve" name="hr01"/>
      <point x="321" y="-24" type="line" smooth="yes"/>
      <point x="323" y="-24"/>
      <point x="735" y="670"/>
      <point x="735" y="670" type="curve"/>
      <point x="802" y="-24" type="line"/>
      <point x="837" y="-24" type="line"/>
      <point x="1054" y="219"/>
      <point x="1355" y="589"/>
      <point x="1355" y="794" type="curve" smooth="yes"/>
      <point x="1355" y="871"/>
      <point x="1306" y="906"/>
      <point x="1257" y="906" type="curve" smooth="yes"/>
      <point x="1208" y="906"/>
      <point x="1176" y="873"/>
      <point x="1176" y="831" type="curve" smooth="yes" name="hr03"/>
      <point x="1176" y="752"/>
      <point x="1269" y="761"/>
      <point x="1269" y="692" type="curve" smooth="yes"/>
      <point x="1269" y="650"/>
      <point x="1196" y="473"/>
      <point x="928" y="156" type="curve"/>
      <point x="859" y="906" type="line"/>
      <point x="822" y="906" type="line"/>
      <point x="408" y="225" type="line" name="hr02"/>
      <point x="392" y="540"/>
      <point x="382" y="731"/>
      <point x="323" y="906" type="curve"/>
      <point x="35" y="839" type="line"/>
      <point x="35" y="804" type="line"/>
      <point x="35" y="804"/>
      <point x="83" y="810"/>
      <point x="108" y="810" type="curve" smooth="yes"/>
      <point x="221" y="810"/>
      <point x="264" y="731"/>
    </contour>
  </outline>
</glyph>
<glyph name="x" format="2">
  <advance width="828"/>
  <unicode hex="0078"/>
  <anchor x="607" y="0" name="H"/>
  <anchor x="368" y="-92" name="L"/>
  <anchor x="506" y="920" name="U"/>
  <outline>
    <contour>
      <point x="821" y="812" type="curve"/>
      <point x="821" y="838"/>
      <point x="800" y="861"/>
      <point x="742" y="861" type="curve" smooth="yes"/>
      <point x="712" y="861"/>
      <point x="645" y="855"/>
      <point x="564" y="838" type="curve"/>
      <point x="566" y="800" type="line"/>
      <point x="583" y="802"/>
      <point x="597" y="803"/>
      <point x="608" y="803" type="curve" smooth="yes"/>
      <point x="649" y="803"/>
      <point x="655" y="791"/>
      <point x="655" y="770" type="curve" smooth="yes"/>
      <point x="655" y="751"/>
      <point x="537" y="582"/>
      <point x="427" y="456" type="curve"/>
      <point x="460" y="377" type="line"/>
      <point x="695" y="634"/>
      <point x="821" y="762"/>
    </contour>
    <contour>
      <point x="806" y="66" type="curve"/>
      <point x="791" y="100" type="line"/>
      <point x="746" y="77"/>
      <point x="708" y="69"/>
      <point x="679" y="69" type="curve" smooth="yes"/>
      <point x="555" y="69"/>
      <point x="380" y="861"/>
      <point x="244" y="861" type="curve" smooth="yes"/>
      <point x="218" y="861"/>
      <point x="91" y="803"/>
      <point x="24" y="772" type="curve"/>
      <point x="37" y="736" type="line"/>
      <point x="67" y="745"/>
      <point x="136" y="760"/>
      <point x="152" y="760" type="curve" smooth="yes"/>
      <point x="280" y="760"/>
      <point x="438" y="-37"/>
      <point x="600" y="-37" type="curve" smooth="yes"/>
      <point x="648" y="-37"/>
      <point x="701" y="-7"/>
    </contour>
    <contour>
      <point x="402" y="339" type="curve"/>
      <point x="373" y="422" type="line"/>
      <point x="264" y="287"/>
      <point x="93" y="100"/>
      <point x="-26" y="-5" type="curve"/>
      <point x="-5" y="-37" type="line"/>
      <point x="39" y="-24"/>
      <point x="102" y="-14"/>
      <point x="147" y="-9" type="curve"/>
      <point x="244" y="138"/>
      <point x="352" y="266"/>
    </contour>
  </outline>
</glyph>
<glyph name="y" format="2">
  <advance width="910"/>
  <unicode hex="0079"/>
  <outline>
    <contour>
      <point x="-83" y="-443" type="curve" smooth="yes"/>
      <point x="63" y="-443"/>
      <point x="252" y="-209"/>
      <point x="451" y="33" type="curve" smooth="yes"/>
      <point x="650" y="276"/>
      <point x="902" y="594"/>
      <point x="902" y="768" type="curve" smooth="yes"/>
      <point x="902" y="845"/>
      <point x="859" y="906"/>
      <point x="800" y="906" type="curve" smooth="yes"/>
      <point x="745" y="906"/>
      <point x="713" y="871"/>
      <point x="713" y="812" type="curve" smooth="yes" name="hr03"/>
      <point x="713" y="701"/>
      <point x="826" y="737"/>
      <point x="826" y="680" type="curve" smooth="yes"/>
      <point x="826" y="638"/>
      <point x="713" y="440"/>
      <point x="449" y="106" type="curve"/>
      <point x="415" y="505"/>
      <point x="395" y="735"/>
      <point x="378" y="798" type="curve" smooth="yes"/>
      <point x="367" y="842"/>
      <point x="350" y="872"/>
      <point x="331" y="906" type="curve"/>
      <point x="39" y="833" type="line"/>
      <point x="45" y="798" type="line"/>
      <point x="45" y="798"/>
      <point x="97" y="804"/>
      <point x="122" y="804" type="curve" smooth="yes"/>
      <point x="245" y="804"/>
      <point x="245" y="737"/>
      <point x="272" y="424" type="curve" smooth="yes" name="hr02"/>
      <point x="313" y="-57" type="line"/>
      <point x="248" y="-144"/>
      <point x="65" y="-337"/>
      <point x="20" y="-337" type="curve" smooth="yes" name="hr01"/>
      <point x="-2" y="-337"/>
      <point x="3" y="-262"/>
      <point x="-57" y="-262" type="curve" smooth="yes"/>
      <point x="-114" y="-262"/>
      <point x="-158" y="-315"/>
      <point x="-158" y="-364" type="curve" smooth="yes"/>
      <point x="-158" y="-414"/>
      <point x="-118" y="-443"/>
    </contour>
  </outline>
</glyph>
<glyph name="z" format="2">
  <advance width="798"/>
  <unicode hex="007A"/>
  <outline>
    <contour>
      <point x="804" y="857" type="line"/>
      <point x="110" y="138" type="line"/>
      <point x="431" y="138" type="line" smooth="yes"/>
      <point x="550" y="138"/>
      <point x="582" y="138"/>
      <point x="642" y="272" type="curve"/>
      <point x="678" y="272" type="line"/>
      <point x="591" y="0" type="line"/>
      <point x="-61" y="0" type="line"/>
      <point x="-61" y="30" type="line"/>
      <point x="630" y="751" type="line"/>
      <point x="329" y="751" type="line" smooth="yes"/>
      <point x="207" y="751"/>
      <point x="181" y="741"/>
      <point x="120" y="627" type="curve"/>
      <point x="85" y="627" type="line"/>
      <point x="167" y="881" type="line"/>
      <point x="804" y="881" type="line"/>
    </contour>
  </outline>
</glyph>
<glyph name="braceleft" format="2">
  <advance width="589"/>
  <unicode hex="007B"/>
  <outline>
    <contour>
      <point x="681" y="1427" type="curve"/>
      <point x="665" y="1471" type="line"/>
      <point x="482" y="1388"/>
      <point x="359" y="1264"/>
      <point x="335" y="1098" type="curve" smooth="yes"/>
      <point x="314" y="947"/>
      <point x="348" y="942"/>
      <point x="327" y="793" type="curve" smooth="yes"/>
      <point x="314" y="701"/>
      <point x="233" y="620"/>
      <point x="93" y="582" type="curve"/>
      <point x="102" y="533" type="line"/>
      <point x="135" y="539"/>
      <point x="127" y="539"/>
      <point x="158" y="539" type="curve" smooth="yes"/>
      <point x="242" y="539"/>
      <point x="284" y="487"/>
      <point x="271" y="388" type="curve" smooth="yes"/>
      <point x="248" y="235"/>
      <point x="210" y="210"/>
      <point x="190" y="66" type="curve" smooth="yes"/>
      <point x="165" y="-111"/>
      <point x="233" y="-207"/>
      <point x="413" y="-289" type="curve"/>
      <point x="438" y="-233" type="line"/>
      <point x="329" y="-161"/>
      <point x="309" y="-95"/>
      <point x="327" y="39" type="curve" smooth="yes"/>
      <point x="345" y="161"/>
      <point x="386" y="207"/>
      <point x="406" y="354" type="curve" smooth="yes"/>
      <point x="425" y="489"/>
      <point x="399" y="578"/>
      <point x="287" y="600" type="curve"/>
      <point x="391" y="645"/>
      <point x="461" y="746"/>
      <point x="476" y="848" type="curve" smooth="yes"/>
      <point x="497" y="990"/>
      <point x="465" y="1008"/>
      <point x="483" y="1150" type="curve"/>
      <point x="503" y="1277"/>
      <point x="584" y="1368"/>
    </contour>
  </outline>
</glyph>
<glyph name="bar" format="2">
  <advance width="483"/>
  <unicode hex="007C"/>
  <outline>
    <contour>
      <point x="455" y="1451" type="line"/>
      <point x="427" y="1472" type="line"/>
      <point x="391" y="1462"/>
      <point x="357" y="1448"/>
      <point x="323" y="1426" type="curve"/>
      <point x="64" y="-437" type="line"/>
      <point x="91" y="-460" type="line"/>
      <point x="120" y="-450"/>
      <point x="172" y="-429"/>
      <point x="195" y="-413" type="curve"/>
    </contour>
  </outline>
</glyph>
<glyph name="braceright" format="2">
  <advance width="1089"/>
  <unicode hex="007D"/>
  <outline>
    <contour>
      <point x="851" y="574" type="line"/>
      <point x="839" y="517" type="line"/>
      <point x="730" y="504"/>
      <point x="566" y="416"/>
      <point x="538" y="274" type="curve" smooth="yes"/>
      <point x="519" y="176"/>
      <point x="547" y="45"/>
      <point x="524" y="-74" type="curve" smooth="yes"/>
      <point x="480" y="-297"/>
      <point x="265" y="-469"/>
      <point x="48" y="-491" type="curve"/>
      <point x="55" y="-451" type="line"/>
      <point x="210" y="-414"/>
      <point x="339" y="-320"/>
      <point x="370" y="-158" type="curve" smooth="yes"/>
      <point x="391" y="-54"/>
      <point x="361" y="52"/>
      <point x="382" y="157" type="curve" smooth="yes"/>
      <point x="420" y="357"/>
      <point x="541" y="482"/>
      <point x="731" y="546" type="curve"/>
      <point x="568" y="610"/>
      <point x="497" y="753"/>
      <point x="536" y="950" type="curve" smooth="yes"/>
      <point x="557" y="1057"/>
      <point x="623" y="1143"/>
      <point x="644" y="1249" type="curve" smooth="yes"/>
      <point x="675" y="1409"/>
      <point x="582" y="1507"/>
      <point x="443" y="1543" type="curve"/>
      <point x="451" y="1582" type="line"/>
      <point x="652" y="1560"/>
      <point x="805" y="1376"/>
      <point x="763" y="1160" type="curve" smooth="yes"/>
      <point x="739" y="1035"/>
      <point x="663" y="915"/>
      <point x="643" y="813" type="curve" smooth="yes"/>
      <point x="616" y="674"/>
      <point x="748" y="587"/>
      <point x="851" y="574" type="curve"/>
    </contour>
  </outline>
</glyph>
<glyph name="asciitilde" format="2">
  <advance width="1115"/>
  <unicode hex="007E"/>
  <outline>
    <contour>
      <point x="95" y="370" type="line"/>
      <point x="144" y="453"/>
      <point x="203" y="560"/>
      <point x="313" y="560" type="curve" smooth="yes"/>
      <point x="457" y="560"/>
      <point x="636" y="412"/>
      <point x="794" y="412" type="curve" smooth="yes"/>
      <point x="926" y="412"/>
      <point x="1019" y="522"/>
      <point x="1076" y="630" type="curve"/>
      <point x="1019" y="705" type="line"/>
      <point x="979" y="627"/>
      <point x="898" y="528"/>
      <point x="804" y="528" type="curve" smooth="yes"/>
      <point x="694" y="528"/>
      <point x="465" y="680"/>
      <point x="323" y="680" type="curve" smooth="yes"/>
      <point x="177" y="680"/>
      <point x="102" y="558"/>
      <point x="39" y="443" type="curve"/>
    </contour>
  </outline>
</glyph>
<glyph name="exclamdown" format="2">
  <advance width="377"/>
  <unicode hex="00A1"/>
  <outline>
    <contour>
      <point x="222" y="485" type="line"/>
      <point x="199" y="505" type="line"/>
      <point x="171" y="495"/>
      <point x="156" y="485"/>
      <point x="131" y="469" type="curve"/>
      <point x="-46" y="-471" type="line"/>
      <point x="-12" y="-494" type="line"/>
      <point x="35" y="-480"/>
      <point x="107" y="-431"/>
      <point x="145" y="-406" type="curve"/>
    </contour>
    <contour>
      <point x="102" y="688" type="curve"/>
      <point x="102" y="636"/>
      <point x="131" y="600"/>
      <point x="179" y="600" type="curve" smooth="yes"/>
      <point x="256" y="600"/>
      <point x="316" y="693"/>
      <point x="316" y="764" type="curve" smooth="yes"/>
      <point x="316" y="819"/>
      <point x="286" y="855"/>
      <point x="237" y="855" type="curve" smooth="yes"/>
      <point x="156" y="855"/>
      <point x="102" y="762"/>
    </contour>
  </outline>
</glyph>
<glyph name="cent" format="2">
  <advance width="757"/>
  <unicode hex="00A2"/>
  <outline>
    <contour>
      <point x="794" y="861" type="curve"/>
      <point x="757" y="874"/>
      <point x="697" y="970"/>
      <point x="589" y="970" type="curve" smooth="yes"/>
      <point x="514" y="970"/>
      <point x="408" y="938"/>
      <point x="341" y="895" type="curve" smooth="yes"/>
      <point x="160" y="774"/>
      <point x="95" y="598"/>
      <point x="95" y="433" type="curve" smooth="yes"/>
      <point x="95" y="174"/>
      <point x="253" y="102"/>
      <point x="337" y="102" type="curve" smooth="yes"/>
      <point x="427" y="102"/>
      <point x="514" y="127"/>
      <point x="706" y="303" type="curve"/>
      <point x="701" y="314"/>
      <point x="688" y="327"/>
      <point x="678" y="343" type="curve"/>
      <point x="546" y="233"/>
      <point x="474" y="207"/>
      <point x="429" y="207" type="curve" smooth="yes"/>
      <point x="323" y="207"/>
      <point x="230" y="309"/>
      <point x="230" y="469" type="curve" smooth="yes"/>
      <point x="230" y="638"/>
      <point x="327" y="875"/>
      <point x="495" y="875" type="curve" smooth="yes"/>
      <point x="610" y="875"/>
      <point x="636" y="764"/>
      <point x="663" y="764" type="curve" smooth="yes"/>
      <point x="693" y="764"/>
      <point x="742" y="823"/>
    </contour>
    <contour>
      <point x="557" y="1098" type="line"/>
      <point x="539" y="1119" type="line"/>
      <point x="505" y="1109"/>
      <point x="516" y="1113"/>
      <point x="483" y="1091" type="curve"/>
      <point x="331" y="-24" type="line"/>
      <point x="348" y="-45" type="line"/>
      <point x="377" y="-35"/>
      <point x="382" y="-35"/>
      <point x="404" y="-16" type="curve"/>
    </contour>
  </outline>
</glyph>
<glyph name="sterling" format="2">
  <advance width="757"/>
  <unicode hex="00A3"/>
  <outline>
    <contour>
      <point x="766" y="1071" type="curve"/>
      <point x="670" y="1129"/>
      <point x="628" y="1136"/>
      <point x="570" y="1136" type="curve" smooth="yes"/>
      <point x="307" y="1136"/>
      <point x="167" y="907"/>
      <point x="140" y="531" type="curve" smooth="yes"/>
      <point x="113" y="145"/>
      <point x="79" y="114"/>
      <point x="-40" y="17" type="curve"/>
      <point x="-28" y="-27" type="line"/>
      <point x="150" y="87"/>
      <point x="452" y="-91"/>
      <point x="613" y="0" type="curve"/>
      <point x="626" y="35"/>
      <point x="656" y="127"/>
      <point x="679" y="233" type="curve"/>
      <point x="645" y="250" type="line"/>
      <point x="579" y="106"/>
      <point x="540" y="95"/>
      <point x="437" y="92" type="curve" smooth="yes"/>
      <point x="314" y="89"/>
      <point x="283" y="106"/>
      <point x="130" y="92" type="curve"/>
      <point x="207" y="190"/>
      <point x="277" y="356"/>
      <point x="284" y="547" type="curve" smooth="yes"/>
      <point x="299" y="1003"/>
      <point x="407" y="1045"/>
      <point x="496" y="1045" type="curve" smooth="yes"/>
      <point x="608" y="1045"/>
      <point x="666" y="979"/>
      <point x="660" y="828" type="curve"/>
      <point x="700" y="828" type="line"/>
      <point x="719" y="874"/>
      <point x="755" y="1009"/>
    </contour>
    <contour>
      <point x="511" y="555" type="line"/>
      <point x="493" y="576" type="line"/>
      <point x="55" y="576" type="line"/>
      <point x="46" y="557"/>
      <point x="35" y="535"/>
      <point x="29" y="517" type="curve"/>
      <point x="43" y="494" type="line"/>
      <point x="481" y="494" type="line"/>
    </contour>
  </outline>
</glyph>
<glyph name="currency" format="2">
  <advance width="1202"/>
  <unicode hex="00A4"/>
  <outline>
    <contour>
      <point x="1253" y="386" type="line"/>
      <point x="1182" y="315" type="line"/>
      <point x="979" y="518" type="line"/>
      <point x="908" y="457"/>
      <point x="816" y="426"/>
      <point x="725" y="426" type="curve" smooth="yes"/>
      <point x="627" y="426"/>
      <point x="536" y="455"/>
      <point x="463" y="518" type="curve"/>
      <point x="260" y="315" type="line"/>
      <point x="189" y="386" type="line"/>
      <point x="392" y="589" type="line"/>
      <point x="335" y="660"/>
      <point x="305" y="749"/>
      <point x="305" y="841" type="curve" smooth="yes"/>
      <point x="305" y="932"/>
      <point x="333" y="1032"/>
      <point x="396" y="1101" type="curve"/>
      <point x="189" y="1308" type="line"/>
      <point x="260" y="1379" type="line"/>
      <point x="467" y="1172" type="line"/>
      <point x="538" y="1229"/>
      <point x="632" y="1259"/>
      <point x="725" y="1259" type="curve" smooth="yes"/>
      <point x="816" y="1259"/>
      <point x="906" y="1227"/>
      <point x="973" y="1170" type="curve"/>
      <point x="1182" y="1379" type="line"/>
      <point x="1253" y="1308" type="line"/>
      <point x="1048" y="1103" type="line"/>
      <point x="1103" y="1034"/>
      <point x="1137" y="936"/>
      <point x="1137" y="843" type="curve" smooth="yes"/>
      <point x="1137" y="751"/>
      <point x="1109" y="660"/>
      <point x="1050" y="589" type="curve"/>
    </contour>
    <contour>
      <point x="1024" y="843" type="line" smooth="yes"/>
      <point x="1024" y="1007"/>
      <point x="891" y="1147"/>
      <point x="725" y="1147" type="curve" smooth="yes"/>
      <point x="554" y="1147"/>
      <point x="418" y="1013"/>
      <point x="418" y="841" type="curve" smooth="yes"/>
      <point x="418" y="672"/>
      <point x="556" y="538"/>
      <point x="725" y="538" type="curve" smooth="yes"/>
      <point x="892" y="538"/>
      <point x="1024" y="678"/>
      <point x="1024" y="843" type="curve" smooth="yes"/>
    </contour>
  </outline>
</glyph>
<glyph name="yen" format="2">
  <advance width="757"/>
  <unicode hex="00A5"/>
  <outline>
    <contour>
      <point x="898" y="1123" type="line"/>
      <point x="611" y="1123" type="line"/>
      <point x="607" y="1084" type="line"/>
      <point x="678" y="1073"/>
      <point x="702" y="1058"/>
      <point x="683" y="1025" type="curve" smooth="yes"/>
      <point x="437" y="604" type="line"/>
      <point x="413" y="723"/>
      <point x="316" y="984"/>
      <point x="245" y="1103" type="curve" smooth="yes"/>
      <point x="232" y="1125"/>
      <point x="218" y="1137"/>
      <point x="205" y="1137" type="curve" smooth="yes"/>
      <point x="164" y="1137"/>
      <point x="77" y="1116"/>
      <point x="20" y="1101" type="curve"/>
      <point x="27" y="1062" type="line"/>
      <point x="102" y="1073"/>
      <point x="125" y="1064"/>
      <point x="146" y="1029" type="curve" smooth="yes"/>
      <point x="218" y="909"/>
      <point x="308" y="665"/>
      <point x="347" y="491" type="curve"/>
      <point x="345" y="470" type="line"/>
      <point x="149" y="470" type="line"/>
      <point x="141" y="450"/>
      <point x="133" y="430"/>
      <point x="126" y="411" type="curve"/>
      <point x="138" y="388" type="line"/>
      <point x="334" y="388" type="line"/>
      <point x="299" y="102" type="line" smooth="yes"/>
      <point x="298" y="85"/>
      <point x="264" y="60"/>
      <point x="172" y="38" type="curve"/>
      <point x="167" y="0" type="line"/>
      <point x="523" y="0" type="line"/>
      <point x="528" y="38" type="line"/>
      <point x="440" y="60"/>
      <point x="414" y="87"/>
      <point x="415" y="102" type="curve" smooth="yes"/>
      <point x="450" y="388" type="line"/>
      <point x="644" y="388" type="line"/>
      <point x="669" y="448" type="line"/>
      <point x="654" y="470" type="line"/>
      <point x="460" y="470" type="line"/>
      <point x="461" y="482" type="line"/>
      <point x="773" y="1025" type="line" smooth="yes"/>
      <point x="791" y="1057"/>
      <point x="827" y="1069"/>
      <point x="894" y="1084" type="curve"/>
    </contour>
  </outline>
</glyph>
<glyph name="copyright" format="2">
  <advance width="1251"/>
  <unicode hex="00A9"/>
  <outline>
    <contour>
      <point x="1177" y="691" type="curve"/>
      <point x="1177" y="974"/>
      <point x="992" y="1186"/>
      <point x="715" y="1186" type="curve" smooth="yes"/>
      <point x="350" y="1186"/>
      <point x="86" y="827"/>
      <point x="86" y="483" type="curve" smooth="yes"/>
      <point x="86" y="195"/>
      <point x="265" y="-28"/>
      <point x="546" y="-28" type="curve" smooth="yes"/>
      <point x="925" y="-28"/>
      <point x="1177" y="341"/>
    </contour>
    <contour>
      <point x="1104" y="661" type="curve"/>
      <point x="1104" y="363"/>
      <point x="874" y="50"/>
      <point x="557" y="50" type="curve" smooth="yes"/>
      <point x="310" y="50"/>
      <point x="158" y="252"/>
      <point x="158" y="501" type="curve" smooth="yes"/>
      <point x="158" y="796"/>
      <point x="391" y="1107"/>
      <point x="706" y="1107" type="curve" smooth="yes"/>
      <point x="951" y="1107"/>
      <point x="1104" y="909"/>
    </contour>
    <contour>
      <point x="932" y="866" type="curve"/>
      <point x="898" y="877"/>
      <point x="844" y="960"/>
      <point x="744" y="960" type="curve" smooth="yes"/>
      <point x="674" y="960"/>
      <point x="573" y="932"/>
      <point x="516" y="887" type="curve" smooth="yes"/>
      <point x="357" y="767"/>
      <point x="309" y="623"/>
      <point x="309" y="483" type="curve" smooth="yes"/>
      <point x="309" y="267"/>
      <point x="458" y="205"/>
      <point x="533" y="205" type="curve" smooth="yes"/>
      <point x="616" y="205"/>
      <point x="693" y="228"/>
      <point x="870" y="375" type="curve"/>
      <point x="864" y="384"/>
      <point x="853" y="395"/>
      <point x="844" y="408" type="curve"/>
      <point x="721" y="316"/>
      <point x="657" y="289"/>
      <point x="618" y="289" type="curve" smooth="yes"/>
      <point x="514" y="289"/>
      <point x="424" y="380"/>
      <point x="424" y="514" type="curve" smooth="yes"/>
      <point x="424" y="657"/>
      <point x="512" y="885"/>
      <point x="667" y="885" type="curve" smooth="yes"/>
      <point x="749" y="885"/>
      <point x="789" y="802"/>
      <point x="814" y="802" type="curve" smooth="yes"/>
      <point x="841" y="802"/>
      <point x="885" y="836"/>
    </contour>
  </outline>
</glyph>
<glyph name="guillemotleft" format="2">
  <advance width="811"/>
  <unicode hex="00AB"/>
  <outline>
    <contour>
      <point x="598" y="6" type="line"/>
      <point x="637" y="33" type="line"/>
      <point x="501" y="414" type="line"/>
      <point x="498" y="412"/>
      <point x="740" y="791"/>
      <point x="739" y="791" type="curve"/>
      <point x="708" y="817" type="line"/>
      <point x="366" y="446" type="line"/>
      <point x="363" y="443"/>
      <point x="355" y="380"/>
      <point x="355" y="380" type="curve"/>
    </contour>
    <contour>
      <point x="297" y="6" type="line"/>
      <point x="335" y="33" type="line"/>
      <point x="199" y="414" type="line"/>
      <point x="196" y="412"/>
      <point x="438" y="791"/>
      <point x="437" y="791" type="curve"/>
      <point x="406" y="817" type="line"/>
      <point x="64" y="446" type="line"/>
      <point x="61" y="443"/>
      <point x="53" y="380"/>
      <point x="53" y="380" type="curve"/>
    </contour>
  </outline>
</glyph>
<glyph name="logicalnot" format="2">
  <advance width="757"/>
  <unicode hex="00AC"/>
  <outline>
    <contour>
      <point x="701" y="548" type="line"/>
      <point x="679" y="568" type="line"/>
      <point x="679" y="568"/>
      <point x="755" y="568"/>
      <point x="84" y="568" type="curve"/>
      <point x="71" y="544"/>
      <point x="56" y="512"/>
      <point x="46" y="487" type="curve"/>
      <point x="64" y="465" type="line"/>
      <point x="586" y="465" type="line"/>
      <point x="557" y="273" type="line"/>
      <point x="576" y="250" type="line"/>
      <point x="606" y="260"/>
      <point x="642" y="278"/>
      <point x="667" y="298" type="curve"/>
    </contour>
  </outline>
</glyph>
<glyph name="sfthyphen" format="2">
  <advance width="635"/>
  <unicode hex="00AD"/>
  <outline>
    <contour>
      <point x="524" y="551" type="line" smooth="yes"/>
      <point x="516" y="507"/>
      <point x="509" y="505"/>
      <point x="488" y="505" type="curve" smooth="yes"/>
      <point x="142" y="505" type="line" smooth="yes"/>
      <point x="121" y="505"/>
      <point x="117" y="508"/>
      <point x="125" y="551" type="curve" smooth="yes"/>
      <point x="133" y="591"/>
      <point x="139" y="594"/>
      <point x="162" y="594" type="curve" smooth="yes"/>
      <point x="503" y="594" type="line" smooth="yes"/>
      <point x="525" y="594"/>
      <point x="532" y="591"/>
      <point x="524" y="551" type="curve" smooth="yes"/>
    </contour>
  </outline>
</glyph>
<glyph name="macron" format="2">
  <advance width="736"/>
  <unicode hex="00AF"/>
  <outline>
    <contour>
      <point x="767" y="1157" type="curve"/>
      <point x="749" y="1180" type="line"/>
      <point x="246" y="1180" type="line"/>
      <point x="232" y="1155"/>
      <point x="210" y="1111"/>
      <point x="201" y="1086" type="curve"/>
      <point x="216" y="1064" type="line"/>
      <point x="721" y="1064" type="line"/>
      <point x="733" y="1084"/>
      <point x="759" y="1130"/>
    </contour>
  </outline>
</glyph>
<glyph name="degree" format="2">
  <advance width="577"/>
  <unicode hex="00B0"/>
  <outline>
    <contour>
      <point x="564" y="987" type="curve" smooth="yes"/>
      <point x="564" y="1069"/>
      <point x="506" y="1136"/>
      <point x="428" y="1136" type="curve" smooth="yes"/>
      <point x="322" y="1136"/>
      <point x="163" y="1005"/>
      <point x="163" y="844" type="curve" smooth="yes"/>
      <point x="163" y="762"/>
      <point x="218" y="698"/>
      <point x="299" y="698" type="curve" smooth="yes"/>
      <point x="391" y="698"/>
      <point x="564" y="814"/>
    </contour>
    <contour>
      <point x="333" y="782" type="curve" smooth="yes"/>
      <point x="286" y="782"/>
      <point x="261" y="831"/>
      <point x="261" y="888" type="curve" smooth="yes"/>
      <point x="261" y="977"/>
      <point x="329" y="1050"/>
      <point x="394" y="1050" type="curve" smooth="yes"/>
      <point x="441" y="1050"/>
      <point x="468" y="1004"/>
      <point x="468" y="945" type="curve" smooth="yes"/>
      <point x="468" y="876"/>
      <point x="418" y="782"/>
    </contour>
  </outline>
</glyph>
<glyph name="twosuperior" format="2">
  <advance width="529"/>
  <unicode hex="00B2"/>
  <anchor x="262" y="506" name="L"/>
  <anchor x="370" y="1288" name="U"/>
  <outline>
    <contour>
      <point x="555" y="1115" type="curve"/>
      <point x="555" y="1202"/>
      <point x="484" y="1242"/>
      <point x="390" y="1241" type="curve" smooth="yes"/>
      <point x="259" y="1238"/>
      <point x="138" y="1140"/>
      <point x="126" y="1064" type="curve"/>
      <point x="140" y="1047" type="line"/>
      <point x="175" y="1051"/>
      <point x="210" y="1060"/>
      <point x="238" y="1074" type="curve"/>
      <point x="245" y="1127"/>
      <point x="283" y="1180"/>
      <point x="346" y="1180" type="curve" smooth="yes"/>
      <point x="409" y="1180"/>
      <point x="445" y="1151"/>
      <point x="445" y="1098" type="curve" smooth="yes"/>
      <point x="445" y="1005"/>
      <point x="353" y="875"/>
      <point x="41" y="609" type="curve"/>
      <point x="50" y="559" type="line"/>
      <point x="468" y="559" type="line"/>
      <point x="501" y="717" type="line"/>
      <point x="464" y="724" type="line"/>
      <point x="464" y="724"/>
      <point x="439" y="632"/>
      <point x="388" y="632" type="curve" smooth="yes"/>
      <point x="156" y="632" type="line"/>
      <point x="471" y="911"/>
      <point x="555" y="1023"/>
    </contour>
  </outline>
</glyph>
<glyph name="threesuperior" format="2">
  <advance width="529"/>
  <unicode hex="00B3"/>
  <anchor x="262" y="506" name="L"/>
  <anchor x="370" y="1288" name="U"/>
  <outline>
    <contour>
      <point x="522" y="1112" type="curve"/>
      <point x="522" y="1178"/>
      <point x="473" y="1241"/>
      <point x="360" y="1241" type="curve" smooth="yes"/>
      <point x="241" y="1241"/>
      <point x="129" y="1153"/>
      <point x="118" y="1092" type="curve"/>
      <point x="132" y="1074" type="line"/>
      <point x="165" y="1077"/>
      <point x="206" y="1083"/>
      <point x="235" y="1096" type="curve"/>
      <point x="233" y="1146"/>
      <point x="273" y="1180"/>
      <point x="324" y="1180" type="curve" smooth="yes"/>
      <point x="384" y="1180"/>
      <point x="412" y="1142"/>
      <point x="412" y="1096" type="curve" smooth="yes"/>
      <point x="412" y="999"/>
      <point x="332" y="962"/>
      <point x="232" y="937" type="curve"/>
      <point x="236" y="895" type="line"/>
      <point x="260" y="898"/>
      <point x="253" y="898"/>
      <point x="274" y="898" type="curve" smooth="yes"/>
      <point x="336" y="898"/>
      <point x="393" y="865"/>
      <point x="393" y="781" type="curve" smooth="yes"/>
      <point x="393" y="685"/>
      <point x="330" y="608"/>
      <point x="218" y="608" type="curve" smooth="yes"/>
      <point x="167" y="608"/>
      <point x="124" y="621"/>
      <point x="58" y="671" type="curve"/>
      <point x="34" y="624" type="line"/>
      <point x="98" y="566"/>
      <point x="163" y="541"/>
      <point x="224" y="541" type="curve" smooth="yes"/>
      <point x="397" y="541"/>
      <point x="506" y="657"/>
      <point x="506" y="795" type="curve" smooth="yes"/>
      <point x="506" y="869"/>
      <point x="457" y="935"/>
      <point x="379" y="944" type="curve"/>
      <point x="462" y="974"/>
      <point x="522" y="1032"/>
    </contour>
  </outline>
</glyph>
<glyph name="acute" format="2">
  <advance width="557"/>
  <unicode hex="00B4"/>
  <anchor x="281" y="1260" name="U"/>
  <outline>
    <contour>
      <point x="512" y="1305" type="line"/>
      <point x="492" y="1317"/>
      <point x="432" y="1335"/>
      <point x="408" y="1342" type="curve"/>
      <point x="158" y="976" type="line"/>
      <point x="175" y="954"/>
      <point x="180" y="948"/>
      <point x="199" y="943" type="curve"/>
      <point x="526" y="1264" type="line"/>
    </contour>
  </outline>
</glyph>
<glyph name="mu" format="2">
  <advance width="966"/>
  <unicode hex="00B5"/>
  <outline>
    <contour>
      <point x="940" y="197" type="curve"/>
      <point x="908" y="224" type="line"/>
      <point x="836" y="113"/>
      <point x="819" y="109"/>
      <point x="794" y="109" type="curve" smooth="yes"/>
      <point x="776" y="109"/>
      <point x="760" y="122"/>
      <point x="760" y="233" type="curve" smooth="yes"/>
      <point x="760" y="354"/>
      <point x="832" y="717"/>
      <point x="855" y="825" type="curve"/>
      <point x="851" y="836"/>
      <point x="846" y="848"/>
      <point x="836" y="861" type="curve"/>
      <point x="785" y="848"/>
      <point x="719" y="823"/>
      <point x="676" y="806" type="curve"/>
      <point x="688" y="783"/>
      <point x="691" y="738"/>
      <point x="691" y="699" type="curve" smooth="yes"/>
      <point x="691" y="609"/>
      <point x="625" y="304"/>
      <point x="625" y="241" type="curve" smooth="yes"/>
      <point x="625" y="56"/>
      <point x="654" y="-37"/>
      <point x="706" y="-37" type="curve" smooth="yes"/>
      <point x="783" y="-37"/>
      <point x="838" y="9"/>
    </contour>
    <contour>
      <point x="711" y="528" type="line"/>
      <point x="585" y="235"/>
      <point x="471" y="109"/>
      <point x="380" y="109" type="curve" smooth="yes"/>
      <point x="316" y="109"/>
      <point x="270" y="205"/>
      <point x="270" y="339" type="curve" smooth="yes"/>
      <point x="270" y="438"/>
      <point x="327" y="676"/>
      <point x="327" y="783" type="curve" smooth="yes"/>
      <point x="327" y="839"/>
      <point x="318" y="861"/>
      <point x="284" y="861" type="curve" smooth="yes"/>
      <point x="253" y="861"/>
      <point x="141" y="819"/>
      <point x="37" y="772" type="curve"/>
      <point x="50" y="738" type="line"/>
      <point x="50" y="738"/>
      <point x="122" y="760"/>
      <point x="145" y="760" type="curve" smooth="yes"/>
      <point x="165" y="760"/>
      <point x="181" y="755"/>
      <point x="181" y="699" type="curve" smooth="yes"/>
      <point x="181" y="609"/>
      <point x="143" y="448"/>
      <point x="143" y="339" type="curve" smooth="yes"/>
      <point x="143" y="129"/>
      <point x="228" y="-37"/>
      <point x="350" y="-37" type="curve" smooth="yes"/>
      <point x="482" y="-37"/>
      <point x="598" y="147"/>
      <point x="703" y="384" type="curve"/>
    </contour>
    <contour>
      <point x="210" y="406" type="curve"/>
      <point x="210" y="454"/>
      <point x="166" y="548"/>
      <point x="166" y="548" type="curve"/>
      <point x="140" y="339"/>
      <point x="38" y="-184"/>
      <point x="6" y="-433" type="curve"/>
      <point x="36" y="-460" type="line"/>
      <point x="67" y="-444"/>
      <point x="165" y="-400"/>
      <point x="201" y="-386" type="curve"/>
      <point x="188" y="-353"/>
      <point x="127" y="-156"/>
      <point x="161" y="95" type="curve"/>
      <point x="183" y="237"/>
      <point x="188" y="296"/>
    </contour>
  </outline>
</glyph>
<glyph name="paragraph" format="2">
  <advance width="965"/>
  <unicode hex="00B6"/>
  <outline>
    <contour>
      <point x="532" y="-443" type="line"/>
      <point x="605" y="-443" type="line"/>
      <point x="605" y="1300" type="line"/>
      <point x="790" y="1300" type="line"/>
      <point x="790" y="-443" type="line"/>
      <point x="865" y="-443" type="line"/>
      <point x="865" y="1300" type="line"/>
      <point x="997" y="1300" type="line"/>
      <point x="997" y="1355" type="line"/>
      <point x="502" y="1355" type="line" smooth="yes"/>
      <point x="288" y="1355"/>
      <point x="51" y="1271"/>
      <point x="51" y="981" type="curve" smooth="yes" name="hr01"/>
      <point x="51" y="668"/>
      <point x="301" y="609"/>
      <point x="532" y="603" type="curve"/>
    </contour>
  </outline>
</glyph>
<glyph name="periodcentered" format="2">
  <advance width="378"/>
  <unicode hex="00B7"/>
  <outline>
    <contour>
      <point x="335" y="775" type="line" smooth="yes"/>
      <point x="335" y="708"/>
      <point x="288" y="622"/>
      <point x="210" y="622" type="curve" smooth="yes"/>
      <point x="166" y="622"/>
      <point x="133" y="666"/>
      <point x="133" y="724" type="curve" smooth="yes"/>
      <point x="133" y="793"/>
      <point x="180" y="870"/>
      <point x="258" y="870" type="curve" smooth="yes"/>
      <point x="295" y="870"/>
      <point x="335" y="831"/>
      <point x="335" y="775" type="curve" smooth="yes"/>
    </contour>
  </outline>
</glyph>
<glyph name="onequarter" format="2">
  <advance width="1021"/>
  <unicode hex="00BC"/>
  <outline>
    <contour>
      <point x="1002" y="1110" type="line"/>
      <point x="985" y="1136" type="line"/>
      <point x="960" y="1130"/>
      <point x="930" y="1116"/>
      <point x="908" y="1106" type="curve"/>
      <point x="117" y="0" type="line"/>
      <point x="134" y="-27" type="line"/>
      <point x="165" y="-19"/>
      <point x="188" y="-11"/>
      <point x="216" y="2" type="curve"/>
    </contour>
    <contour>
      <point x="904" y="193" type="curve"/>
      <point x="893" y="207" type="line"/>
      <point x="842" y="207" type="line"/>
      <point x="888" y="534" type="line"/>
      <point x="874" y="550" type="line"/>
      <point x="853" y="540"/>
      <point x="820" y="529"/>
      <point x="793" y="517" type="curve"/>
      <point x="511" y="165" type="line"/>
      <point x="525" y="150" type="line"/>
      <point x="757" y="150" type="line"/>
      <point x="743" y="57" type="line"/>
      <point x="742" y="47"/>
      <point x="729" y="38"/>
      <point x="647" y="26" type="curve"/>
      <point x="644" y="0" type="line"/>
      <point x="872" y="0" type="line"/>
      <point x="875" y="26" type="line"/>
      <point x="825" y="37"/>
      <point x="819" y="44"/>
      <point x="821" y="53" type="curve" smooth="yes"/>
      <point x="835" y="150" type="line"/>
      <point x="861" y="150" type="line"/>
      <point x="875" y="161"/>
      <point x="887" y="174"/>
    </contour>
    <contour>
      <point x="764" y="207" type="line"/>
      <point x="597" y="207" type="line"/>
      <point x="799" y="451" type="line"/>
    </contour>
    <contour>
      <point x="419" y="586" type="line"/>
      <point x="424" y="617" type="line"/>
      <point x="332" y="628"/>
      <point x="318" y="644"/>
      <point x="320" y="656" type="curve" smooth="yes"/>
      <point x="385" y="1120" type="line"/>
      <point x="370" y="1136" type="line"/>
      <point x="326" y="1114"/>
      <point x="214" y="1074"/>
      <point x="160" y="1060" type="curve"/>
      <point x="165" y="1030" type="line"/>
      <point x="250" y="1047"/>
      <point x="275" y="1044"/>
      <point x="281" y="1036" type="curve" smooth="yes"/>
      <point x="288" y="1029"/>
      <point x="287" y="1017"/>
      <point x="283" y="993" type="curve" smooth="yes"/>
      <point x="236" y="656" type="line" smooth="yes"/>
      <point x="234" y="644"/>
      <point x="210" y="628"/>
      <point x="112" y="617" type="curve"/>
      <point x="107" y="586" type="line"/>
    </contour>
  </outline>
</glyph>
<glyph name="onehalf" format="2">
  <advance width="1021"/>
  <unicode hex="00BD"/>
  <outline>
    <contour>
      <point x="1002" y="1110" type="line"/>
      <point x="985" y="1136" type="line"/>
      <point x="960" y="1130"/>
      <point x="930" y="1116"/>
      <point x="908" y="1106" type="curve"/>
      <point x="117" y="0" type="line"/>
      <point x="134" y="-27" type="line"/>
      <point x="165" y="-19"/>
      <point x="188" y="-11"/>
      <point x="216" y="2" type="curve"/>
    </contour>
    <contour>
      <point x="434" y="586" type="line"/>
      <point x="438" y="617" type="line"/>
      <point x="346" y="628"/>
      <point x="333" y="644"/>
      <point x="334" y="656" type="curve" smooth="yes"/>
      <point x="400" y="1120" type="line"/>
      <point x="385" y="1136" type="line"/>
      <point x="341" y="1114"/>
      <point x="229" y="1074"/>
      <point x="174" y="1060" type="curve"/>
      <point x="180" y="1030" type="line"/>
      <point x="264" y="1047"/>
      <point x="289" y="1044"/>
      <point x="296" y="1036" type="curve" smooth="yes"/>
      <point x="303" y="1029"/>
      <point x="301" y="1017"/>
      <point x="298" y="993" type="curve" smooth="yes"/>
      <point x="251" y="656" type="line" smooth="yes"/>
      <point x="249" y="644"/>
      <point x="225" y="628"/>
      <point x="126" y="617" type="curve"/>
      <point x="122" y="586" type="line"/>
    </contour>
    <contour>
      <point x="909" y="126" type="line"/>
      <point x="880" y="131" type="line"/>
      <point x="880" y="131"/>
      <point x="865" y="60"/>
      <point x="822" y="60" type="curve" smooth="yes"/>
      <point x="641" y="60" type="line"/>
      <point x="861" y="273"/>
      <point x="932" y="341"/>
      <point x="943" y="420" type="curve" smooth="yes"/>
      <point x="955" y="506"/>
      <point x="903" y="545"/>
      <point x="821" y="545" type="curve" smooth="yes"/>
      <point x="719" y="545"/>
      <point x="612" y="465"/>
      <point x="603" y="403" type="curve"/>
      <point x="614" y="391" type="line"/>
      <point x="643" y="393"/>
      <point x="668" y="400"/>
      <point x="690" y="412" type="curve"/>
      <point x="697" y="454"/>
      <point x="735" y="496"/>
      <point x="782" y="496" type="curve" smooth="yes"/>
      <point x="846" y="496"/>
      <point x="864" y="461"/>
      <point x="857" y="407" type="curve" smooth="yes"/>
      <point x="848" y="340"/>
      <point x="794" y="276"/>
      <point x="538" y="32" type="curve"/>
      <point x="548" y="0" type="line"/>
      <point x="885" y="0" type="line"/>
    </contour>
  </outline>
</glyph>
<glyph name="AE" format="2">
  <advance width="1346"/>
  <unicode hex="00C6"/>
  <anchor x="663" y="-92" name="L"/>
  <anchor x="907" y="1214" name="U"/>
  <outline>
    <contour>
      <point x="1269" y="224" type="curve"/>
      <point x="1235" y="241" type="line"/>
      <point x="1168" y="97"/>
      <point x="1130" y="82"/>
      <point x="1028" y="82" type="curve" smooth="yes"/>
      <point x="923" y="82" type="line" smooth="yes"/>
      <point x="776" y="82"/>
      <point x="757" y="105"/>
      <point x="760" y="141" type="curve"/>
      <point x="825" y="602" type="line"/>
      <point x="942" y="602" type="line" smooth="yes"/>
      <point x="1034" y="602"/>
      <point x="1069" y="587"/>
      <point x="1098" y="552" type="curve"/>
      <point x="1125" y="571"/>
      <point x="1164" y="616"/>
      <point x="1188" y="650" type="curve"/>
      <point x="1170" y="676" type="line"/>
      <point x="834" y="676" type="line"/>
      <point x="889" y="1075" type="line"/>
      <point x="1190" y="1075" type="line" smooth="yes"/>
      <point x="1233" y="1075"/>
      <point x="1249" y="1042"/>
      <point x="1240" y="929" type="curve"/>
      <point x="1277" y="929" type="line"/>
      <point x="1298" y="976"/>
      <point x="1326" y="1073"/>
      <point x="1337" y="1136" type="curve"/>
      <point x="1317" y="1159" type="line"/>
      <point x="440" y="1159" type="line"/>
      <point x="435" y="1119" type="line"/>
      <point x="540" y="1096"/>
      <point x="604" y="1083"/>
      <point x="584" y="1042" type="curve" smooth="yes"/>
      <point x="111" y="102" type="line" smooth="yes"/>
      <point x="93" y="66"/>
      <point x="48" y="54"/>
      <point x="-26" y="39" type="curve"/>
      <point x="-32" y="0" type="line"/>
      <point x="312" y="0" type="line"/>
      <point x="316" y="39" type="line"/>
      <point x="230" y="50"/>
      <point x="199" y="66"/>
      <point x="218" y="102" type="curve" smooth="yes"/>
      <point x="469" y="602" type="line"/>
      <point x="691" y="602" type="line"/>
      <point x="623" y="95" type="line" smooth="yes"/>
      <point x="621" y="79"/>
      <point x="573" y="56"/>
      <point x="495" y="39" type="curve"/>
      <point x="489" y="0" type="line"/>
      <point x="1204" y="0" type="line"/>
      <point x="1219" y="35"/>
      <point x="1245" y="118"/>
    </contour>
    <contour>
      <point x="702" y="676" type="line"/>
      <point x="506" y="676" type="line"/>
      <point x="685" y="1039" type="line" smooth="yes"/>
      <point x="706" y="1083"/>
      <point x="757" y="1081"/>
      <point x="753" y="1055" type="curve" smooth="yes"/>
    </contour>
  </outline>
</glyph>
<glyph name="Oslash" format="2">
  <advance width="1026"/>
  <unicode hex="00D8"/>
  <anchor x="466" y="-92" name="L"/>
  <anchor x="644" y="1214" name="U"/>
  <outline>
    <contour>
      <point x="1060" y="1177" type="line"/>
      <point x="1039" y="1207" type="line"/>
      <point x="1006" y="1198"/>
      <point x="963" y="1183"/>
      <point x="929" y="1162" type="curve"/>
      <point x="24" y="-18" type="line"/>
      <point x="43" y="-48" type="line"/>
      <point x="71" y="-39"/>
      <point x="131" y="-21"/>
      <point x="156" y="-1" type="curve"/>
    </contour>
    <contour>
      <point x="998" y="712" type="curve"/>
      <point x="998" y="970"/>
      <point x="889" y="1186"/>
      <point x="648" y="1186" type="curve" smooth="yes"/>
      <point x="474" y="1186"/>
      <point x="339" y="1073"/>
      <point x="237" y="936" type="curve" smooth="yes"/>
      <point x="139" y="802"/>
      <point x="82" y="600"/>
      <point x="82" y="446" type="curve" smooth="yes"/>
      <point x="82" y="188"/>
      <point x="197" y="-28"/>
      <point x="433" y="-28" type="curve" smooth="yes"/>
      <point x="597" y="-28"/>
      <point x="724" y="75"/>
      <point x="828" y="207" type="curve" smooth="yes"/>
      <point x="940" y="346"/>
      <point x="998" y="539"/>
    </contour>
    <contour>
      <point x="861" y="695" type="curve"/>
      <point x="861" y="461"/>
      <point x="759" y="92"/>
      <point x="474" y="92" type="curve" smooth="yes"/>
      <point x="323" y="92"/>
      <point x="222" y="260"/>
      <point x="222" y="489" type="curve" smooth="yes"/>
      <point x="222" y="721"/>
      <point x="329" y="1071"/>
      <point x="609" y="1071" type="curve" smooth="yes"/>
      <point x="770" y="1071"/>
      <point x="861" y="902"/>
    </contour>
  </outline>
</glyph>
<glyph name="Thorn" format="2">
  <advance width="887"/>
  <unicode hex="00DE"/>
  <anchor x="365" y="-92" name="L"/>
  <anchor x="546" y="1214" name="U"/>
  <outline>
    <contour>
      <point x="862" y="634" type="curve"/>
      <point x="862" y="819"/>
      <point x="731" y="938"/>
      <point x="512" y="938" type="curve" smooth="yes"/>
      <point x="416" y="938"/>
      <point x="335" y="923"/>
      <point x="282" y="898" type="curve"/>
      <point x="280" y="832" type="line"/>
      <point x="337" y="846"/>
      <point x="397" y="862"/>
      <point x="456" y="862" type="curve" smooth="yes"/>
      <point x="612" y="862"/>
      <point x="733" y="769"/>
      <point x="733" y="598" type="curve" smooth="yes"/>
      <point x="733" y="438"/>
      <point x="623" y="314"/>
      <point x="456" y="314" type="curve" smooth="yes"/>
      <point x="416" y="314"/>
      <point x="375" y="318"/>
      <point x="331" y="341" type="curve"/>
      <point x="341" y="273" type="line"/>
      <point x="375" y="252"/>
      <point x="420" y="242"/>
      <point x="471" y="242" type="curve" smooth="yes"/>
      <point x="690" y="242"/>
      <point x="862" y="420"/>
    </contour>
    <contour>
      <point x="561" y="1159" type="line"/>
      <point x="163" y="1159" type="line"/>
      <point x="158" y="1119" type="line"/>
      <point x="235" y="1102"/>
      <point x="273" y="1077"/>
      <point x="271" y="1062" type="curve" smooth="yes"/>
      <point x="138" y="95" type="line" smooth="yes"/>
      <point x="135" y="79"/>
      <point x="86" y="56"/>
      <point x="9" y="39" type="curve"/>
      <point x="3" y="0" type="line"/>
      <point x="401" y="0" type="line"/>
      <point x="406" y="39" type="line"/>
      <point x="296" y="60"/>
      <point x="267" y="80"/>
      <point x="271" y="95" type="curve"/>
      <point x="402" y="1062" type="line" smooth="yes"/>
      <point x="404" y="1080"/>
      <point x="440" y="1098"/>
      <point x="555" y="1119" type="curve"/>
    </contour>
  </outline>
</glyph>
<glyph name="oslash" format="2">
  <advance width="794"/>
  <unicode hex="00F8"/>
  <anchor x="331" y="0" name="H"/>
  <anchor x="327" y="-92" name="L"/>
  <anchor x="394" y="0" name="O"/>
  <anchor x="872" y="800" name="R"/>
  <anchor x="466" y="920" name="U"/>
  <outline>
    <contour>
      <point x="806" y="851" type="line"/>
      <point x="785" y="881" type="line"/>
      <point x="751" y="872"/>
      <point x="710" y="838"/>
      <point x="676" y="817" type="curve"/>
      <point x="-12" y="-28" type="line"/>
      <point x="5" y="-56" type="line"/>
      <point x="34" y="-48"/>
      <point x="93" y="-11"/>
      <point x="116" y="7" type="curve"/>
    </contour>
    <contour>
      <point x="746" y="514" type="curve"/>
      <point x="746" y="717"/>
      <point x="672" y="861"/>
      <point x="480" y="861" type="curve" smooth="yes"/>
      <point x="404" y="861"/>
      <point x="325" y="821"/>
      <point x="264" y="772" type="curve" smooth="yes"/>
      <point x="102" y="644"/>
      <point x="48" y="492"/>
      <point x="48" y="316" type="curve" smooth="yes"/>
      <point x="48" y="115"/>
      <point x="147" y="-37"/>
      <point x="318" y="-37" type="curve" smooth="yes"/>
      <point x="391" y="-37"/>
      <point x="471" y="5"/>
      <point x="535" y="57" type="curve" smooth="yes"/>
      <point x="672" y="171"/>
      <point x="746" y="350"/>
    </contour>
    <contour>
      <point x="614" y="463" type="curve"/>
      <point x="614" y="312"/>
      <point x="550" y="66"/>
      <point x="380" y="66" type="curve" smooth="yes"/>
      <point x="267" y="66"/>
      <point x="181" y="203"/>
      <point x="181" y="367" type="curve" smooth="yes"/>
      <point x="181" y="523"/>
      <point x="239" y="753"/>
      <point x="416" y="753" type="curve" smooth="yes"/>
      <point x="542" y="753"/>
      <point x="614" y="650"/>
    </contour>
  </outline>
</glyph>
<glyph name="thorn" format="2">
  <advance width="887"/>
  <unicode hex="00FE"/>
  <anchor x="444" y="-92" name="L"/>
  <anchor x="599" y="1508" name="U"/>
  <outline>
    <contour>
      <point x="814" y="576" type="curve"/>
      <point x="814" y="760"/>
      <point x="735" y="861"/>
      <point x="640" y="861" type="curve" smooth="yes"/>
      <point x="563" y="861"/>
      <point x="437" y="830"/>
      <point x="260" y="537" type="curve"/>
      <point x="265" y="418" type="line"/>
      <point x="345" y="610"/>
      <point x="495" y="740"/>
      <point x="561" y="740" type="curve" smooth="yes"/>
      <point x="620" y="740"/>
      <point x="679" y="661"/>
      <point x="679" y="489" type="curve" smooth="yes"/>
      <point x="679" y="414"/>
      <point x="676" y="298"/>
      <point x="631" y="201" type="curve"/>
      <point x="602" y="135"/>
      <point x="555" y="79"/>
      <point x="485" y="79" type="curve" smooth="yes"/>
      <point x="382" y="79"/>
      <point x="271" y="226"/>
      <point x="241" y="298" type="curve"/>
      <point x="197" y="208" type="line"/>
      <point x="265" y="93"/>
      <point x="341" y="-37"/>
      <point x="433" y="-37" type="curve" smooth="yes"/>
      <point x="548" y="-37"/>
      <point x="648" y="75"/>
      <point x="704" y="172" type="curve" smooth="yes"/>
      <point x="782" y="312"/>
      <point x="814" y="454"/>
    </contour>
    <contour>
      <point x="397" y="1312" type="curve"/>
      <point x="397" y="1373"/>
      <point x="391" y="1398"/>
      <point x="352" y="1398" type="curve" smooth="yes"/>
      <point x="320" y="1398"/>
      <point x="201" y="1357"/>
      <point x="97" y="1311" type="curve"/>
      <point x="109" y="1275" type="line"/>
      <point x="109" y="1275"/>
      <point x="179" y="1299"/>
      <point x="201" y="1299" type="curve" smooth="yes"/>
      <point x="228" y="1299"/>
      <point x="250" y="1294"/>
      <point x="250" y="1238" type="curve" smooth="yes"/>
      <point x="250" y="1066"/>
      <point x="72" y="5"/>
      <point x="-2" y="-433" type="curve"/>
      <point x="26" y="-460" type="line"/>
      <point x="58" y="-445"/>
      <point x="128" y="-420"/>
      <point x="164" y="-411" type="curve"/>
      <point x="151" y="-377"/>
      <point x="157" y="-247"/>
      <point x="200" y="5" type="curve" smooth="yes"/>
      <point x="328" y="732"/>
      <point x="397" y="1238"/>
    </contour>
  </outline>
</glyph>
<glyph name="oe" format="2">
  <advance width="1264"/>
  <unicode hex="0153"/>
  <anchor x="592" y="0" name="H"/>
  <anchor x="570" y="-92" name="L"/>
  <anchor x="901" y="0" name="O"/>
  <anchor x="1350" y="800" name="R"/>
  <anchor x="709" y="920" name="U"/>
  <outline>
    <contour>
      <point x="1215" y="699" type="curve" smooth="yes"/>
      <point x="1215" y="778"/>
      <point x="1164" y="861"/>
      <point x="1058" y="861" type="curve" smooth="yes"/>
      <point x="983" y="861"/>
      <point x="895" y="823"/>
      <point x="838" y="778" type="curve" smooth="yes"/>
      <point x="676" y="652"/>
      <point x="586" y="471"/>
      <point x="586" y="278" type="curve" smooth="yes"/>
      <point x="586" y="46"/>
      <point x="723" y="-37"/>
      <point x="806" y="-37" type="curve" smooth="yes"/>
      <point x="895" y="-37"/>
      <point x="990" y="-9"/>
      <point x="1192" y="165" type="curve"/>
      <point x="1188" y="174"/>
      <point x="1177" y="195"/>
      <point x="1166" y="203" type="curve"/>
      <point x="1015" y="84"/>
      <point x="923" y="69"/>
      <point x="870" y="69" type="curve" smooth="yes"/>
      <point x="798" y="69"/>
      <point x="712" y="186"/>
      <point x="712" y="346" type="curve" smooth="yes"/>
      <point x="712" y="482"/>
      <point x="796" y="642"/>
      <point x="884" y="719" type="curve"/>
      <point x="919" y="751"/>
      <point x="965" y="764"/>
      <point x="981" y="764" type="curve" smooth="yes"/>
      <point x="1024" y="764"/>
      <point x="1066" y="735"/>
      <point x="1066" y="657" type="curve" smooth="yes"/>
      <point x="1066" y="566"/>
      <point x="1032" y="487"/>
      <point x="657" y="350" type="curve"/>
      <point x="634" y="323"/>
      <point x="663" y="282"/>
      <point x="663" y="282" type="curve"/>
      <point x="1156" y="456"/>
      <point x="1215" y="591"/>
    </contour>
    <contour>
      <point x="724" y="528" type="curve" smooth="yes"/>
      <point x="724" y="731"/>
      <point x="636" y="861"/>
      <point x="471" y="861" type="curve" smooth="yes"/>
      <point x="401" y="861"/>
      <point x="320" y="823"/>
      <point x="260" y="772" type="curve" smooth="yes"/>
      <point x="107" y="642"/>
      <point x="48" y="492"/>
      <point x="48" y="316" type="curve" smooth="yes"/>
      <point x="48" y="115"/>
      <point x="150" y="-37"/>
      <point x="310" y="-37" type="curve" smooth="yes"/>
      <point x="379" y="-37"/>
      <point x="460" y="3"/>
      <point x="521" y="57" type="curve"/>
      <point x="659" y="183"/>
      <point x="724" y="364"/>
    </contour>
    <contour>
      <point x="595" y="463" type="curve" smooth="yes"/>
      <point x="595" y="312"/>
      <point x="521" y="66"/>
      <point x="370" y="66" type="curve" smooth="yes"/>
      <point x="265" y="66"/>
      <point x="181" y="203"/>
      <point x="181" y="367" type="curve" smooth="yes"/>
      <point x="181" y="523"/>
      <point x="252" y="753"/>
      <point x="406" y="753" type="curve" smooth="yes"/>
      <point x="525" y="753"/>
      <point x="595" y="650"/>
    </contour>
  </outline>
</glyph>
<glyph name="florin" format="2">
  <advance width="514"/>
  <unicode hex="0192"/>
  <anchor x="94" y="-552" name="L"/>
  <anchor x="377" y="1508" name="U"/>
  <outline>
    <contour>
      <point x="600" y="806" type="curve"/>
      <point x="582" y="832" type="line"/>
      <point x="141" y="832" type="line"/>
      <point x="48" y="778" type="line"/>
      <point x="62" y="749" type="line"/>
      <point x="343" y="749" type="line" smooth="yes"/>
      <point x="435" y="749"/>
      <point x="471" y="742"/>
      <point x="483" y="708" type="curve"/>
      <point x="508" y="721"/>
      <point x="576" y="772"/>
    </contour>
    <contour>
      <point x="830" y="1290" type="curve"/>
      <point x="793" y="1303"/>
      <point x="727" y="1398"/>
      <point x="620" y="1398" type="curve" smooth="yes"/>
      <point x="544" y="1398"/>
      <point x="487" y="1360"/>
      <point x="422" y="1312" type="curve" smooth="yes"/>
      <point x="265" y="1196"/>
      <point x="239" y="1026"/>
      <point x="210" y="827" type="curve" smooth="yes"/>
      <point x="186" y="644"/>
      <point x="160" y="208"/>
      <point x="118" y="11" type="curve" smooth="yes"/>
      <point x="71" y="-217"/>
      <point x="1" y="-352"/>
      <point x="-105" y="-352" type="curve" smooth="yes"/>
      <point x="-213" y="-352"/>
      <point x="-246" y="-276"/>
      <point x="-267" y="-276" type="curve" smooth="yes"/>
      <point x="-292" y="-276"/>
      <point x="-365" y="-357"/>
      <point x="-365" y="-390" type="curve" smooth="yes"/>
      <point x="-365" y="-414"/>
      <point x="-273" y="-460"/>
      <point x="-203" y="-460" type="curve" smooth="yes"/>
      <point x="-161" y="-460"/>
      <point x="-64" y="-445"/>
      <point x="1" y="-390" type="curve" smooth="yes"/>
      <point x="138" y="-276"/>
      <point x="207" y="-190"/>
      <point x="257" y="61" type="curve" smooth="yes"/>
      <point x="286" y="208"/>
      <point x="327" y="674"/>
      <point x="352" y="875" type="curve"/>
      <point x="368" y="1032"/>
      <point x="410" y="1303"/>
      <point x="548" y="1303" type="curve" smooth="yes"/>
      <point x="618" y="1303"/>
      <point x="645" y="1200"/>
      <point x="678" y="1200" type="curve" smooth="yes"/>
      <point x="708" y="1200"/>
      <point x="778" y="1253"/>
    </contour>
  </outline>
</glyph>
<glyph name="ring" format="2">
  <advance width="412"/>
  <unicode hex="02DA"/>
  <outline>
    <contour>
      <point x="436" y="1177" type="curve"/>
      <point x="436" y="1245"/>
      <point x="392" y="1296"/>
      <point x="328" y="1296" type="curve" smooth="yes"/>
      <point x="213" y="1296"/>
      <point x="121" y="1166"/>
      <point x="121" y="1057" type="curve" smooth="yes"/>
      <point x="121" y="996"/>
      <point x="166" y="943"/>
      <point x="230" y="943" type="curve" smooth="yes"/>
      <point x="344" y="943"/>
      <point x="436" y="1077"/>
    </contour>
    <contour>
      <point x="358" y="1143" type="curve"/>
      <point x="358" y="1084"/>
      <point x="322" y="1012"/>
      <point x="257" y="1012" type="curve" smooth="yes"/>
      <point x="219" y="1012"/>
      <point x="198" y="1051"/>
      <point x="198" y="1096" type="curve" smooth="yes"/>
      <point x="198" y="1154"/>
      <point x="234" y="1226"/>
      <point x="302" y="1226" type="curve" smooth="yes"/>
      <point x="340" y="1226"/>
      <point x="358" y="1186"/>
    </contour>
  </outline>
</glyph>
<glyph name="ogonek" format="2">
  <advance width="346"/>
  <unicode hex="02DB"/>
  <anchor x="77" y="-552" name="L"/>
  <outline>
    <contour>
      <point x="269" y="-276" type="curve"/>
      <point x="252" y="-244" type="line"/>
      <point x="201" y="-291"/>
      <point x="158" y="-312"/>
      <point x="131" y="-312" type="curve" smooth="yes"/>
      <point x="95" y="-312"/>
      <point x="69" y="-296"/>
      <point x="69" y="-264" type="curve" smooth="yes"/>
      <point x="69" y="-158"/>
      <point x="195" y="-45"/>
      <point x="286" y="17" type="curve"/>
      <point x="240" y="23" type="line"/>
      <point x="112" y="-47"/>
      <point x="-39" y="-163"/>
      <point x="-39" y="-305" type="curve" smooth="yes"/>
      <point x="-39" y="-386"/>
      <point x="12" y="-410"/>
      <point x="69" y="-410" type="curve" smooth="yes"/>
      <point x="131" y="-410"/>
      <point x="212" y="-343"/>
    </contour>
  </outline>
</glyph>
